# Blender v2.78 (sub 0) OBJ File: 'fluid_test.blend'
# www.blender.org
o Area_Cube
v -0.070147 3.122335 0.073471
v -0.073655 3.122335 0.070148
v -0.070147 3.116275 0.070148
v 0.129383 3.122335 0.079208
v 0.129383 3.108407 0.070148
v 0.139744 3.122335 0.070148
v -0.157965 3.122335 -0.129382
v -0.070147 2.944568 -0.129382
v 0.129383 2.974540 -0.129382
v 0.233074 3.122335 -0.129382
v -0.070147 3.122335 -0.242774
v 0.129383 3.122335 -0.256916
v -0.070147 3.142037 0.070148
v 0.129383 3.321865 0.096706
v 0.030024 3.321865 0.070148
v 0.161795 3.321865 0.070148
v -0.070147 3.321865 0.013776
v -0.128711 3.321865 -0.129382
v 0.238090 3.321865 -0.129382
v -0.070147 3.321865 -0.203068
v 0.129383 3.321865 -0.238438
v 0.129383 3.521395 0.101362
v 0.035970 3.521395 0.070148
v 0.178716 3.521395 0.070148
v -0.070147 3.521395 -0.036726
v -0.100969 3.521395 -0.129382
v 0.270956 3.521395 -0.129382
v -0.070147 3.521395 -0.165265
v 0.129383 3.521395 -0.236251
v -0.070147 3.720925 0.129125
v -0.140150 3.720925 0.070148
v -0.070147 3.596217 0.070148
v 0.129383 3.720925 0.148879
v 0.306619 3.720925 0.070148
v -0.173381 3.720925 -0.129382
v 0.328913 3.720925 -0.030381
v 0.328913 3.686512 -0.129382
v 0.346363 3.720925 -0.129382
v -0.070147 3.720925 -0.261807
v 0.129383 3.720925 -0.301821
v 0.328913 3.720925 -0.153083
v -0.070147 3.920455 0.200386
v -0.248390 3.920455 0.070148
v 0.129383 3.920455 0.214489
v 0.328913 3.920455 0.151509
v 0.328913 3.746348 0.070148
v 0.437012 3.920455 0.070148
v -0.269677 3.920455 -0.102290
v -0.274034 3.920455 -0.129382
v -0.269677 3.914910 -0.129382
v 0.451926 3.920455 -0.129382
v -0.269677 3.920455 -0.134486
v -0.145366 3.920455 -0.328912
v -0.070147 3.811095 -0.328912
v 0.129383 3.771348 -0.328912
v 0.328913 3.920455 -0.317661
v 0.315399 3.920455 -0.328912
v -0.070147 3.920455 -0.418912
v 0.129383 3.920455 -0.430883
v -0.070147 4.119985 0.214939
v -0.207487 4.119985 0.070148
v 0.129383 4.119985 0.222113
v 0.328913 4.119985 0.173400
v 0.446474 4.119985 0.070148
v -0.269677 3.928336 -0.129382
v -0.212289 4.119985 -0.129382
v 0.454010 4.119985 -0.129382
v -0.170028 4.119985 -0.328912
v 0.328913 3.946331 -0.328912
v 0.381152 4.119985 -0.328912
v -0.070147 4.119985 -0.456097
v 0.129383 4.119985 -0.458925
v 0.328913 4.119985 -0.378421
v -0.070147 4.245188 0.070148
v 0.129383 4.245215 0.070148
v 0.328913 4.219734 0.070148
v -0.070147 4.245188 -0.129382
v 0.129383 4.245188 -0.129382
v 0.328913 4.220364 -0.129382
v -0.070147 4.219077 -0.328912
v 0.129383 4.220191 -0.328912
v 0.328913 4.166571 -0.328912
vn -0.6389 -0.3698 0.6746
vn -0.0215 -0.5451 0.8381
vn -0.0252 -0.4806 0.8766
vn 0.5912 -0.4398 0.6761
vn -0.7947 -0.4601 0.3959
vn -0.8384 -0.4142 0.3543
vn -0.0327 -0.8300 0.5568
vn 0.1131 -0.7531 0.6481
vn 0.7512 -0.5588 0.3514
vn 0.7639 -0.5359 0.3596
vn -0.7364 -0.3638 -0.5703
vn 0.0805 -0.5360 -0.8403
vn -0.0536 -0.6524 -0.7560
vn 0.6815 -0.4781 -0.5541
vn -0.6825 0.1215 0.7207
vn -0.2861 0.1593 0.9449
vn -0.2555 0.1442 0.9560
vn -0.0286 -0.0873 0.9958
vn 0.6568 -0.0659 0.7512
vn 0.6322 -0.0699 0.7716
vn -0.9191 0.1179 0.3760
vn -0.8988 0.1601 0.4081
vn -0.9129 0.1338 0.3857
vn -0.4731 0.2635 0.8407
vn 0.9013 -0.0996 0.4216
vn 0.9338 -0.0235 0.3571
vn -0.7778 0.1140 -0.6181
vn -0.7848 0.1210 -0.6078
vn -0.0704 0.0920 -0.9933
vn -0.1713 0.1923 -0.9663
vn 0.7758 -0.0195 -0.6307
vn 0.7067 0.0652 -0.7045
vn -0.3168 -0.0221 0.9482
vn -0.2582 0.0077 0.9661
vn 0.6337 -0.0180 0.7734
vn 0.5341 -0.0453 0.8442
vn -0.9459 0.0796 0.3146
vn -0.9180 0.1276 0.3755
vn -0.4904 0.0146 0.8714
vn -0.6986 0.1756 0.6936
vn 0.9311 -0.0790 0.3560
vn 0.8977 -0.1479 0.4150
vn -0.7544 0.1049 -0.6480
vn -0.7775 0.1171 -0.6179
vn -0.1745 0.0108 -0.9846
vn -0.3300 0.1757 -0.9275
vn 0.7035 -0.1159 -0.7012
vn 0.6025 0.0087 -0.7981
vn -0.6059 -0.3401 0.7192
vn -0.2891 -0.4100 0.8651
vn -0.2889 -0.4093 0.8655
vn -0.0959 -0.2306 0.9683
vn 0.5242 -0.1973 0.8285
vn 0.3929 -0.2518 0.8844
vn -0.8249 -0.4631 0.3242
vn -0.8480 -0.4486 0.2821
vn -0.9287 -0.3370 0.1547
vn -0.5002 -0.7094 0.4966
vn 0.9374 -0.3290 0.1144
vn 0.9092 -0.3642 0.2016
vn 0.7846 -0.5029 0.3627
vn 0.8811 -0.4468 0.1553
vn -0.7582 -0.2752 -0.5911
vn -0.7235 -0.3007 -0.6214
vn -0.3202 -0.2958 -0.9000
vn -0.1776 -0.4286 -0.8858
vn 0.5894 -0.2069 -0.7809
vn 0.6732 -0.4194 -0.6090
vn 0.5779 -0.2548 -0.7753
vn 0.7455 -0.3780 -0.5489
vn -0.5669 -0.2771 0.7758
vn -0.6082 -0.3300 0.7219
vn -0.0936 -0.3110 0.9458
vn -0.0664 -0.3356 0.9397
vn 0.4348 -0.3813 0.8159
vn 0.3746 -0.3857 0.8432
vn 0.2872 -0.2992 0.9099
vn 0.5634 -0.3498 0.7485
vn -0.7801 -0.6130 0.1255
vn -0.8516 -0.5136 0.1051
vn -0.8905 -0.4421 0.1073
vn -0.8697 -0.4718 0.1449
vn 0.7416 -0.6504 0.1645
vn 0.8120 -0.5659 0.1431
vn 0.8412 -0.5223 0.1401
vn 0.8820 -0.4666 0.0659
vn -0.6529 -0.5130 -0.5573
vn -0.7290 -0.5014 -0.4661
vn -0.7426 -0.3998 -0.5372
vn -0.7537 -0.4451 -0.4836
vn -0.7344 -0.3646 -0.5725
vn -0.1740 -0.4661 -0.8675
vn -0.1181 -0.5928 -0.7966
vn 0.3547 -0.4425 -0.8236
vn 0.5239 -0.5739 -0.6294
vn 0.4985 -0.5516 -0.6687
vn 0.7409 -0.3920 -0.5454
vn 0.7631 -0.4112 -0.4986
vn -0.6786 -0.4667 -0.5671
vn -0.1256 -0.6304 -0.7660
vn -0.0495 -0.5638 -0.8244
vn 0.4123 -0.5143 -0.7520
vn -0.7246 -0.0501 0.6873
vn -0.5857 0.1201 0.8016
vn -0.0705 -0.0381 0.9968
vn -0.0358 -0.0727 0.9967
vn 0.2994 -0.1041 0.9484
vn 0.2370 -0.0371 0.9708
vn 0.5991 -0.0873 0.7959
vn 0.6596 -0.0313 0.7510
vn -0.8666 0.4791 0.1394
vn -0.9547 0.2859 0.0832
vn -0.9501 0.2892 0.1173
vn -0.9794 0.2008 0.0236
vn 0.9961 -0.0472 0.0745
vn 0.9992 -0.0104 0.0377
vn -0.7011 0.3876 -0.5985
vn -0.7955 0.3294 -0.5086
vn -0.8185 0.2451 -0.5196
vn -0.9712 -0.1200 -0.2057
vn 0.6068 -0.3169 -0.7289
vn 0.7983 -0.2401 -0.5523
vn 0.8122 -0.2425 -0.5306
vn 0.9393 -0.0098 -0.3430
vn -0.7828 -0.0968 -0.6147
vn -0.7619 -0.1187 -0.6368
vn -0.0593 -0.1389 -0.9885
vn -0.0139 -0.1832 -0.9830
vn 0.4662 -0.2435 -0.8505
vn 0.4662 -0.2426 -0.8508
vn 0.3710 -0.1292 -0.9196
vn 0.6736 -0.2026 -0.7108
vn -0.5677 0.6227 0.5385
vn -0.0229 0.7715 0.6358
vn -0.0001 0.7564 0.6541
vn 0.1672 0.7091 0.6850
vn 0.0981 0.7680 0.6329
vn 0.5209 0.6139 0.5931
vn -0.6610 0.7504 0.0000
vn -0.6736 0.7389 0.0162
vn -0.0001 1.0000 -0.0001
vn 0.0000 1.0000 0.0000
vn 0.1267 0.9919 0.0031
vn 0.1235 0.9923 -0.0001
vn 0.6257 0.7797 0.0236
vn 0.6470 0.7625 0.0024
vn -0.7013 0.7069 -0.0925
vn -0.6546 0.7432 -0.1386
vn 0.0000 0.9922 -0.1243
vn -0.0055 0.9915 -0.1298
vn 0.1193 0.9586 -0.2584
vn 0.2576 0.9587 -0.1201
vn 0.6467 0.7252 -0.2362
vn 0.6124 0.7633 -0.2058
vn -0.6163 0.6212 -0.4840
vn -0.0087 0.7888 -0.6146
vn -0.0044 0.7920 -0.6105
vn 0.2392 0.7691 -0.5927
vn 0.1921 0.7147 -0.6725
vn 0.5447 0.6108 -0.5747
s off
f 3//1 1//1 2//1
f 3//2 5//2 4//2
f 1//3 3//3 4//3
f 4//4 5//4 6//4
f 8//5 3//5 2//5
f 7//6 8//6 2//6
f 5//7 3//7 9//7
f 9//8 3//8 8//8
f 10//9 6//9 5//9
f 9//10 10//10 5//10
f 8//11 7//11 11//11
f 9//12 8//12 11//12
f 12//13 9//13 11//13
f 10//14 9//14 12//14
f 1//15 13//15 2//15
f 15//16 13//16 1//16
f 15//17 1//17 14//17
f 14//18 1//18 4//18
f 14//19 4//19 6//19
f 16//20 14//20 6//20
f 13//21 17//21 18//21
f 13//22 18//22 2//22
f 2//23 18//23 7//23
f 15//24 17//24 13//24
f 6//25 10//25 16//25
f 16//26 10//26 19//26
f 7//27 18//27 20//27
f 11//28 7//28 20//28
f 12//29 11//29 21//29
f 11//30 20//30 21//30
f 19//31 10//31 12//31
f 21//32 19//32 12//32
f 14//33 22//33 23//33
f 15//34 14//34 23//34
f 22//35 14//35 16//35
f 24//36 22//36 16//36
f 17//37 25//37 26//37
f 18//38 17//38 26//38
f 23//39 17//39 15//39
f 25//40 17//40 23//40
f 16//41 19//41 24//41
f 24//42 19//42 27//42
f 18//43 26//43 28//43
f 20//44 18//44 28//44
f 21//45 20//45 29//45
f 20//46 28//46 29//46
f 27//47 19//47 21//47
f 29//48 27//48 21//48
f 32//49 30//49 31//49
f 32//50 23//50 22//50
f 32//51 22//51 30//51
f 30//52 22//52 33//52
f 33//53 22//53 24//53
f 34//54 33//54 24//54
f 25//55 32//55 31//55
f 25//56 31//56 26//56
f 26//57 31//57 35//57
f 23//58 32//58 25//58
f 36//59 27//59 37//59
f 36//60 34//60 27//60
f 34//61 24//61 27//61
f 36//62 37//62 38//62
f 26//63 35//63 39//63
f 28//64 26//64 39//64
f 29//65 28//65 40//65
f 28//66 39//66 40//66
f 37//67 27//67 29//67
f 37//68 29//68 41//68
f 41//69 29//69 40//69
f 38//70 37//70 41//70
f 30//71 42//71 43//71
f 31//72 30//72 43//72
f 33//73 44//73 30//73
f 30//74 44//74 42//74
f 34//75 46//75 45//75
f 34//76 45//76 33//76
f 33//77 45//77 44//77
f 45//78 46//78 47//78
f 50//79 48//79 49//79
f 50//80 43//80 48//80
f 50//81 35//81 43//81
f 35//82 31//82 43//82
f 34//83 36//83 46//83
f 46//84 36//84 38//84
f 46//85 38//85 47//85
f 47//86 38//86 51//86
f 50//87 49//87 52//87
f 54//88 52//88 53//88
f 39//89 52//89 54//89
f 39//90 50//90 52//90
f 39//91 35//91 50//91
f 39//92 55//92 40//92
f 54//93 55//93 39//93
f 57//94 40//94 55//94
f 57//95 56//95 40//95
f 56//96 41//96 40//96
f 51//97 38//97 41//97
f 56//98 51//98 41//98
f 54//99 53//99 58//99
f 55//100 54//100 58//100
f 59//101 55//101 58//101
f 57//102 55//102 59//102
f 42//103 60//103 61//103
f 43//104 42//104 61//104
f 44//105 62//105 42//105
f 42//106 62//106 60//106
f 45//107 63//107 44//107
f 44//108 63//108 62//108
f 63//109 45//109 47//109
f 64//110 63//110 47//110
f 48//111 65//111 49//111
f 48//112 66//112 65//112
f 48//113 43//113 66//113
f 43//114 61//114 66//114
f 47//115 51//115 64//115
f 64//116 51//116 67//116
f 49//117 65//117 52//117
f 65//118 53//118 52//118
f 65//119 66//119 53//119
f 66//120 68//120 53//120
f 56//121 57//121 69//121
f 56//122 69//122 70//122
f 56//123 70//123 51//123
f 51//124 70//124 67//124
f 53//125 68//125 71//125
f 58//126 53//126 71//126
f 59//127 58//127 72//127
f 58//128 71//128 72//128
f 69//129 57//129 59//129
f 69//130 59//130 73//130
f 73//131 59//131 72//131
f 70//132 69//132 73//132
f 60//133 74//133 61//133
f 60//134 62//134 75//134
f 74//135 60//135 75//135
f 62//136 63//136 76//136
f 75//137 62//137 76//137
f 63//138 64//138 76//138
f 74//139 77//139 66//139
f 61//140 74//140 66//140
f 75//141 78//141 74//141
f 78//142 77//142 74//142
f 76//143 79//143 75//143
f 79//144 78//144 75//144
f 64//145 67//145 79//145
f 76//146 64//146 79//146
f 77//147 80//147 68//147
f 66//148 77//148 68//148
f 78//149 81//149 77//149
f 81//150 80//150 77//150
f 79//151 82//151 78//151
f 82//152 81//152 78//152
f 67//153 70//153 82//153
f 79//154 67//154 82//154
f 68//155 80//155 71//155
f 72//156 71//156 80//156
f 81//157 72//157 80//157
f 73//158 72//158 81//158
f 82//159 73//159 81//159
f 70//160 73//160 82//160
