# Blender v2.78 (sub 0) OBJ File: 'fluid_test.blend'
# www.blender.org
o Area_Cube
v -0.070147 2.324215 0.111649
v -0.115396 2.324215 0.070148
v -0.070147 2.249730 0.070148
v 0.129383 2.324215 0.104838
v 0.129383 2.268778 0.070148
v 0.166143 2.324215 0.070148
v -0.180067 2.324215 -0.129382
v -0.070147 2.127097 -0.129382
v 0.129383 2.163728 -0.129382
v 0.229827 2.324215 -0.129382
v -0.087329 2.324215 -0.328912
v -0.070147 2.299315 -0.328912
v 0.129383 2.324215 -0.325177
v 0.099784 2.324215 -0.328912
v -0.070147 2.324215 -0.349754
v -0.070147 2.481025 0.070148
v 0.129383 2.523745 0.087349
v 0.015847 2.523745 0.070148
v 0.147762 2.523745 0.070148
v -0.070147 2.523745 0.038270
v -0.131811 2.523745 -0.129382
v 0.219873 2.523745 -0.129382
v -0.070147 2.523745 -0.249302
v -0.070147 2.375044 -0.328912
v 0.129383 2.523745 -0.271501
v 0.129383 2.543473 0.070148
v -0.070147 2.582079 -0.129382
v 0.129383 2.613029 -0.129382
v 0.129383 3.122335 -0.034299
v -0.026841 3.122335 -0.129382
v 0.129383 3.072373 -0.129382
v 0.172972 3.122335 -0.129382
v 0.129383 3.122335 -0.176276
v 0.129383 3.321865 -0.069010
v 0.040210 3.321865 -0.129382
v 0.153960 3.321865 -0.129382
v 0.129383 3.321865 -0.155936
v 0.129383 3.521395 -0.118521
v 0.118311 3.521395 -0.129382
v 0.135518 3.521395 -0.129382
v 0.129383 3.521395 -0.135610
v -0.070147 3.720925 0.111202
v -0.125850 3.720925 0.070148
v -0.070147 3.672529 0.070148
v 0.129383 3.720925 0.108034
v 0.129383 3.664981 0.070148
v 0.177879 3.720925 0.070148
v -0.182380 3.720925 -0.129382
v -0.070147 3.606564 -0.129382
v 0.273390 3.720925 -0.129382
v -0.070147 3.720925 -0.248871
v 0.129383 3.720925 -0.287549
v -0.070147 3.920455 0.195802
v -0.224032 3.920455 0.070148
v 0.129383 3.920455 0.222295
v 0.328913 3.920455 0.122497
v 0.328913 3.858008 0.070148
v 0.400720 3.920455 0.070148
v -0.255242 3.920455 -0.129382
v 0.328913 3.807764 -0.129382
v 0.449647 3.920455 -0.129382
v -0.127764 3.920455 -0.328912
v -0.070147 3.839401 -0.328912
v 0.129383 3.788564 -0.328912
v 0.328913 3.920455 -0.274352
v 0.275103 3.920455 -0.328912
v -0.070147 3.920455 -0.402007
v 0.129383 3.920455 -0.433336
v -0.070147 4.119985 0.210699
v -0.200613 4.119985 0.070148
v 0.129383 4.119985 0.222100
v 0.328913 4.119985 0.176131
v 0.454807 4.119985 0.070148
v -0.203931 4.119985 -0.129382
v 0.468546 4.119985 -0.129382
v -0.165631 4.119985 -0.328912
v 0.328913 4.016367 -0.328912
v 0.371513 4.119985 -0.328912
v -0.070147 4.119985 -0.454723
v 0.129383 4.119985 -0.462791
v 0.328913 4.119985 -0.370631
v -0.070147 4.244823 0.070148
v 0.129383 4.245188 0.070148
v 0.328913 4.222022 0.070148
v -0.070147 4.244880 -0.129382
v 0.129383 4.245188 -0.129382
v 0.328913 4.223373 -0.129382
v -0.070147 4.219243 -0.328912
v 0.129383 4.221892 -0.328912
v 0.328913 4.158747 -0.328912
vn -0.6253 -0.3798 0.6817
vn 0.0506 -0.5298 0.8466
vn 0.0298 -0.4865 0.8732
vn 0.6247 -0.4142 0.6620
vn -0.8142 -0.4946 0.3040
vn -0.8404 -0.4686 0.2724
vn 0.0842 -0.8817 0.4642
vn 0.1545 -0.8417 0.5173
vn 0.8054 -0.5341 0.2571
vn 0.8164 -0.5110 0.2690
vn -0.8051 -0.4490 -0.3875
vn -0.7687 -0.5305 -0.3573
vn 0.0797 -0.7709 -0.6319
vn 0.1123 -0.7661 -0.6328
vn 0.1377 -0.7498 -0.6472
vn 0.7773 -0.4865 -0.3988
vn -0.6811 -0.4700 -0.5615
vn 0.0936 -0.6390 -0.7635
vn -0.6634 0.1914 0.7233
vn -0.1261 0.2538 0.9590
vn -0.1446 0.2608 0.9545
vn 0.0340 0.0873 0.9956
vn 0.6849 0.0636 0.7258
vn 0.6820 0.0628 0.7287
vn -0.9089 0.2495 0.3343
vn -0.9051 0.2612 0.3356
vn -0.9271 0.2242 0.3005
vn -0.2848 0.5733 0.7683
vn 0.9490 0.0874 0.3029
vn 0.9394 0.0469 0.3395
vn -0.8130 0.2748 -0.5133
vn -0.8609 0.2508 -0.4427
vn -0.8858 0.2142 -0.4117
vn 0.1155 0.3860 -0.9152
vn 0.1355 0.4676 -0.8735
vn -0.1068 0.2583 -0.9601
vn 0.8889 0.0443 -0.4560
vn 0.8349 0.1430 -0.5316
vn -0.7466 0.2524 -0.6155
vn 0.1128 0.3770 -0.9193
vn -0.1135 0.6529 0.7489
vn 0.5764 0.5370 0.6159
vn -0.6663 0.7043 0.2451
vn -0.1554 0.8945 0.4193
vn -0.1444 0.9346 0.3252
vn -0.1449 0.9343 0.3257
vn 0.6808 0.6900 0.2460
vn 0.7119 0.6632 0.2312
vn -0.6480 0.6849 -0.3332
vn -0.0486 0.8982 -0.4369
vn -0.1302 0.8396 -0.5274
vn 0.6412 0.6498 -0.4082
vn -0.2724 -0.8518 0.4476
vn 0.7122 -0.6214 0.3265
vn -0.2138 -0.6685 -0.7123
vn 0.6172 -0.5385 -0.5737
vn -0.5549 0.1426 0.8196
vn -0.5121 0.1721 0.8415
vn 0.9066 0.0723 0.4156
vn 0.9226 0.0879 0.3756
vn -0.2841 0.0955 -0.9540
vn -0.2861 0.0972 -0.9532
vn 0.7307 0.0696 -0.6792
vn 0.7322 0.0691 -0.6776
vn -0.6895 0.1744 0.7030
vn -0.5476 0.2143 0.8088
vn 0.9222 0.0932 0.3754
vn 0.8679 0.0802 0.4903
vn -0.4815 0.1885 -0.8560
vn -0.2841 0.0972 -0.9539
vn 0.7322 0.0677 -0.6777
vn 0.7106 0.0713 -0.7000
vn -0.4900 -0.5639 0.6648
vn -0.0212 -0.5606 0.8278
vn 0.0121 -0.6468 0.7625
vn 0.5431 -0.4708 0.6952
vn -0.6363 -0.7324 0.2421
vn -0.6996 -0.6865 0.1982
vn -0.3797 -0.8402 0.3871
vn -0.3492 -0.7457 0.5675
vn -0.0359 -0.9488 0.3137
vn 0.7312 -0.5428 0.4131
vn 0.6773 -0.5871 0.4433
vn 0.7655 -0.5289 0.3664
vn -0.5928 -0.5818 -0.5568
vn -0.3104 -0.6868 -0.6573
vn -0.3493 -0.7018 -0.6209
vn -0.1524 -0.5988 -0.7863
vn 0.6392 -0.4416 -0.6296
vn 0.6580 -0.4562 -0.5991
vn -0.6009 -0.3120 0.7359
vn -0.5695 -0.2802 0.7727
vn 0.0138 -0.4969 0.8677
vn -0.1213 -0.3875 0.9139
vn 0.5037 -0.5550 0.6620
vn 0.5108 -0.5582 0.6538
vn 0.3982 -0.4558 0.7960
vn 0.4877 -0.5608 0.6690
vn -0.8696 -0.4279 0.2464
vn -0.9294 -0.3394 0.1454
vn 0.8349 -0.5338 0.1344
vn 0.6398 -0.7049 0.3063
vn 0.6479 -0.7450 0.1589
vn 0.6711 -0.7190 0.1810
vn -0.6616 -0.4198 -0.6214
vn -0.6357 -0.4519 -0.6259
vn -0.8054 -0.2941 -0.5146
vn -0.1632 -0.5147 -0.8417
vn -0.1412 -0.5542 -0.8203
vn 0.4270 -0.4718 -0.7714
vn 0.6116 -0.5621 -0.5568
vn 0.5810 -0.5780 -0.5730
vn 0.7771 -0.4969 -0.3862
vn 0.5932 -0.6356 -0.4941
vn -0.6857 -0.4874 -0.5405
vn -0.1682 -0.6602 -0.7320
vn -0.1222 -0.6161 -0.7781
vn 0.4898 -0.5412 -0.6835
vn -0.7320 -0.0507 0.6794
vn -0.6307 0.0740 0.7725
vn -0.1316 0.0010 0.9913
vn -0.0569 -0.0743 0.9956
vn 0.4349 -0.2337 0.8696
vn 0.2245 0.0010 0.9745
vn 0.5757 -0.2123 0.7897
vn 0.6344 -0.1720 0.7536
vn -0.9814 0.1152 0.1535
vn -0.9684 0.2490 0.0161
vn 0.9392 -0.2546 0.2303
vn 0.9932 -0.0941 0.0684
vn -0.8236 0.2118 -0.5262
vn -0.9654 -0.1832 -0.1853
vn 0.6612 -0.3709 -0.6521
vn 0.7689 -0.3161 -0.5557
vn 0.7277 -0.3211 -0.6061
vn 0.8961 -0.0849 -0.4358
vn -0.7876 -0.1495 -0.5978
vn -0.7751 -0.1614 -0.6109
vn -0.1535 -0.1443 -0.9776
vn -0.0391 -0.2552 -0.9661
vn 0.5537 -0.3106 -0.7726
vn 0.5537 -0.3110 -0.7724
vn 0.4156 -0.1328 -0.8998
vn 0.6724 -0.2764 -0.6866
vn -0.5818 0.6081 0.5401
vn -0.0363 0.7713 0.6355
vn -0.0014 0.7477 0.6641
vn 0.1578 0.7114 0.6849
vn 0.0892 0.7687 0.6334
vn 0.5042 0.6221 0.5989
vn -0.6824 0.7310 0.0002
vn -0.6913 0.7225 0.0115
vn -0.0018 1.0000 0.0000
vn -0.0015 1.0000 0.0003
vn 0.1153 0.9933 0.0067
vn 0.1087 0.9941 0.0000
vn 0.5946 0.8030 0.0409
vn 0.6296 0.7769 0.0053
vn -0.7178 0.6905 -0.0887
vn -0.6766 0.7248 -0.1299
vn -0.0015 0.9933 -0.1160
vn -0.0132 0.9918 -0.1274
vn 0.1035 0.9462 -0.3065
vn 0.2999 0.9475 -0.1106
vn 0.6396 0.7030 -0.3111
vn 0.5759 0.7778 -0.2519
vn -0.6323 0.6082 -0.4799
vn -0.0250 0.7848 -0.6192
vn -0.0106 0.7957 -0.6056
vn 0.2694 0.7663 -0.5833
vn 0.2259 0.7137 -0.6631
vn 0.5547 0.6096 -0.5664
s off
f 3//1 1//1 2//1
f 3//2 5//2 4//2
f 1//3 3//3 4//3
f 4//4 5//4 6//4
f 8//5 3//5 2//5
f 7//6 8//6 2//6
f 5//7 3//7 9//7
f 9//8 3//8 8//8
f 10//9 6//9 5//9
f 9//10 10//10 5//10
f 12//11 8//11 7//11
f 11//12 12//12 7//12
f 14//13 13//13 9//13
f 14//14 9//14 12//14
f 12//15 9//15 8//15
f 10//16 9//16 13//16
f 12//17 11//17 15//17
f 14//18 12//18 15//18
f 1//19 16//19 2//19
f 18//20 16//20 1//20
f 18//21 1//21 17//21
f 17//22 1//22 4//22
f 17//23 4//23 6//23
f 19//24 17//24 6//24
f 16//25 20//25 21//25
f 16//26 21//26 2//26
f 2//27 21//27 7//27
f 18//28 20//28 16//28
f 6//29 10//29 19//29
f 19//30 10//30 22//30
f 23//31 24//31 11//31
f 23//32 11//32 21//32
f 21//33 11//33 7//33
f 24//34 13//34 14//34
f 24//35 23//35 13//35
f 23//36 25//36 13//36
f 22//37 10//37 13//37
f 25//38 22//38 13//38
f 11//39 24//39 15//39
f 14//40 15//40 24//40
f 17//41 26//41 18//41
f 17//42 19//42 26//42
f 20//43 27//43 21//43
f 20//44 18//44 26//44
f 20//45 26//45 27//45
f 27//46 26//46 28//46
f 19//47 22//47 28//47
f 26//48 19//48 28//48
f 21//49 27//49 23//49
f 25//50 23//50 27//50
f 28//51 25//51 27//51
f 22//52 25//52 28//52
f 31//53 29//53 30//53
f 29//54 31//54 32//54
f 31//55 30//55 33//55
f 32//56 31//56 33//56
f 29//57 34//57 35//57
f 30//58 29//58 35//58
f 34//59 29//59 32//59
f 36//60 34//60 32//60
f 30//61 35//61 37//61
f 33//62 30//62 37//62
f 36//63 32//63 33//63
f 37//64 36//64 33//64
f 34//65 38//65 39//65
f 35//66 34//66 39//66
f 38//67 34//67 36//67
f 40//68 38//68 36//68
f 35//69 39//69 41//69
f 37//70 35//70 41//70
f 40//71 36//71 37//71
f 41//72 40//72 37//72
f 44//73 42//73 43//73
f 44//74 46//74 45//74
f 42//75 44//75 45//75
f 45//76 46//76 47//76
f 49//77 44//77 43//77
f 48//78 49//78 43//78
f 38//79 49//79 39//79
f 38//80 46//80 49//80
f 46//81 44//81 49//81
f 46//82 38//82 40//82
f 46//83 40//83 47//83
f 47//84 40//84 50//84
f 49//85 48//85 51//85
f 39//86 49//86 51//86
f 39//87 51//87 41//87
f 41//88 51//88 52//88
f 50//89 40//89 41//89
f 52//90 50//90 41//90
f 42//91 53//91 54//91
f 43//92 42//92 54//92
f 45//93 55//93 42//93
f 42//94 55//94 53//94
f 47//95 57//95 56//95
f 47//96 56//96 45//96
f 45//97 56//97 55//97
f 56//98 57//98 58//98
f 43//99 54//99 48//99
f 54//100 59//100 48//100
f 57//101 50//101 60//101
f 47//102 50//102 57//102
f 61//103 58//103 57//103
f 60//104 61//104 57//104
f 63//105 51//105 48//105
f 63//106 48//106 62//106
f 62//107 48//107 59//107
f 51//108 64//108 52//108
f 63//109 64//109 51//109
f 52//110 64//110 66//110
f 50//111 52//111 66//111
f 50//112 66//112 65//112
f 50//113 65//113 60//113
f 61//114 60//114 65//114
f 63//115 62//115 67//115
f 64//116 63//116 67//116
f 68//117 64//117 67//117
f 66//118 64//118 68//118
f 53//119 69//119 70//119
f 54//120 53//120 70//120
f 55//121 71//121 53//121
f 53//122 71//122 69//122
f 56//123 72//123 55//123
f 55//124 72//124 71//124
f 72//125 56//125 58//125
f 73//126 72//126 58//126
f 54//127 70//127 59//127
f 70//128 74//128 59//128
f 58//129 61//129 73//129
f 73//130 61//130 75//130
f 59//131 74//131 62//131
f 74//132 76//132 62//132
f 65//133 66//133 77//133
f 65//134 77//134 78//134
f 65//135 78//135 61//135
f 61//136 78//136 75//136
f 62//137 76//137 79//137
f 67//138 62//138 79//138
f 68//139 67//139 80//139
f 67//140 79//140 80//140
f 77//141 66//141 68//141
f 77//142 68//142 81//142
f 81//143 68//143 80//143
f 78//144 77//144 81//144
f 69//145 82//145 70//145
f 69//146 71//146 83//146
f 82//147 69//147 83//147
f 71//148 72//148 84//148
f 83//149 71//149 84//149
f 72//150 73//150 84//150
f 82//151 85//151 74//151
f 70//152 82//152 74//152
f 83//153 86//153 82//153
f 86//154 85//154 82//154
f 84//155 87//155 83//155
f 87//156 86//156 83//156
f 73//157 75//157 87//157
f 84//158 73//158 87//158
f 85//159 88//159 76//159
f 74//160 85//160 76//160
f 86//161 89//161 85//161
f 89//162 88//162 85//162
f 87//163 90//163 86//163
f 90//164 89//164 86//164
f 75//165 78//165 90//165
f 87//166 75//166 90//166
f 76//167 88//167 79//167
f 80//168 79//168 88//168
f 89//169 80//169 88//169
f 81//170 80//170 89//170
f 90//171 81//171 89//171
f 78//172 81//172 90//172
