# Blender v2.78 (sub 0) OBJ File: 'fluid_test.blend'
# www.blender.org
o Area_Cube
v -0.070147 1.526095 -0.079909
v -0.096000 1.526095 -0.129382
v -0.070147 1.497194 -0.129382
v 0.028422 1.526095 -0.129382
v -0.070147 1.526095 -0.170924
v -0.070147 1.725625 0.100683
v -0.104042 1.725625 0.070148
v -0.070147 1.660452 0.070148
v 0.129383 1.725625 0.100477
v 0.129383 1.673007 0.070148
v 0.161711 1.725625 0.070148
v -0.171859 1.725625 -0.129382
v 0.129383 1.554426 -0.129382
v 0.228731 1.725625 -0.129382
v -0.107098 1.725625 -0.328912
v -0.070147 1.665048 -0.328912
v 0.129383 1.688518 -0.328912
v 0.155325 1.725625 -0.328912
v -0.070147 1.725625 -0.374663
v 0.129383 1.725625 -0.361303
v -0.070147 1.808438 0.070148
v 0.129383 1.848156 0.070148
v -0.070147 1.925155 -0.066685
v -0.093303 1.925155 -0.129382
v 0.129383 1.925155 0.024808
v 0.194202 1.925155 -0.129382
v -0.070147 1.925155 -0.215748
v -0.070147 1.839585 -0.328912
v 0.129383 1.925155 -0.296587
v 0.129383 1.855958 -0.328912
v -0.070147 1.954135 -0.129382
v 0.129383 2.013445 -0.129382
v -0.070147 2.723275 -0.010616
v -0.127808 2.723275 -0.129382
v -0.070147 2.657313 -0.129382
v 0.129383 2.723275 -0.023314
v 0.129383 2.672466 -0.129382
v 0.172819 2.723275 -0.129382
v -0.070147 2.723275 -0.191836
v 0.129383 2.723275 -0.178480
v -0.070147 2.901808 -0.129382
v 0.129383 2.865271 -0.129382
v -0.070147 3.720925 0.106528
v -0.108346 3.720925 0.070148
v -0.070147 3.684628 0.070148
v 0.129383 3.720925 0.128463
v 0.129383 3.662410 0.070148
v 0.199027 3.720925 0.070148
v -0.166320 3.720925 -0.129382
v -0.070147 3.637018 -0.129382
v 0.129383 3.607041 -0.129382
v 0.267099 3.720925 -0.129382
v -0.070147 3.720925 -0.240022
v 0.129383 3.720925 -0.281203
v -0.070147 3.920455 0.197420
v -0.187923 3.920455 0.070148
v 0.129383 3.920455 0.233361
v 0.328913 3.920455 0.122011
v 0.328913 3.860780 0.070148
v 0.401177 3.920455 0.070148
v -0.236211 3.920455 -0.129382
v 0.328913 3.813583 -0.129382
v 0.458163 3.920455 -0.129382
v -0.131386 3.920455 -0.328912
v -0.070147 3.838374 -0.328912
v 0.129383 3.791437 -0.328912
v 0.328913 3.920455 -0.261902
v 0.266489 3.920455 -0.328912
v -0.070147 3.920455 -0.411683
v 0.129383 3.920455 -0.455707
v -0.070147 4.119985 0.214868
v -0.205911 4.119985 0.070148
v 0.129383 4.119985 0.226834
v 0.328913 4.119985 0.180427
v 0.458643 4.119985 0.070148
v -0.212729 4.119985 -0.129382
v 0.474031 4.119985 -0.129382
v -0.171690 4.119985 -0.328912
v 0.328913 4.031463 -0.328912
v 0.370640 4.119985 -0.328912
v -0.070147 4.119985 -0.460242
v 0.129383 4.119985 -0.467474
v 0.328913 4.119985 -0.370174
v -0.070147 4.245019 0.070148
v 0.129383 4.245188 0.070148
v 0.328913 4.222345 0.070148
v -0.070147 4.245155 -0.129382
v 0.129383 4.245188 -0.129382
v 0.328913 4.224375 -0.129382
v -0.070147 4.221814 -0.328912
v 0.129383 4.222974 -0.328912
v 0.328913 4.158990 -0.328912
vn -0.6945 -0.6213 0.3629
vn 0.2454 -0.8371 0.4890
vn -0.6761 -0.6048 -0.4208
vn 0.2340 -0.7981 -0.5552
vn -0.6321 -0.3288 0.7017
vn 0.0314 -0.4991 0.8660
vn 0.0009 -0.4243 0.9055
vn 0.6307 -0.3875 0.6723
vn -0.8200 -0.4264 0.3818
vn -0.7931 -0.4464 0.4144
vn -0.8908 -0.3387 0.3028
vn 0.3175 -0.7065 0.6325
vn 0.2129 -0.7585 0.6159
vn 0.0540 -0.8584 0.5101
vn 0.8191 -0.5033 0.2751
vn 0.8288 -0.4810 0.2858
vn -0.7278 -0.5150 -0.4529
vn -0.7717 -0.4707 -0.4278
vn -0.8945 -0.3401 -0.2903
vn 0.2275 -0.8106 -0.5397
vn 0.2372 -0.7295 -0.6416
vn 0.0972 -0.8261 -0.5551
vn 0.8242 -0.4783 -0.3032
vn 0.7648 -0.5347 -0.3593
vn -0.7028 -0.4287 -0.5676
vn 0.0707 -0.6012 -0.7960
vn 0.0504 -0.6568 -0.7524
vn 0.6852 -0.4790 -0.5487
vn -0.6455 0.2642 0.7166
vn 0.0010 0.2403 0.9707
vn -0.0687 0.3451 0.9360
vn 0.6733 0.1776 0.7177
vn -0.8691 0.3763 0.3210
vn -0.8791 0.3598 0.3125
vn -0.8872 0.3493 0.3015
vn -0.1497 0.7522 0.6416
vn -0.3675 0.4719 0.8014
vn 0.8872 0.2341 0.3975
vn 0.8969 0.2310 0.3771
vn 0.9355 0.1619 0.3142
vn -0.9264 0.3004 -0.2271
vn -0.9184 0.3097 -0.2462
vn -0.8907 0.3507 -0.2891
vn -0.0347 0.4230 -0.9055
vn -0.2374 0.7748 -0.5859
vn 0.9194 0.1665 -0.3564
vn 0.9149 0.1821 -0.3604
vn 0.9264 0.1603 -0.3408
vn -0.7543 0.2446 -0.6092
vn 0.0620 0.3718 -0.9262
vn -0.0198 0.2411 -0.9703
vn 0.7713 0.1535 -0.6177
vn -0.7506 0.5998 0.2772
vn -0.2222 0.8461 0.4845
vn -0.2605 0.8764 0.4051
vn 0.7634 0.5605 0.3209
vn -0.7646 0.6110 -0.2050
vn -0.1278 0.9403 -0.3155
vn -0.2542 0.8552 -0.4516
vn 0.7694 0.5649 -0.2983
vn -0.7071 -0.6181 0.3433
vn 0.0683 -0.8998 0.4310
vn 0.0309 -0.8738 0.4853
vn 0.7258 -0.6204 0.2972
vn -0.6182 -0.5404 -0.5708
vn 0.0521 -0.6866 -0.7252
vn 0.0481 -0.6941 -0.7183
vn 0.6308 -0.5392 -0.5580
vn -0.8639 0.2790 0.4194
vn 0.0509 0.5977 0.8001
vn 0.1009 0.5510 0.8284
vn 0.8904 0.2724 0.3646
vn -0.7149 0.2309 -0.6600
vn 0.0631 0.3295 -0.9420
vn 0.0597 0.3262 -0.9434
vn 0.7301 0.2233 -0.6459
vn -0.5581 -0.5874 0.5860
vn -0.0784 -0.7037 0.7061
vn -0.0774 -0.7058 0.7042
vn 0.5101 -0.6071 0.6092
vn -0.6787 -0.7143 0.1704
vn -0.6457 -0.7401 0.1876
vn -0.1067 -0.9581 0.2659
vn -0.1446 -0.9625 0.2297
vn 0.6283 -0.7478 0.2144
vn 0.6232 -0.7536 0.2091
vn -0.5708 -0.6542 -0.4962
vn -0.1189 -0.7911 -0.6000
vn -0.1229 -0.7939 -0.5955
vn 0.5517 -0.6672 -0.5005
vn -0.7012 -0.2956 0.6489
vn -0.6650 -0.2652 0.6982
vn -0.0968 -0.4631 0.8810
vn -0.1618 -0.4091 0.8980
vn 0.5769 -0.5358 0.6165
vn 0.5463 -0.5252 0.6524
vn 0.4429 -0.4172 0.7936
vn 0.4763 -0.5768 0.6637
vn -0.8968 -0.3577 0.2606
vn -0.9201 -0.3223 0.2227
vn 0.8248 -0.5502 0.1302
vn 0.7109 -0.6602 0.2425
vn 0.6265 -0.7586 0.1789
vn 0.6269 -0.7582 0.1793
vn -0.6760 -0.4447 -0.5876
vn -0.6448 -0.4811 -0.5940
vn -0.8455 -0.2962 -0.4442
vn -0.1685 -0.5524 -0.8164
vn -0.1406 -0.5975 -0.7895
vn 0.4664 -0.4957 -0.7326
vn 0.6154 -0.5564 -0.5583
vn 0.6052 -0.5620 -0.5638
vn 0.7593 -0.5065 -0.4085
vn 0.5412 -0.6545 -0.5279
vn -0.6894 -0.5144 -0.5101
vn -0.1648 -0.7004 -0.6945
vn -0.1555 -0.6924 -0.7046
vn 0.5506 -0.5851 -0.5954
vn -0.7280 -0.0597 0.6830
vn -0.7324 -0.0660 0.6777
vn -0.1772 0.0322 0.9837
vn -0.0596 -0.0870 0.9944
vn 0.4721 -0.2477 0.8460
vn 0.2264 0.0318 0.9735
vn 0.5672 -0.2314 0.7904
vn 0.6367 -0.1834 0.7490
vn -0.9682 -0.0873 0.2343
vn -0.9926 0.1168 0.0339
vn 0.9267 -0.2669 0.2647
vn 0.9939 -0.0790 0.0767
vn -0.8805 0.1036 -0.4626
vn -0.9609 -0.1941 -0.1976
vn 0.6767 -0.3805 -0.6304
vn 0.7388 -0.3483 -0.5769
vn 0.6683 -0.3586 -0.6518
vn 0.8857 -0.0704 -0.4589
vn -0.7812 -0.1578 -0.6040
vn -0.7956 -0.1433 -0.5886
vn -0.2151 -0.0575 -0.9749
vn -0.0352 -0.2363 -0.9710
vn 0.6343 -0.3567 -0.6859
vn 0.6299 -0.3281 -0.7040
vn 0.4377 -0.0529 -0.8976
vn 0.6674 -0.3146 -0.6750
vn -0.5717 0.6208 0.5364
vn -0.0374 0.7807 0.6238
vn -0.0006 0.7567 0.6538
vn 0.1563 0.7239 0.6719
vn 0.0891 0.7781 0.6218
vn 0.5006 0.6345 0.5889
vn -0.6597 0.7515 0.0005
vn -0.6773 0.7354 0.0231
vn -0.0008 1.0000 0.0000
vn -0.0002 1.0000 0.0007
vn 0.1137 0.9935 0.0101
vn 0.1037 0.9946 0.0000
vn 0.5834 0.8110 0.0450
vn 0.6194 0.7850 0.0080
vn -0.7057 0.7037 -0.0823
vn -0.6537 0.7447 -0.1345
vn -0.0002 0.9939 -0.1106
vn -0.0058 0.9932 -0.1162
vn 0.0986 0.9456 -0.3099
vn 0.3037 0.9469 -0.1054
vn 0.6438 0.6887 -0.3336
vn 0.5643 0.7845 -0.2571
vn -0.6211 0.6194 -0.4802
vn -0.0222 0.7901 -0.6126
vn -0.0047 0.8026 -0.5965
vn 0.2793 0.7706 -0.5728
vn 0.2270 0.7077 -0.6690
vn 0.5619 0.6011 -0.5682
s off
f 3//1 1//1 2//1
f 1//2 3//2 4//2
f 3//3 2//3 5//3
f 4//4 3//4 5//4
f 8//5 6//5 7//5
f 8//6 10//6 9//6
f 6//7 8//7 9//7
f 9//8 10//8 11//8
f 1//9 8//9 7//9
f 1//10 7//10 2//10
f 2//11 7//11 12//11
f 4//12 8//12 1//12
f 4//13 13//13 8//13
f 13//14 10//14 8//14
f 14//15 11//15 10//15
f 13//16 14//16 10//16
f 16//17 5//17 2//17
f 16//18 2//18 15//18
f 15//19 2//19 12//19
f 5//20 13//20 4//20
f 5//21 16//21 13//21
f 16//22 17//22 13//22
f 18//23 14//23 13//23
f 17//24 18//24 13//24
f 16//25 15//25 19//25
f 17//26 16//26 19//26
f 20//27 17//27 19//27
f 18//28 17//28 20//28
f 6//29 21//29 7//29
f 6//30 9//30 22//30
f 21//31 6//31 22//31
f 9//32 11//32 22//32
f 21//33 23//33 24//33
f 21//34 24//34 7//34
f 7//35 24//35 12//35
f 22//36 23//36 21//36
f 25//37 23//37 22//37
f 25//38 22//38 11//38
f 25//39 11//39 26//39
f 26//40 11//40 14//40
f 27//41 28//41 15//41
f 27//42 15//42 24//42
f 24//43 15//43 12//43
f 28//44 29//44 30//44
f 27//45 29//45 28//45
f 30//46 29//46 26//46
f 30//47 26//47 18//47
f 18//48 26//48 14//48
f 15//49 28//49 19//49
f 20//50 19//50 28//50
f 30//51 20//51 28//51
f 18//52 20//52 30//52
f 23//53 31//53 24//53
f 23//54 25//54 32//54
f 31//55 23//55 32//55
f 25//56 26//56 32//56
f 24//57 31//57 27//57
f 29//58 27//58 31//58
f 32//59 29//59 31//59
f 26//60 29//60 32//60
f 35//61 33//61 34//61
f 35//62 37//62 36//62
f 33//63 35//63 36//63
f 36//64 37//64 38//64
f 35//65 34//65 39//65
f 37//66 35//66 39//66
f 40//67 37//67 39//67
f 38//68 37//68 40//68
f 33//69 41//69 34//69
f 33//70 36//70 42//70
f 41//71 33//71 42//71
f 36//72 38//72 42//72
f 34//73 41//73 39//73
f 40//74 39//74 41//74
f 42//75 40//75 41//75
f 38//76 40//76 42//76
f 45//77 43//77 44//77
f 45//78 47//78 46//78
f 43//79 45//79 46//79
f 46//80 47//80 48//80
f 50//81 45//81 44//81
f 49//82 50//82 44//82
f 47//83 45//83 51//83
f 51//84 45//84 50//84
f 52//85 48//85 47//85
f 51//86 52//86 47//86
f 50//87 49//87 53//87
f 51//88 50//88 53//88
f 54//89 51//89 53//89
f 52//90 51//90 54//90
f 43//91 55//91 56//91
f 44//92 43//92 56//92
f 46//93 57//93 43//93
f 43//94 57//94 55//94
f 48//95 59//95 58//95
f 48//96 58//96 46//96
f 46//97 58//97 57//97
f 58//98 59//98 60//98
f 44//99 56//99 49//99
f 56//100 61//100 49//100
f 59//101 52//101 62//101
f 48//102 52//102 59//102
f 63//103 60//103 59//103
f 62//104 63//104 59//104
f 65//105 53//105 49//105
f 65//106 49//106 64//106
f 64//107 49//107 61//107
f 53//108 66//108 54//108
f 65//109 66//109 53//109
f 54//110 66//110 68//110
f 52//111 54//111 68//111
f 52//112 68//112 67//112
f 52//113 67//113 62//113
f 63//114 62//114 67//114
f 65//115 64//115 69//115
f 66//116 65//116 69//116
f 70//117 66//117 69//117
f 68//118 66//118 70//118
f 55//119 71//119 72//119
f 56//120 55//120 72//120
f 57//121 73//121 55//121
f 55//122 73//122 71//122
f 58//123 74//123 57//123
f 57//124 74//124 73//124
f 74//125 58//125 60//125
f 75//126 74//126 60//126
f 56//127 72//127 61//127
f 72//128 76//128 61//128
f 60//129 63//129 75//129
f 75//130 63//130 77//130
f 61//131 76//131 64//131
f 76//132 78//132 64//132
f 67//133 68//133 79//133
f 67//134 79//134 80//134
f 67//135 80//135 63//135
f 63//136 80//136 77//136
f 64//137 78//137 81//137
f 69//138 64//138 81//138
f 70//139 69//139 82//139
f 69//140 81//140 82//140
f 79//141 68//141 70//141
f 79//142 70//142 83//142
f 83//143 70//143 82//143
f 80//144 79//144 83//144
f 71//145 84//145 72//145
f 71//146 73//146 85//146
f 84//147 71//147 85//147
f 73//148 74//148 86//148
f 85//149 73//149 86//149
f 74//150 75//150 86//150
f 84//151 87//151 76//151
f 72//152 84//152 76//152
f 85//153 88//153 84//153
f 88//154 87//154 84//154
f 86//155 89//155 85//155
f 89//156 88//156 85//156
f 75//157 77//157 89//157
f 86//158 75//158 89//158
f 87//159 90//159 78//159
f 76//160 87//160 78//160
f 88//161 91//161 87//161
f 91//162 90//162 87//162
f 89//163 92//163 88//163
f 92//164 91//164 88//164
f 77//165 80//165 92//165
f 89//166 77//166 92//166
f 78//167 90//167 81//167
f 82//168 81//168 90//168
f 91//169 82//169 90//169
f 83//170 82//170 91//170
f 92//171 83//171 91//171
f 80//172 83//172 92//172
