# Blender v2.78 (sub 0) OBJ File: 'fluid_test.blend'
# www.blender.org
o Area_Cube
v -0.070147 -2.464506 0.118878
v -0.127087 -2.464506 0.070148
v -0.070147 -2.520591 0.070148
v 0.129383 -2.464506 0.087444
v 0.129383 -2.483792 0.070148
v 0.147353 -2.464506 0.070148
v -0.184497 -2.464506 -0.129382
v -0.070147 -2.574691 -0.129382
v 0.129383 -2.546303 -0.129382
v 0.208556 -2.464506 -0.129382
v -0.070147 -2.464506 -0.302015
v 0.129383 -2.464506 -0.254700
v -0.070147 -2.264976 0.116906
v -0.124112 -2.264976 0.070148
v 0.129383 -2.264976 0.103066
v 0.164395 -2.264976 0.070148
v -0.182856 -2.264976 -0.129382
v 0.226606 -2.264976 -0.129382
v -0.077765 -2.264976 -0.328912
v -0.070147 -2.307024 -0.328912
v 0.129383 -2.264976 -0.299890
v -0.026651 -2.264976 -0.328912
v -0.070147 -2.264976 -0.338014
v -0.070147 -2.207083 0.070148
v 0.129383 -2.220318 0.070148
v -0.070147 -2.140461 -0.129382
v 0.129383 -2.139831 -0.129382
v -0.070147 -2.255615 -0.328912
v -0.070147 -0.070146 -0.032147
v -0.120707 -0.070146 -0.129382
v -0.070147 -0.114550 -0.129382
v 0.015689 -0.070146 -0.129382
v -0.070147 -0.070146 -0.177892
v -0.070147 0.129384 -0.044925
v -0.118384 0.129384 -0.129382
v 0.003374 0.129384 -0.129382
v -0.070147 0.129384 -0.175405
v -0.070147 0.169437 -0.129382
v -0.070147 3.720925 0.120617
v -0.120052 3.720925 0.070148
v -0.070147 3.668100 0.070148
v 0.129383 3.720925 0.153733
v 0.129383 3.628210 0.070148
v 0.282838 3.720925 0.070148
v -0.163963 3.720925 -0.129382
v -0.070147 3.618514 -0.129382
v 0.129383 3.559030 -0.129382
v 0.302528 3.720925 -0.129382
v -0.070147 3.720925 -0.315100
v -0.027632 3.720925 -0.328912
v 0.129383 3.688810 -0.328912
v 0.179949 3.720925 -0.328912
v 0.129383 3.720925 -0.391705
v -0.070147 3.920455 0.199779
v -0.186764 3.920455 0.070148
v 0.129383 3.920455 0.249352
v 0.328913 3.920455 0.143232
v 0.328913 3.775836 0.070148
v 0.434140 3.920455 0.070148
v -0.216127 3.920455 -0.129382
v 0.328913 3.767925 -0.129382
v 0.447497 3.920455 -0.129382
v -0.143047 3.920455 -0.328912
v -0.070147 3.740804 -0.328912
v 0.328913 3.920455 -0.323115
v 0.324905 3.920455 -0.328912
v -0.070147 3.920455 -0.433373
v 0.129383 3.920455 -0.499347
v -0.070147 4.119985 0.211521
v -0.215118 4.119985 0.070148
v 0.129383 4.119985 0.227284
v 0.328913 4.119985 0.174840
v 0.463225 4.119985 0.070148
v -0.241784 4.119985 -0.129382
v 0.473246 4.119985 -0.129382
v -0.171805 4.119985 -0.328912
v 0.328913 3.936486 -0.328912
v 0.366234 4.119985 -0.328912
v -0.070147 4.119985 -0.454589
v 0.129383 4.119985 -0.483722
v 0.328913 4.119985 -0.366378
v -0.070147 4.244025 0.070148
v 0.129383 4.245188 0.070148
v 0.328913 4.221213 0.070148
v -0.070147 4.245188 -0.129382
v 0.129383 4.245188 -0.129382
v 0.328913 4.223548 -0.129382
v -0.070147 4.218037 -0.328912
v 0.129383 4.231739 -0.328912
v 0.328913 4.156143 -0.328912
vn -0.5426 -0.5509 0.6341
vn 0.1222 -0.6626 0.7389
vn 0.1181 -0.6513 0.7496
vn 0.5824 -0.5427 0.6052
vn -0.6890 -0.6995 0.1897
vn -0.6804 -0.7062 0.1958
vn 0.1733 -0.9398 0.2944
vn 0.1360 -0.9562 0.2593
vn 0.7139 -0.6652 0.2190
vn 0.7021 -0.6795 0.2129
vn -0.6305 -0.6543 -0.4176
vn 0.1191 -0.8369 -0.5342
vn 0.1285 -0.8305 -0.5420
vn 0.6543 -0.6333 -0.4134
vn -0.6548 0.0075 0.7557
vn -0.6502 0.0097 0.7597
vn 0.1552 -0.0771 0.9849
vn 0.0692 0.0099 0.9976
vn 0.6924 -0.0563 0.7194
vn 0.6838 -0.0584 0.7273
vn -0.9609 0.0143 0.2765
vn -0.9593 0.0079 0.2824
vn 0.9529 -0.0814 0.2923
vn 0.9511 -0.0860 0.2966
vn -0.8300 -0.0939 -0.5498
vn -0.8044 -0.1457 -0.5760
vn -0.8848 0.0073 -0.4660
vn 0.1606 -0.1662 -0.9729
vn 0.1802 -0.1699 -0.9688
vn 0.2253 -0.2152 -0.9502
vn 0.8430 -0.0763 -0.5326
vn 0.8633 -0.1115 -0.4922
vn -0.7596 -0.1376 -0.6357
vn 0.2004 -0.2073 -0.9575
vn -0.5589 0.5210 0.6451
vn 0.0557 0.5924 0.8037
vn 0.0416 0.6278 0.7773
vn 0.6035 0.4731 0.6419
vn -0.7234 0.6548 0.2186
vn -0.7151 0.6666 0.2105
vn 0.0614 0.9256 0.3734
vn -0.0030 0.9485 0.3167
vn 0.7668 0.5957 0.2391
vn 0.7637 0.5987 0.2415
vn -0.7288 0.5931 -0.3423
vn -0.6906 0.6251 -0.3637
vn 0.1394 0.6475 -0.7492
vn 0.1229 0.8001 -0.5872
vn -0.0027 0.8661 -0.4999
vn 0.7201 0.5594 -0.4106
vn -0.6506 0.5294 -0.5445
vn 0.1484 0.6894 -0.7090
vn -0.6242 -0.7107 0.3246
vn 0.4258 -0.8231 0.3759
vn -0.5437 -0.6191 -0.5667
vn 0.3565 -0.6892 -0.6308
vn -0.8679 0.0317 0.4957
vn -0.8872 0.0103 0.4613
vn 0.7490 0.0423 0.6612
vn 0.7534 0.0465 0.6559
vn -0.6903 0.0080 -0.7235
vn -0.6923 0.0090 -0.7215
vn 0.4918 0.0304 -0.8702
vn 0.5306 0.0106 -0.8476
vn -0.6001 0.7227 0.3428
vn 0.4416 0.8107 0.3844
vn -0.5308 0.6393 -0.5564
vn 0.3801 0.6977 -0.6072
vn -0.5903 -0.5576 0.5837
vn -0.1327 -0.6637 0.7362
vn -0.1191 -0.6859 0.7179
vn 0.3750 -0.6207 0.6885
vn -0.7166 -0.6769 0.1682
vn -0.7279 -0.6668 0.1602
vn -0.1856 -0.9284 0.3219
vn -0.2779 -0.9322 0.2317
vn 0.5165 -0.8548 0.0510
vn 0.6621 -0.7081 0.2455
vn -0.6910 -0.6330 -0.3491
vn -0.1706 -0.8338 -0.5250
vn -0.1718 -0.8627 -0.4757
vn -0.2425 -0.8133 -0.5290
vn 0.6298 -0.6736 -0.3869
vn 0.4700 -0.7399 -0.4813
vn -0.1792 -0.8759 -0.4480
vn 0.4922 -0.7750 -0.3964
vn -0.7186 -0.2565 0.6464
vn -0.6918 -0.2313 0.6841
vn -0.1480 -0.4274 0.8919
vn -0.2250 -0.3593 0.9057
vn 0.4735 -0.3973 0.7861
vn 0.4391 -0.3967 0.8061
vn 0.4325 -0.3897 0.8131
vn 0.5269 -0.3834 0.7586
vn -0.9284 -0.3104 0.2043
vn -0.9578 -0.2504 0.1410
vn 0.8718 -0.4894 0.0194
vn 0.7639 -0.6409 0.0754
vn 0.8074 -0.5875 0.0540
vn 0.7892 -0.6136 0.0243
vn -0.8518 -0.2989 -0.4303
vn -0.8376 -0.3399 -0.4277
vn -0.9119 -0.2384 -0.3340
vn -0.2578 -0.5513 -0.7935
vn 0.6668 -0.5856 -0.4610
vn 0.8119 -0.4558 -0.3647
vn 0.7245 -0.5263 -0.4451
vn 0.7108 -0.5526 -0.4351
vn -0.7781 -0.3157 -0.5430
vn -0.2288 -0.4893 -0.8415
vn -0.3233 -0.4921 -0.8083
vn -0.2794 -0.4559 -0.8450
vn 0.6779 -0.4925 -0.5459
vn 0.6087 -0.3767 -0.6983
vn -0.6975 -0.0421 0.7153
vn -0.7393 -0.1051 0.6651
vn -0.2397 0.1067 0.9650
vn -0.0786 -0.0586 0.9952
vn 0.4650 -0.1385 0.8744
vn 0.2528 0.1064 0.9617
vn 0.5657 -0.1290 0.8145
vn 0.6123 -0.0893 0.7856
vn -0.9797 -0.1392 0.1442
vn -0.9832 -0.1264 0.1314
vn 0.9874 -0.1439 0.0661
vn 0.9905 -0.1278 0.0497
vn -0.9322 -0.1199 -0.3414
vn -0.9350 -0.1348 -0.3279
vn 0.8057 -0.2014 -0.5571
vn 0.8582 -0.1745 -0.4827
vn 0.8402 -0.1721 -0.5143
vn 0.8756 -0.1130 -0.4696
vn -0.7727 -0.1114 -0.6250
vn -0.8185 -0.0607 -0.5712
vn -0.3131 0.0741 -0.9468
vn -0.1437 -0.1046 -0.9841
vn 0.6484 -0.1621 -0.7438
vn 0.6490 -0.1522 -0.7454
vn 0.5058 0.0673 -0.8600
vn 0.7012 -0.1426 -0.6985
vn -0.5409 0.6322 0.5547
vn -0.0492 0.7811 0.6224
vn -0.0044 0.7517 0.6595
vn 0.1797 0.7072 0.6838
vn 0.0936 0.7787 0.6204
vn 0.4764 0.6321 0.6112
vn -0.5893 0.8079 0.0047
vn -0.6477 0.7570 0.0866
vn -0.0058 1.0000 0.0000
vn 0.0000 1.0000 0.0058
vn 0.1193 0.9928 0.0116
vn 0.1078 0.9942 0.0000
vn 0.5827 0.8121 0.0293
vn 0.6019 0.7986 0.0093
vn -0.6909 0.7163 -0.0975
vn -0.5771 0.7912 -0.2024
vn 0.0000 0.9977 -0.0673
vn -0.0679 0.9886 -0.1345
vn 0.1022 0.9424 -0.3184
vn 0.3536 0.9333 -0.0629
vn 0.6519 0.6729 -0.3496
vn 0.5622 0.7835 -0.2647
vn -0.6053 0.6276 -0.4896
vn -0.0895 0.7853 -0.6127
vn -0.0556 0.8096 -0.5844
vn 0.3255 0.7667 -0.5534
vn 0.2630 0.6942 -0.6700
vn 0.5719 0.5903 -0.5697
s off
f 3//1 1//1 2//1
f 3//2 5//2 4//2
f 1//3 3//3 4//3
f 4//4 5//4 6//4
f 8//5 3//5 2//5
f 7//6 8//6 2//6
f 5//7 3//7 9//7
f 9//8 3//8 8//8
f 10//9 6//9 5//9
f 9//10 10//10 5//10
f 8//11 7//11 11//11
f 9//12 8//12 11//12
f 12//13 9//13 11//13
f 10//14 9//14 12//14
f 1//15 13//15 14//15
f 2//16 1//16 14//16
f 4//17 15//17 1//17
f 1//18 15//18 13//18
f 15//19 4//19 6//19
f 16//20 15//20 6//20
f 2//21 14//21 7//21
f 14//22 17//22 7//22
f 6//23 10//23 16//23
f 16//24 10//24 18//24
f 20//25 11//25 7//25
f 20//26 7//26 19//26
f 19//27 7//27 17//27
f 22//28 11//28 20//28
f 22//29 21//29 11//29
f 21//30 12//30 11//30
f 18//31 10//31 12//31
f 21//32 18//32 12//32
f 20//33 19//33 23//33
f 22//34 20//34 23//34
f 13//35 24//35 14//35
f 13//36 15//36 25//36
f 24//37 13//37 25//37
f 15//38 16//38 25//38
f 24//39 26//39 17//39
f 14//40 24//40 17//40
f 25//41 27//41 24//41
f 27//42 26//42 24//42
f 16//43 18//43 27//43
f 25//44 16//44 27//44
f 26//45 28//45 19//45
f 17//46 26//46 19//46
f 21//47 22//47 28//47
f 21//48 28//48 27//48
f 27//49 28//49 26//49
f 18//50 21//50 27//50
f 19//51 28//51 23//51
f 22//52 23//52 28//52
f 31//53 29//53 30//53
f 29//54 31//54 32//54
f 31//55 30//55 33//55
f 32//56 31//56 33//56
f 29//57 34//57 35//57
f 30//58 29//58 35//58
f 34//59 29//59 32//59
f 36//60 34//60 32//60
f 30//61 35//61 37//61
f 33//62 30//62 37//62
f 36//63 32//63 33//63
f 37//64 36//64 33//64
f 34//65 38//65 35//65
f 34//66 36//66 38//66
f 35//67 38//67 37//67
f 36//68 37//68 38//68
f 41//69 39//69 40//69
f 41//70 43//70 42//70
f 39//71 41//71 42//71
f 42//72 43//72 44//72
f 46//73 41//73 40//73
f 45//74 46//74 40//74
f 43//75 41//75 47//75
f 47//76 41//76 46//76
f 48//77 44//77 43//77
f 47//78 48//78 43//78
f 46//79 45//79 49//79
f 49//80 50//80 51//80
f 49//81 51//81 46//81
f 46//82 51//82 47//82
f 52//83 48//83 47//83
f 51//84 52//84 47//84
f 51//85 50//85 53//85
f 52//86 51//86 53//86
f 39//87 54//87 55//87
f 40//88 39//88 55//88
f 42//89 56//89 39//89
f 39//90 56//90 54//90
f 44//91 58//91 57//91
f 44//92 57//92 42//92
f 42//93 57//93 56//93
f 57//94 58//94 59//94
f 40//95 55//95 45//95
f 55//96 60//96 45//96
f 58//97 48//97 61//97
f 44//98 48//98 58//98
f 62//99 59//99 58//99
f 61//100 62//100 58//100
f 64//101 49//101 45//101
f 64//102 45//102 63//102
f 63//103 45//103 60//103
f 49//104 64//104 50//104
f 61//105 66//105 65//105
f 61//106 48//106 66//106
f 48//107 52//107 66//107
f 62//108 61//108 65//108
f 64//109 63//109 67//109
f 50//110 64//110 67//110
f 50//111 67//111 53//111
f 53//112 67//112 68//112
f 66//113 52//113 53//113
f 68//114 66//114 53//114
f 54//115 69//115 70//115
f 55//116 54//116 70//116
f 56//117 71//117 54//117
f 54//118 71//118 69//118
f 57//119 72//119 56//119
f 56//120 72//120 71//120
f 72//121 57//121 59//121
f 73//122 72//122 59//122
f 55//123 70//123 60//123
f 70//124 74//124 60//124
f 59//125 62//125 73//125
f 73//126 62//126 75//126
f 60//127 74//127 63//127
f 74//128 76//128 63//128
f 65//129 66//129 77//129
f 65//130 77//130 78//130
f 65//131 78//131 62//131
f 62//132 78//132 75//132
f 63//133 76//133 79//133
f 67//134 63//134 79//134
f 68//135 67//135 80//135
f 67//136 79//136 80//136
f 77//137 66//137 68//137
f 77//138 68//138 81//138
f 81//139 68//139 80//139
f 78//140 77//140 81//140
f 69//141 82//141 70//141
f 69//142 71//142 83//142
f 82//143 69//143 83//143
f 71//144 72//144 84//144
f 83//145 71//145 84//145
f 72//146 73//146 84//146
f 82//147 85//147 74//147
f 70//148 82//148 74//148
f 83//149 86//149 82//149
f 86//150 85//150 82//150
f 84//151 87//151 83//151
f 87//152 86//152 83//152
f 73//153 75//153 87//153
f 84//154 73//154 87//154
f 85//155 88//155 76//155
f 74//156 85//156 76//156
f 86//157 89//157 85//157
f 89//158 88//158 85//158
f 87//159 90//159 86//159
f 90//160 89//160 86//160
f 75//161 78//161 90//161
f 87//162 75//162 90//162
f 76//163 88//163 79//163
f 80//164 79//164 88//164
f 89//165 80//165 88//165
f 81//166 80//166 89//166
f 90//167 81//167 89//167
f 78//168 81//168 90//168
