# Blender v2.78 (sub 0) OBJ File: 'fluid_test.blend'
# www.blender.org
o Area_Cube
v -0.070147 2.324215 -0.050721
v -0.109343 2.324215 -0.129382
v -0.070147 2.289589 -0.129382
v 0.129383 2.324215 -0.118121
v 0.129383 2.319228 -0.129382
v 0.134704 2.324215 -0.129382
v -0.070147 2.324215 -0.189813
v 0.129383 2.324215 -0.138024
v -0.070147 2.523745 0.098552
v -0.101372 2.523745 0.070148
v -0.070147 2.455622 0.070148
v 0.129383 2.523745 0.073171
v 0.129383 2.516807 0.070148
v 0.132581 2.523745 0.070148
v -0.177177 2.523745 -0.129382
v 0.214664 2.523745 -0.129382
v -0.070147 2.523745 -0.311919
v 0.129383 2.523745 -0.282403
v -0.070147 2.635109 0.070148
v 0.129383 2.723275 0.072058
v 0.115715 2.723275 0.070148
v 0.131421 2.723275 0.070148
v -0.070147 2.723275 0.002189
v -0.114512 2.723275 -0.129382
v 0.210645 2.723275 -0.129382
v -0.070147 2.723275 -0.193304
v 0.129383 2.723275 -0.231069
v 0.129383 2.728097 0.070148
v -0.070147 2.808716 -0.129382
v 0.129383 2.892381 -0.129382
v 0.129383 3.321865 -0.070777
v 0.051987 3.321865 -0.129382
v 0.129383 3.269217 -0.129382
v 0.158681 3.321865 -0.129382
v 0.129383 3.321865 -0.159154
v 0.129383 3.521395 -0.006707
v -0.007898 3.521395 -0.129382
v 0.189668 3.521395 -0.129382
v 0.129383 3.521395 -0.191145
v -0.070147 3.720925 0.091773
v -0.102205 3.720925 0.070148
v -0.070147 3.688817 0.070148
v 0.129383 3.720925 0.120882
v 0.129383 3.608823 0.070148
v 0.198072 3.720925 0.070148
v -0.177746 3.720925 -0.129382
v -0.070147 3.566578 -0.129382
v 0.267823 3.720925 -0.129382
v -0.070147 3.720925 -0.234402
v 0.129383 3.720925 -0.268047
v -0.070147 3.920455 0.194118
v -0.220873 3.920455 0.070148
v 0.129383 3.920455 0.218307
v 0.328913 3.920455 0.121469
v 0.328913 3.855682 0.070148
v 0.397911 3.920455 0.070148
v -0.254585 3.920455 -0.129382
v 0.328913 3.815618 -0.129382
v 0.442534 3.920455 -0.129382
v -0.124594 3.920455 -0.328912
v -0.070147 3.851444 -0.328912
v 0.129383 3.819391 -0.328912
v 0.328913 3.920455 -0.261189
v 0.257519 3.920455 -0.328912
v -0.070147 3.920455 -0.396763
v 0.129383 3.920455 -0.420682
v -0.070147 4.119985 0.210030
v -0.200315 4.119985 0.070148
v 0.129383 4.119985 0.219070
v 0.328913 4.119985 0.173373
v 0.452166 4.119985 0.070148
v -0.203856 4.119985 -0.129382
v 0.464829 4.119985 -0.129382
v -0.166542 4.119985 -0.328912
v 0.328913 4.030303 -0.328912
v 0.370922 4.119985 -0.328912
v -0.070147 4.119985 -0.457934
v 0.129383 4.119985 -0.465168
v 0.328913 4.119985 -0.369879
v -0.070147 4.244667 0.070148
v 0.129383 4.245138 0.070148
v 0.328913 4.221119 0.070148
v -0.070147 4.245188 -0.129382
v 0.129383 4.245188 -0.129382
v 0.328913 4.222749 -0.129382
v -0.070147 4.219760 -0.328912
v 0.129383 4.221778 -0.328912
v 0.328913 4.158259 -0.328912
vn -0.6287 -0.7117 0.3133
vn 0.1346 -0.9060 0.4013
vn 0.1348 -0.9069 0.3992
vn 0.6507 -0.6943 0.3075
vn -0.6083 -0.6886 -0.3946
vn 0.1278 -0.8605 -0.4931
vn 0.1286 -0.8589 -0.4957
vn 0.6302 -0.6725 -0.3880
vn -0.6430 -0.2947 0.7069
vn 0.1216 -0.3965 0.9100
vn 0.1166 -0.3822 0.9167
vn 0.6549 -0.3018 0.6928
vn -0.8281 -0.3796 0.4126
vn -0.8281 -0.3795 0.4126
vn -0.8909 -0.3029 0.3385
vn 0.2413 -0.6570 0.7143
vn 0.2096 -0.6835 0.6992
vn 0.8343 -0.3854 0.3942
vn 0.8348 -0.3848 0.3937
vn 0.8672 -0.3475 0.3567
vn -0.8278 -0.2814 -0.4854
vn -0.7960 -0.3160 -0.5163
vn 0.2058 -0.5737 -0.7928
vn 0.1252 -0.5179 -0.8462
vn 0.8059 -0.3230 -0.4962
vn 0.8239 -0.3322 -0.4592
vn -0.6612 0.1854 0.7269
vn -0.1164 0.2455 0.9624
vn -0.1336 0.2606 0.9562
vn 0.1262 0.0055 0.9920
vn 0.6869 0.0041 0.7267
vn 0.6838 0.0040 0.7297
vn -0.9201 0.2391 0.3102
vn -0.9134 0.2561 0.3163
vn -0.8970 0.2817 0.3408
vn -0.2782 0.5864 0.7608
vn 0.9248 0.0054 0.3804
vn 0.9293 0.0187 0.3690
vn -0.7955 0.2498 -0.5521
vn -0.8261 0.2880 -0.4844
vn 0.1418 0.2466 -0.9587
vn -0.1606 0.5044 -0.8484
vn 0.8734 0.0176 -0.4867
vn 0.7713 0.1586 -0.6164
vn -0.1288 0.3651 0.9220
vn 0.6569 0.2776 0.7010
vn -0.8502 0.4415 0.2867
vn -0.2461 0.6974 0.6731
vn -0.2015 0.8215 0.5335
vn -0.3080 0.7345 0.6047
vn 0.8486 0.4078 0.3369
vn 0.8772 0.3707 0.3052
vn -0.7556 0.3924 -0.5244
vn -0.1498 0.5923 -0.7917
vn -0.2112 0.5037 -0.8377
vn 0.7314 0.3514 -0.5845
vn -0.4515 -0.6638 0.5963
vn 0.8007 -0.4456 0.4003
vn -0.3175 -0.4668 -0.8254
vn 0.6625 -0.3687 -0.6520
vn -0.6480 -0.2329 0.7252
vn -0.5940 -0.1783 0.7845
vn 0.8854 -0.1421 0.4426
vn 0.8889 -0.1380 0.4368
vn -0.4072 -0.1222 -0.9051
vn -0.3551 -0.1480 -0.9230
vn 0.7084 -0.1100 -0.6971
vn 0.7112 -0.1113 -0.6941
vn -0.4882 -0.4875 0.7239
vn -0.1631 -0.4068 0.8988
vn -0.1201 -0.5546 0.8234
vn 0.5583 -0.3421 0.7559
vn -0.6494 -0.6484 0.3972
vn -0.7834 -0.5461 0.2966
vn -0.4909 -0.6763 0.5493
vn -0.5216 -0.5633 0.6408
vn -0.3235 -0.8069 0.4943
vn 0.8368 -0.3615 0.4112
vn 0.7667 -0.4698 0.4375
vn 0.8854 -0.3468 0.3095
vn -0.6280 -0.4378 -0.6434
vn -0.3780 -0.5208 -0.7654
vn -0.3506 -0.5195 -0.7792
vn -0.1554 -0.3553 -0.9218
vn 0.6891 -0.2699 -0.6726
vn 0.6828 -0.2627 -0.6817
vn -0.5906 -0.3683 0.7180
vn -0.5306 -0.3156 0.7867
vn -0.1300 -0.4350 0.8910
vn -0.1072 -0.4538 0.8846
vn 0.5388 -0.5232 0.6603
vn 0.5102 -0.5123 0.6908
vn 0.3998 -0.4022 0.8237
vn 0.5036 -0.5365 0.6771
vn -0.8173 -0.4861 0.3094
vn -0.9218 -0.3550 0.1557
vn 0.8354 -0.5389 0.1082
vn 0.6959 -0.6757 0.2433
vn 0.6766 -0.7207 0.1513
vn 0.6709 -0.7271 0.1460
vn -0.6202 -0.4601 -0.6354
vn -0.6045 -0.4770 -0.6380
vn -0.7974 -0.3071 -0.5195
vn -0.1420 -0.5205 -0.8420
vn -0.0938 -0.5839 -0.8064
vn 0.3831 -0.4857 -0.7857
vn 0.5879 -0.5566 -0.5870
vn 0.5665 -0.5679 -0.5972
vn 0.7716 -0.4978 -0.3959
vn 0.5854 -0.6345 -0.5047
vn -0.6643 -0.5241 -0.5330
vn -0.1119 -0.6967 -0.7086
vn -0.0884 -0.6696 -0.7374
vn 0.4684 -0.5939 -0.6541
vn -0.7310 -0.0542 0.6802
vn -0.6339 0.0653 0.7707
vn -0.1203 -0.0038 0.9927
vn -0.0451 -0.0794 0.9958
vn 0.4251 -0.2279 0.8760
vn 0.2232 -0.0037 0.9748
vn 0.5842 -0.2043 0.7855
vn 0.6325 -0.1720 0.7552
vn -0.9810 0.1011 0.1657
vn -0.9690 0.2464 0.0172
vn 0.9432 -0.2565 0.2109
vn 0.9918 -0.1108 0.0629
vn -0.8195 0.2083 -0.5339
vn -0.9626 -0.2024 -0.1800
vn 0.6282 -0.4083 -0.6623
vn 0.7460 -0.3495 -0.5668
vn 0.7078 -0.3561 -0.6101
vn 0.9002 -0.1006 -0.4237
vn -0.7900 -0.1661 -0.5902
vn -0.7660 -0.1884 -0.6146
vn -0.1162 -0.2161 -0.9694
vn -0.0346 -0.2929 -0.9555
vn 0.5446 -0.3539 -0.7604
vn 0.5433 -0.3488 -0.7636
vn 0.4225 -0.1972 -0.8847
vn 0.6636 -0.3108 -0.6805
vn -0.5816 0.6072 0.5413
vn -0.0291 0.7652 0.6431
vn -0.0018 0.7465 0.6654
vn 0.1583 0.7053 0.6910
vn 0.0918 0.7623 0.6407
vn 0.5057 0.6163 0.6038
vn -0.6835 0.7299 0.0019
vn -0.6917 0.7221 0.0123
vn -0.0024 1.0000 0.0002
vn 0.0000 1.0000 0.0026
vn 0.1195 0.9928 0.0081
vn 0.1118 0.9937 0.0002
vn 0.6027 0.7971 0.0382
vn 0.6343 0.7730 0.0063
vn -0.7164 0.6921 -0.0882
vn -0.6780 0.7241 -0.1268
vn 0.0000 0.9932 -0.1165
vn -0.0100 0.9919 -0.1264
vn 0.1064 0.9461 -0.3058
vn 0.3015 0.9470 -0.1111
vn 0.6420 0.7047 -0.3022
vn 0.5840 0.7724 -0.2497
vn -0.6335 0.6121 -0.4733
vn -0.0222 0.7909 -0.6116
vn -0.0081 0.8011 -0.5985
vn 0.2748 0.7703 -0.5755
vn 0.2266 0.7117 -0.6649
vn 0.5542 0.6083 -0.5683
s off
f 3//1 1//1 2//1
f 3//2 5//2 4//2
f 1//3 3//3 4//3
f 4//4 5//4 6//4
f 3//5 2//5 7//5
f 5//6 3//6 7//6
f 8//7 5//7 7//7
f 6//8 5//8 8//8
f 11//9 9//9 10//9
f 11//10 13//10 12//10
f 9//11 11//11 12//11
f 12//12 13//12 14//12
f 1//13 11//13 10//13
f 1//14 10//14 2//14
f 2//15 10//15 15//15
f 4//16 11//16 1//16
f 13//17 11//17 4//17
f 13//18 4//18 6//18
f 13//19 6//19 14//19
f 14//20 6//20 16//20
f 2//21 15//21 17//21
f 7//22 2//22 17//22
f 8//23 7//23 18//23
f 7//24 17//24 18//24
f 16//25 6//25 8//25
f 18//26 16//26 8//26
f 9//27 19//27 10//27
f 21//28 19//28 9//28
f 21//29 9//29 20//29
f 20//30 9//30 12//30
f 20//31 12//31 14//31
f 22//32 20//32 14//32
f 19//33 23//33 24//33
f 19//34 24//34 10//34
f 10//35 24//35 15//35
f 21//36 23//36 19//36
f 14//37 16//37 22//37
f 22//38 16//38 25//38
f 15//39 24//39 26//39
f 17//40 15//40 26//40
f 18//41 17//41 27//41
f 17//42 26//42 27//42
f 25//43 16//43 18//43
f 27//44 25//44 18//44
f 20//45 28//45 21//45
f 20//46 22//46 28//46
f 23//47 29//47 24//47
f 23//48 21//48 28//48
f 23//49 28//49 29//49
f 29//50 28//50 30//50
f 22//51 25//51 30//51
f 28//52 22//52 30//52
f 24//53 29//53 26//53
f 27//54 26//54 29//54
f 30//55 27//55 29//55
f 25//56 27//56 30//56
f 33//57 31//57 32//57
f 31//58 33//58 34//58
f 33//59 32//59 35//59
f 34//60 33//60 35//60
f 31//61 36//61 37//61
f 32//62 31//62 37//62
f 36//63 31//63 34//63
f 38//64 36//64 34//64
f 32//65 37//65 39//65
f 35//66 32//66 39//66
f 38//67 34//67 35//67
f 39//68 38//68 35//68
f 42//69 40//69 41//69
f 42//70 44//70 43//70
f 40//71 42//71 43//71
f 43//72 44//72 45//72
f 47//73 42//73 41//73
f 46//74 47//74 41//74
f 36//75 47//75 37//75
f 36//76 44//76 47//76
f 44//77 42//77 47//77
f 44//78 36//78 38//78
f 44//79 38//79 45//79
f 45//80 38//80 48//80
f 47//81 46//81 49//81
f 37//82 47//82 49//82
f 37//83 49//83 39//83
f 39//84 49//84 50//84
f 48//85 38//85 39//85
f 50//86 48//86 39//86
f 40//87 51//87 52//87
f 41//88 40//88 52//88
f 43//89 53//89 40//89
f 40//90 53//90 51//90
f 45//91 55//91 54//91
f 45//92 54//92 43//92
f 43//93 54//93 53//93
f 54//94 55//94 56//94
f 41//95 52//95 46//95
f 52//96 57//96 46//96
f 55//97 48//97 58//97
f 45//98 48//98 55//98
f 59//99 56//99 55//99
f 58//100 59//100 55//100
f 61//101 49//101 46//101
f 61//102 46//102 60//102
f 60//103 46//103 57//103
f 49//104 62//104 50//104
f 61//105 62//105 49//105
f 50//106 62//106 64//106
f 48//107 50//107 64//107
f 48//108 64//108 63//108
f 48//109 63//109 58//109
f 59//110 58//110 63//110
f 61//111 60//111 65//111
f 62//112 61//112 65//112
f 66//113 62//113 65//113
f 64//114 62//114 66//114
f 51//115 67//115 68//115
f 52//116 51//116 68//116
f 53//117 69//117 51//117
f 51//118 69//118 67//118
f 54//119 70//119 53//119
f 53//120 70//120 69//120
f 70//121 54//121 56//121
f 71//122 70//122 56//122
f 52//123 68//123 57//123
f 68//124 72//124 57//124
f 56//125 59//125 71//125
f 71//126 59//126 73//126
f 57//127 72//127 60//127
f 72//128 74//128 60//128
f 63//129 64//129 75//129
f 63//130 75//130 76//130
f 63//131 76//131 59//131
f 59//132 76//132 73//132
f 60//133 74//133 77//133
f 65//134 60//134 77//134
f 66//135 65//135 78//135
f 65//136 77//136 78//136
f 75//137 64//137 66//137
f 75//138 66//138 79//138
f 79//139 66//139 78//139
f 76//140 75//140 79//140
f 67//141 80//141 68//141
f 67//142 69//142 81//142
f 80//143 67//143 81//143
f 69//144 70//144 82//144
f 81//145 69//145 82//145
f 70//146 71//146 82//146
f 80//147 83//147 72//147
f 68//148 80//148 72//148
f 81//149 84//149 80//149
f 84//150 83//150 80//150
f 82//151 85//151 81//151
f 85//152 84//152 81//152
f 71//153 73//153 85//153
f 82//154 71//154 85//154
f 83//155 86//155 74//155
f 72//156 83//156 74//156
f 84//157 87//157 83//157
f 87//158 86//158 83//158
f 85//159 88//159 84//159
f 88//160 87//160 84//160
f 73//161 76//161 88//161
f 85//162 73//162 88//162
f 74//163 86//163 77//163
f 78//164 77//164 86//164
f 87//165 78//165 86//165
f 79//166 78//166 87//166
f 88//167 79//167 87//167
f 76//168 79//168 88//168
