# Blender v2.78 (sub 0) OBJ File: 'fluid_test.blend'
# www.blender.org
o Area_Cube
v -0.070147 -0.469206 0.004382
v -0.130067 -0.469206 -0.129382
v -0.070147 -0.537277 -0.129382
v 0.129383 -0.469206 -0.113208
v 0.129383 -0.477004 -0.129382
v 0.135691 -0.469206 -0.129382
v -0.070147 -0.469206 -0.210968
v 0.129383 -0.469206 -0.138922
v -0.070147 -0.269676 0.110419
v -0.115351 -0.269676 0.070148
v -0.070147 -0.391569 0.070148
v 0.129383 -0.269676 0.083425
v 0.129383 -0.303733 0.070148
v 0.143420 -0.269676 0.070148
v -0.184801 -0.269676 -0.129382
v 0.212171 -0.269676 -0.129382
v -0.071721 -0.269676 -0.328912
v -0.070147 -0.272639 -0.328912
v 0.129383 -0.269676 -0.283338
v -0.062437 -0.269676 -0.328912
v -0.070147 -0.269676 -0.330742
v -0.070147 -0.179590 0.070148
v 0.129383 -0.212450 0.070148
v -0.070147 -0.070146 -0.108879
v -0.077696 -0.070146 -0.129382
v 0.129383 -0.070146 -0.016719
v 0.172322 -0.070146 -0.129382
v -0.070147 -0.070146 -0.164266
v -0.070147 -0.261450 -0.328912
v 0.129383 -0.070146 -0.253420
v -0.070147 -0.061604 -0.129382
v 0.129383 -0.019012 -0.129382
v -0.070147 1.326565 -0.005331
v -0.136369 1.326565 -0.129382
v -0.070147 1.264969 -0.129382
v 0.039627 1.326565 -0.129382
v -0.070147 1.326565 -0.193120
v -0.070147 1.526095 -0.031807
v -0.115234 1.526095 -0.129382
v 0.012272 1.526095 -0.129382
v -0.070147 1.526095 -0.175808
v -0.070147 1.566511 -0.129382
v -0.070147 3.720925 0.115196
v -0.116371 3.720925 0.070148
v -0.070147 3.673934 0.070148
v 0.129383 3.720925 0.132421
v 0.129383 3.650635 0.070148
v 0.204229 3.720925 0.070148
v -0.161555 3.720925 -0.129382
v -0.070147 3.624877 -0.129382
v 0.129383 3.567604 -0.129382
v 0.281626 3.720925 -0.129382
v -0.070147 3.720925 -0.307507
v -0.012990 3.720925 -0.328912
v 0.129383 3.688448 -0.328912
v 0.177979 3.720925 -0.328912
v 0.129383 3.720925 -0.397041
v -0.070147 3.920455 0.196973
v -0.187671 3.920455 0.070148
v 0.129383 3.920455 0.235416
v 0.328913 3.920455 0.123402
v 0.328913 3.857810 0.070148
v 0.412385 3.920455 0.070148
v -0.223913 3.920455 -0.129382
v 0.328913 3.791425 -0.129382
v 0.488321 3.920455 -0.129382
v -0.149630 3.920455 -0.328912
v -0.070147 3.746129 -0.328912
v 0.328913 3.920455 -0.305216
v 0.311737 3.920455 -0.328912
v -0.070147 3.920455 -0.467757
v 0.101480 3.920455 -0.528442
v 0.129383 3.901937 -0.528442
v 0.138657 3.920455 -0.528442
v 0.129383 3.920455 -0.538089
v -0.070147 4.119985 0.211795
v -0.211630 4.119985 0.070148
v 0.129383 4.119985 0.230121
v 0.328913 4.119985 0.185336
v 0.471194 4.119985 0.070148
v -0.228918 4.119985 -0.129382
v 0.485583 4.119985 -0.129382
v -0.163155 4.119985 -0.328912
v 0.328913 3.991726 -0.328912
v 0.359389 4.119985 -0.328912
v -0.070147 4.119985 -0.443426
v 0.129383 4.119985 -0.466951
v 0.129383 3.941357 -0.528442
v 0.328913 4.119985 -0.359765
v -0.070147 4.244546 0.070148
v 0.129383 4.245188 0.070148
v 0.328913 4.223567 0.070148
v -0.070147 4.245188 -0.129382
v 0.129383 4.245188 -0.129382
v 0.328913 4.226045 -0.129382
v -0.070147 4.214768 -0.328912
v 0.129383 4.225035 -0.328912
v 0.328913 4.149453 -0.328912
vn -0.7115 -0.6263 0.3187
vn 0.2626 -0.8692 0.4191
vn 0.2582 -0.8610 0.4382
vn 0.7440 -0.6018 0.2902
vn -0.6574 -0.5786 -0.4828
vn 0.2259 -0.7480 -0.6241
vn 0.2228 -0.7548 -0.6169
vn 0.6915 -0.5593 -0.4572
vn -0.6458 -0.2395 0.7249
vn 0.1579 -0.3586 0.9200
vn 0.1274 -0.3111 0.9418
vn 0.6611 -0.2725 0.6990
vn -0.8674 -0.3217 0.3797
vn -0.8636 -0.3232 0.3869
vn -0.9142 -0.2508 0.3182
vn 0.4101 -0.5895 0.6959
vn 0.3106 -0.7057 0.6368
vn 0.8642 -0.3735 0.3371
vn 0.8739 -0.3602 0.3263
vn 0.8889 -0.3407 0.3063
vn -0.7595 -0.3347 -0.5578
vn -0.7143 -0.3793 -0.5882
vn -0.8462 -0.2321 -0.4796
vn 0.1940 -0.5047 -0.8412
vn 0.1996 -0.5043 -0.8401
vn 0.2807 -0.5627 -0.7775
vn 0.7945 -0.3046 -0.5253
vn 0.8331 -0.3243 -0.4480
vn -0.7034 -0.3735 -0.6047
vn 0.1980 -0.5151 -0.8339
vn -0.6310 0.3166 0.7083
vn 0.1307 0.2241 0.9658
vn 0.0671 0.4072 0.9109
vn 0.6776 0.1662 0.7164
vn -0.8169 0.4921 0.3008
vn -0.8607 0.4319 0.2695
vn -0.8424 0.4522 0.2932
vn 0.1391 0.8449 0.5165
vn -0.3668 0.4847 0.7941
vn 0.9048 0.2219 0.3636
vn 0.9125 0.2156 0.3478
vn 0.9290 0.1855 0.3201
vn -0.9596 0.1836 -0.2133
vn -0.9615 0.1793 -0.2081
vn -0.7883 0.4231 -0.4467
vn 0.2259 0.2118 -0.9509
vn 0.1961 0.6397 -0.7432
vn -0.4042 0.1356 -0.9046
vn 0.8674 0.1732 -0.4664
vn 0.9438 0.0490 -0.3267
vn -0.7504 0.1436 -0.6452
vn 0.2258 0.2116 -0.9509
vn -0.7223 0.6384 0.2660
vn -0.1875 0.8944 0.4060
vn -0.1933 0.9057 0.3773
vn 0.7351 0.6173 0.2802
vn -0.7397 0.6537 -0.1601
vn -0.1057 0.9659 -0.2365
vn -0.1936 0.9070 -0.3739
vn 0.7402 0.6216 -0.2563
vn -0.6401 -0.6881 0.3417
vn 0.4490 -0.8003 0.3974
vn -0.5560 -0.5977 -0.5776
vn 0.3742 -0.6669 -0.6444
vn -0.9064 0.0556 0.4188
vn -0.8783 0.0930 0.4689
vn 0.7460 0.0876 0.6602
vn 0.7598 0.1042 0.6418
vn -0.7153 0.0758 -0.6947
vn -0.6921 0.0624 -0.7191
vn 0.5009 0.0687 -0.8628
vn 0.4894 0.0754 -0.8688
vn -0.6378 0.7116 0.2947
vn 0.4127 0.8415 0.3486
vn -0.5601 0.6248 -0.5439
vn 0.3469 0.7074 -0.6158
vn -0.5754 -0.5660 0.5904
vn -0.0772 -0.6612 0.7463
vn -0.0622 -0.6907 0.7205
vn 0.5286 -0.5629 0.6354
vn -0.7025 -0.6911 0.1699
vn -0.7148 -0.6803 0.1619
vn -0.1072 -0.9179 0.3820
vn -0.2685 -0.9354 0.2300
vn 0.6616 -0.7045 0.2566
vn 0.6809 -0.6761 0.2814
vn -0.6790 -0.6462 -0.3484
vn -0.1912 -0.8383 -0.5106
vn -0.1906 -0.8641 -0.4659
vn -0.2384 -0.8307 -0.5031
vn 0.6658 -0.6611 -0.3459
vn 0.4963 -0.7426 -0.4497
vn -0.2017 -0.8841 -0.4215
vn 0.5165 -0.7729 -0.3684
vn -0.7066 -0.2684 0.6548
vn -0.6772 -0.2420 0.6949
vn -0.0765 -0.4573 0.8860
vn -0.1755 -0.3733 0.9109
vn 0.5795 -0.5278 0.6209
vn 0.5473 -0.5175 0.6578
vn 0.4464 -0.4104 0.7952
vn 0.4372 -0.5825 0.6852
vn -0.9210 -0.3291 0.2086
vn -0.9404 -0.2939 0.1708
vn 0.8166 -0.5477 0.1822
vn 0.7106 -0.6473 0.2757
vn 0.5852 -0.7797 0.2227
vn 0.6091 -0.7525 0.2504
vn -0.8295 -0.3615 -0.4257
vn -0.8237 -0.3756 -0.4248
vn -0.8994 -0.2811 -0.3348
vn -0.2745 -0.6225 -0.7329
vn 0.6323 -0.6246 -0.4583
vn 0.7625 -0.5114 -0.3964
vn 0.7627 -0.5113 -0.3962
vn 0.5465 -0.6752 -0.4955
vn -0.8070 -0.3679 -0.4620
vn -0.2979 -0.4489 -0.8425
vn -0.2879 -0.5626 -0.7750
vn -0.3268 -0.5888 -0.7393
vn -0.3085 -0.6995 -0.6446
vn 0.7610 -0.3811 -0.5250
vn 0.7505 -0.3874 -0.5353
vn 0.6739 -0.4518 -0.5846
vn -0.2932 -0.4417 -0.8479
vn 0.6781 -0.3396 -0.6518
vn -0.7065 -0.0524 0.7057
vn -0.7307 -0.0877 0.6771
vn -0.1891 0.0260 0.9816
vn -0.0912 -0.0738 0.9931
vn 0.4725 -0.2613 0.8417
vn 0.2189 0.0259 0.9754
vn 0.5203 -0.2532 0.8156
vn 0.6187 -0.1823 0.7642
vn -0.9771 -0.1173 0.1775
vn -0.9960 -0.0250 0.0863
vn 0.9010 -0.2656 0.3429
vn 0.9973 0.0137 0.0719
vn -0.9369 -0.0235 -0.3488
vn -0.9478 -0.0642 -0.3124
vn 0.7947 -0.1915 -0.5760
vn 0.7988 -0.1898 -0.5709
vn 0.7275 -0.1894 -0.6595
vn 0.8451 0.0116 -0.5345
vn -0.7752 -0.0525 -0.6296
vn -0.8663 0.0605 -0.4959
vn -0.2369 0.3162 -0.9186
vn -0.3159 0.3195 -0.8934
vn -0.1162 0.1202 -0.9859
vn 0.4630 -0.2073 -0.8618
vn 0.6545 0.2503 -0.7135
vn 0.7432 -0.1791 -0.6447
vn 0.5915 0.2624 -0.7624
vn 0.7015 -0.1667 -0.6929
vn -0.2995 0.3998 -0.8663
vn 0.6866 0.3047 -0.6601
vn -0.5515 0.6264 0.5509
vn -0.0565 0.7862 0.6153
vn -0.0024 0.7509 0.6604
vn 0.1484 0.7353 0.6613
vn 0.0850 0.7846 0.6141
vn 0.4761 0.6539 0.5880
vn -0.6192 0.7852 0.0025
vn -0.6597 0.7493 0.0572
vn -0.0032 1.0000 0.0000
vn 0.0000 1.0000 0.0032
vn 0.1077 0.9941 0.0123
vn 0.0955 0.9954 0.0000
vn 0.5601 0.8274 0.0404
vn 0.5885 0.8084 0.0100
vn -0.7097 0.6964 -0.1062
vn -0.6067 0.7694 -0.2000
vn 0.0000 0.9949 -0.1005
vn -0.0508 0.9873 -0.1505
vn 0.0892 0.9299 -0.3569
vn 0.3527 0.9310 -0.0940
vn 0.6363 0.6581 -0.4025
vn 0.5342 0.7892 -0.3029
vn -0.6175 0.6059 -0.5015
vn -0.0750 0.7682 -0.6358
vn -0.0409 0.7951 -0.6051
vn 0.3094 0.7567 -0.5759
vn 0.2642 0.6975 -0.6661
vn 0.5730 0.5926 -0.5660
s off
f 3//1 1//1 2//1
f 3//2 5//2 4//2
f 1//3 3//3 4//3
f 4//4 5//4 6//4
f 3//5 2//5 7//5
f 5//6 3//6 7//6
f 8//7 5//7 7//7
f 6//8 5//8 8//8
f 11//9 9//9 10//9
f 11//10 13//10 12//10
f 9//11 11//11 12//11
f 12//12 13//12 14//12
f 1//13 11//13 10//13
f 1//14 10//14 2//14
f 2//15 10//15 15//15
f 4//16 11//16 1//16
f 13//17 11//17 4//17
f 13//18 4//18 6//18
f 13//19 6//19 14//19
f 14//20 6//20 16//20
f 18//21 7//21 2//21
f 18//22 2//22 17//22
f 17//23 2//23 15//23
f 20//24 7//24 18//24
f 20//25 19//25 7//25
f 19//26 8//26 7//26
f 16//27 6//27 8//27
f 19//28 16//28 8//28
f 18//29 17//29 21//29
f 20//30 18//30 21//30
f 9//31 22//31 10//31
f 9//32 12//32 23//32
f 22//33 9//33 23//33
f 12//34 14//34 23//34
f 22//35 24//35 25//35
f 22//36 25//36 10//36
f 10//37 25//37 15//37
f 23//38 24//38 22//38
f 26//39 24//39 23//39
f 26//40 23//40 14//40
f 26//41 14//41 27//41
f 27//42 14//42 16//42
f 28//43 29//43 17//43
f 28//44 17//44 25//44
f 25//45 17//45 15//45
f 29//46 19//46 20//46
f 29//47 28//47 19//47
f 28//48 30//48 19//48
f 27//49 16//49 19//49
f 30//50 27//50 19//50
f 17//51 29//51 21//51
f 20//52 21//52 29//52
f 24//53 31//53 25//53
f 24//54 26//54 32//54
f 31//55 24//55 32//55
f 26//56 27//56 32//56
f 25//57 31//57 28//57
f 30//58 28//58 31//58
f 32//59 30//59 31//59
f 27//60 30//60 32//60
f 35//61 33//61 34//61
f 33//62 35//62 36//62
f 35//63 34//63 37//63
f 36//64 35//64 37//64
f 33//65 38//65 39//65
f 34//66 33//66 39//66
f 38//67 33//67 36//67
f 40//68 38//68 36//68
f 34//69 39//69 41//69
f 37//70 34//70 41//70
f 40//71 36//71 37//71
f 41//72 40//72 37//72
f 38//73 42//73 39//73
f 38//74 40//74 42//74
f 39//75 42//75 41//75
f 40//76 41//76 42//76
f 45//77 43//77 44//77
f 45//78 47//78 46//78
f 43//79 45//79 46//79
f 46//80 47//80 48//80
f 50//81 45//81 44//81
f 49//82 50//82 44//82
f 47//83 45//83 51//83
f 51//84 45//84 50//84
f 52//85 48//85 47//85
f 51//86 52//86 47//86
f 50//87 49//87 53//87
f 53//88 54//88 55//88
f 53//89 55//89 50//89
f 50//90 55//90 51//90
f 56//91 52//91 51//91
f 55//92 56//92 51//92
f 55//93 54//93 57//93
f 56//94 55//94 57//94
f 43//95 58//95 59//95
f 44//96 43//96 59//96
f 46//97 60//97 43//97
f 43//98 60//98 58//98
f 48//99 62//99 61//99
f 48//100 61//100 46//100
f 46//101 61//101 60//101
f 61//102 62//102 63//102
f 44//103 59//103 49//103
f 59//104 64//104 49//104
f 62//105 52//105 65//105
f 48//106 52//106 62//106
f 66//107 63//107 62//107
f 65//108 66//108 62//108
f 68//109 53//109 49//109
f 68//110 49//110 67//110
f 67//111 49//111 64//111
f 53//112 68//112 54//112
f 65//113 70//113 69//113
f 65//114 52//114 70//114
f 52//115 56//115 70//115
f 66//116 65//116 69//116
f 68//117 67//117 71//117
f 73//118 71//118 72//118
f 57//119 71//119 73//119
f 57//120 68//120 71//120
f 57//121 54//121 68//121
f 57//122 73//122 74//122
f 57//123 74//123 56//123
f 56//124 74//124 70//124
f 73//125 72//125 75//125
f 74//126 73//126 75//126
f 58//127 76//127 77//127
f 59//128 58//128 77//128
f 60//129 78//129 58//129
f 58//130 78//130 76//130
f 61//131 79//131 60//131
f 60//132 79//132 78//132
f 79//133 61//133 63//133
f 80//134 79//134 63//134
f 59//135 77//135 64//135
f 77//136 81//136 64//136
f 63//137 66//137 80//137
f 80//138 66//138 82//138
f 64//139 81//139 67//139
f 81//140 83//140 67//140
f 69//141 70//141 84//141
f 69//142 84//142 85//142
f 69//143 85//143 66//143
f 66//144 85//144 82//144
f 67//145 83//145 86//145
f 71//146 67//146 86//146
f 72//147 87//147 88//147
f 72//148 71//148 87//148
f 71//149 86//149 87//149
f 84//150 87//150 89//150
f 84//151 74//151 87//151
f 84//152 70//152 74//152
f 74//153 88//153 87//153
f 85//154 84//154 89//154
f 72//155 88//155 75//155
f 74//156 75//156 88//156
f 76//157 90//157 77//157
f 76//158 78//158 91//158
f 90//159 76//159 91//159
f 78//160 79//160 92//160
f 91//161 78//161 92//161
f 79//162 80//162 92//162
f 90//163 93//163 81//163
f 77//164 90//164 81//164
f 91//165 94//165 90//165
f 94//166 93//166 90//166
f 92//167 95//167 91//167
f 95//168 94//168 91//168
f 80//169 82//169 95//169
f 92//170 80//170 95//170
f 93//171 96//171 83//171
f 81//172 93//172 83//172
f 94//173 97//173 93//173
f 97//174 96//174 93//174
f 95//175 98//175 94//175
f 98//176 97//176 94//176
f 82//177 85//177 98//177
f 95//178 82//178 98//178
f 83//179 96//179 86//179
f 87//180 86//180 96//180
f 97//181 87//181 96//181
f 89//182 87//182 97//182
f 98//183 89//183 97//183
f 85//184 89//184 98//184
