# Blender v2.78 (sub 0) OBJ File: 'fluid_test.blend'
# www.blender.org
o Area_Cube
v -0.070147 -0.070146 -0.099919
v -0.084226 -0.070146 -0.129382
v -0.070147 -0.081781 -0.129382
v -0.023713 -0.070146 -0.129382
v -0.070147 -0.070146 -0.149429
v -0.070147 0.129384 0.099925
v -0.103148 0.129384 0.070148
v -0.070147 0.063986 0.070148
v 0.111380 0.129384 0.070148
v -0.176432 0.129384 -0.129382
v 0.129383 0.129384 0.063441
v 0.129383 -0.012034 -0.129382
v 0.202235 0.129384 -0.129382
v -0.070147 0.129384 -0.324225
v 0.129383 0.129384 -0.270904
v -0.070147 0.217678 0.070148
v -0.070147 0.328914 -0.043969
v -0.102141 0.328914 -0.129382
v 0.129383 0.328914 0.017871
v 0.190008 0.328914 -0.129382
v -0.070147 0.328914 -0.262507
v 0.129383 0.328914 -0.321727
v -0.070147 0.367485 -0.129382
v 0.129383 0.410742 -0.129382
v -0.070147 1.725625 -0.012025
v -0.125648 1.725625 -0.129382
v -0.070147 1.639909 -0.129382
v 0.023947 1.725625 -0.129382
v -0.070147 1.725625 -0.184552
v -0.070147 1.804942 -0.129382
v -0.070147 3.720925 0.114451
v -0.116334 3.720925 0.070148
v -0.070147 3.676206 0.070148
v 0.129383 3.720925 0.137618
v 0.129383 3.651232 0.070148
v 0.206430 3.720925 0.070148
v -0.167380 3.720925 -0.129382
v -0.070147 3.629186 -0.129382
v 0.129383 3.592778 -0.129382
v 0.276571 3.720925 -0.129382
v -0.070147 3.720925 -0.278692
v 0.084034 3.720925 -0.328912
v 0.129383 3.708156 -0.328912
v 0.148673 3.720925 -0.328912
v 0.129383 3.720925 -0.350490
v -0.070147 3.920455 0.196938
v -0.191801 3.920455 0.070148
v 0.129383 3.920455 0.239027
v 0.328913 3.920455 0.116257
v 0.328913 3.867032 0.070148
v 0.398804 3.920455 0.070148
v -0.237042 3.920455 -0.129382
v 0.328913 3.805266 -0.129382
v 0.473770 3.920455 -0.129382
v -0.144586 3.920455 -0.328912
v -0.070147 3.783361 -0.328912
v 0.328913 3.920455 -0.311490
v 0.316982 3.920455 -0.328912
v -0.070147 3.920455 -0.453506
v 0.129383 3.920455 -0.522776
v -0.070147 4.119985 0.212301
v -0.209963 4.119985 0.070148
v 0.129383 4.119985 0.229781
v 0.328913 4.119985 0.184681
v 0.473115 4.119985 0.070148
v -0.224511 4.119985 -0.129382
v 0.490160 4.119985 -0.129382
v -0.166412 4.119985 -0.328912
v 0.328913 3.963473 -0.328912
v 0.365877 4.119985 -0.328912
v -0.070147 4.119985 -0.450163
v 0.129383 4.119985 -0.464032
v 0.328913 4.119985 -0.366409
v -0.070147 4.244463 0.070148
v 0.129383 4.245188 0.070148
v 0.328913 4.224195 0.070148
v -0.070147 4.245188 -0.129382
v 0.129383 4.245188 -0.129382
v 0.328913 4.226969 -0.129382
v -0.070147 4.218487 -0.328912
v 0.129383 4.223589 -0.328912
v 0.328913 4.155792 -0.328912
vn -0.6094 -0.7374 0.2912
vn 0.2270 -0.9058 0.3577
vn -0.5815 -0.7036 -0.4084
vn 0.2118 -0.8453 -0.4906
vn -0.6346 -0.3202 0.7033
vn 0.1477 -0.4098 0.9001
vn -0.8412 -0.4245 0.3348
vn -0.8016 -0.4591 0.3831
vn -0.8612 -0.3980 0.3163
vn 0.2927 -0.7711 0.5655
vn 0.3385 -0.7752 0.5334
vn 0.2330 -0.7449 0.6252
vn 0.2722 -0.7555 0.5959
vn 0.8427 -0.4341 0.3184
vn -0.8135 -0.3759 -0.4438
vn -0.7309 -0.4497 -0.5133
vn 0.2741 -0.7222 -0.6350
vn 0.2670 -0.6817 -0.6812
vn 0.1971 -0.6460 -0.7374
vn 0.8084 -0.4164 -0.4161
vn -0.6498 0.2429 0.7202
vn 0.1536 0.3158 0.9363
vn -0.8811 0.3386 0.3301
vn -0.8854 0.3309 0.3265
vn -0.8861 0.3299 0.3255
vn 0.3289 0.6762 0.6592
vn 0.2656 0.6492 0.7127
vn -0.2892 0.2131 0.9332
vn 0.9324 0.0805 0.3523
vn 0.9232 0.0566 0.3801
vn -0.9142 0.3404 -0.2197
vn -0.8684 0.1465 -0.4737
vn 0.2507 -0.2390 -0.9381
vn -0.2728 0.2843 -0.9191
vn 0.8878 0.0544 -0.4570
vn 0.9510 -0.0763 -0.2997
vn -0.7395 0.6135 0.2770
vn -0.1489 0.8644 0.4803
vn -0.1938 0.8941 0.4037
vn 0.7628 0.5652 0.3141
vn -0.7568 0.6278 -0.1819
vn -0.0823 0.9572 -0.2773
vn -0.1956 0.9024 -0.3839
vn 0.7789 0.5771 -0.2455
vn -0.7802 -0.5052 0.3690
vn 0.5926 -0.6505 0.4751
vn -0.6413 -0.4153 -0.6452
vn 0.4422 -0.4854 -0.7542
vn -0.7640 0.5346 0.3613
vn 0.5726 0.6793 0.4591
vn -0.6322 0.4424 -0.6360
vn 0.4337 0.5145 -0.7397
vn -0.5631 -0.5816 0.5871
vn -0.0867 -0.6929 0.7158
vn -0.0822 -0.7014 0.7080
vn 0.5325 -0.5887 0.6081
vn -0.6858 -0.7084 0.1669
vn -0.6759 -0.7164 0.1729
vn -0.1193 -0.9528 0.2791
vn -0.1749 -0.9583 0.2258
vn 0.6529 -0.7218 0.2295
vn 0.6412 -0.7364 0.2157
vn -0.6265 -0.6641 -0.4080
vn -0.2083 -0.7399 -0.6396
vn -0.1831 -0.8376 -0.5146
vn -0.1560 -0.8551 -0.4945
vn 0.6052 -0.6951 -0.3879
vn 0.4972 -0.7511 -0.4343
vn -0.2355 -0.8364 -0.4949
vn 0.4950 -0.7478 -0.4425
vn -0.6937 -0.2752 0.6656
vn -0.6697 -0.2533 0.6981
vn -0.1030 -0.4507 0.8867
vn -0.1913 -0.3750 0.9071
vn 0.6147 -0.5153 0.5971
vn 0.5703 -0.5006 0.6513
vn 0.4809 -0.3972 0.7816
vn 0.4468 -0.5845 0.6773
vn -0.9097 -0.3441 0.2327
vn -0.9232 -0.3223 0.2093
vn 0.8386 -0.5204 0.1611
vn 0.7400 -0.6203 0.2601
vn 0.5921 -0.7746 0.2225
vn 0.6049 -0.7607 0.2355
vn -0.7673 -0.4019 -0.4997
vn -0.7610 -0.4132 -0.5001
vn -0.8650 -0.3020 -0.4008
vn -0.2460 -0.6075 -0.7553
vn 0.6153 -0.6662 -0.4214
vn 0.8007 -0.4969 -0.3347
vn 0.6864 -0.5790 -0.4400
vn 0.5578 -0.7014 -0.4437
vn -0.7781 -0.4225 -0.4649
vn -0.2628 -0.6489 -0.7140
vn -0.3200 -0.6673 -0.6726
vn -0.2541 -0.6321 -0.7320
vn 0.6311 -0.5324 -0.5642
vn 0.6161 -0.5148 -0.5962
vn -0.7119 -0.0539 0.7002
vn -0.7200 -0.0655 0.6909
vn -0.2062 0.0453 0.9775
vn -0.0870 -0.0765 0.9933
vn 0.5030 -0.2804 0.8175
vn 0.2202 0.0452 0.9744
vn 0.5294 -0.2752 0.8025
vn 0.6059 -0.2257 0.7629
vn -0.9714 -0.0884 0.2203
vn -0.9954 0.0625 0.0726
vn 0.8839 -0.3292 0.3321
vn 0.9931 -0.0816 0.0848
vn -0.9059 0.0569 -0.4197
vn -0.9549 -0.1044 -0.2780
vn 0.8043 -0.2231 -0.5508
vn 0.8464 -0.1999 -0.4936
vn 0.7675 -0.1955 -0.6105
vn 0.8467 -0.0696 -0.5274
vn -0.7803 -0.0854 -0.6195
vn -0.8584 0.0086 -0.5129
vn -0.3160 0.2680 -0.9101
vn -0.0693 0.0167 -0.9975
vn 0.7048 -0.1955 -0.6820
vn 0.7054 -0.1652 -0.6893
vn 0.4249 0.2557 -0.8684
vn 0.7023 -0.1659 -0.6923
vn -0.5565 0.6251 0.5474
vn -0.0540 0.7857 0.6162
vn -0.0027 0.7523 0.6588
vn 0.1504 0.7312 0.6653
vn 0.0825 0.7842 0.6150
vn 0.4714 0.6523 0.5935
vn -0.6299 0.7766 0.0028
vn -0.6642 0.7460 0.0484
vn -0.0036 1.0000 0.0000
vn 0.0000 1.0000 0.0036
vn 0.1046 0.9944 0.0138
vn 0.0909 0.9959 0.0000
vn 0.5522 0.8323 0.0472
vn 0.5857 0.8105 0.0113
vn -0.7121 0.6959 -0.0931
vn -0.6196 0.7639 -0.1804
vn 0.0000 0.9942 -0.1076
vn -0.0253 0.9908 -0.1326
vn 0.0857 0.9384 -0.3347
vn 0.3200 0.9419 -0.1020
vn 0.6384 0.6590 -0.3976
vn 0.5299 0.7987 -0.2849
vn -0.6219 0.6078 -0.4938
vn -0.0438 0.7754 -0.6299
vn -0.0203 0.7934 -0.6083
vn 0.2853 0.7606 -0.5832
vn 0.2386 0.7023 -0.6707
vn 0.5738 0.5923 -0.5656
s off
f 3//1 1//1 2//1
f 1//2 3//2 4//2
f 3//3 2//3 5//3
f 4//4 3//4 5//4
f 8//5 6//5 7//5
f 6//6 8//6 9//6
f 1//7 8//7 7//7
f 1//8 7//8 2//8
f 2//9 7//9 10//9
f 4//10 12//10 11//10
f 1//11 4//11 11//11
f 1//12 11//12 9//12
f 1//13 9//13 8//13
f 11//14 12//14 13//14
f 2//15 10//15 14//15
f 5//16 2//16 14//16
f 12//17 4//17 5//17
f 12//18 5//18 15//18
f 15//19 5//19 14//19
f 13//20 12//20 15//20
f 6//21 16//21 7//21
f 6//22 9//22 16//22
f 16//23 17//23 18//23
f 16//24 18//24 7//24
f 7//25 18//25 10//25
f 9//26 17//26 16//26
f 9//27 11//27 17//27
f 11//28 19//28 17//28
f 19//29 11//29 13//29
f 20//30 19//30 13//30
f 10//31 18//31 21//31
f 14//32 10//32 21//32
f 15//33 14//33 22//33
f 14//34 21//34 22//34
f 20//35 13//35 15//35
f 22//36 20//36 15//36
f 17//37 23//37 18//37
f 17//38 19//38 24//38
f 23//39 17//39 24//39
f 19//40 20//40 24//40
f 18//41 23//41 21//41
f 22//42 21//42 23//42
f 24//43 22//43 23//43
f 20//44 22//44 24//44
f 27//45 25//45 26//45
f 25//46 27//46 28//46
f 27//47 26//47 29//47
f 28//48 27//48 29//48
f 25//49 30//49 26//49
f 25//50 28//50 30//50
f 26//51 30//51 29//51
f 28//52 29//52 30//52
f 33//53 31//53 32//53
f 33//54 35//54 34//54
f 31//55 33//55 34//55
f 34//56 35//56 36//56
f 38//57 33//57 32//57
f 37//58 38//58 32//58
f 35//59 33//59 39//59
f 39//60 33//60 38//60
f 40//61 36//61 35//61
f 39//62 40//62 35//62
f 38//63 37//63 41//63
f 41//64 42//64 43//64
f 41//65 43//65 38//65
f 38//66 43//66 39//66
f 44//67 40//67 39//67
f 43//68 44//68 39//68
f 43//69 42//69 45//69
f 44//70 43//70 45//70
f 31//71 46//71 47//71
f 32//72 31//72 47//72
f 34//73 48//73 31//73
f 31//74 48//74 46//74
f 36//75 50//75 49//75
f 36//76 49//76 34//76
f 34//77 49//77 48//77
f 49//78 50//78 51//78
f 32//79 47//79 37//79
f 47//80 52//80 37//80
f 50//81 40//81 53//81
f 36//82 40//82 50//82
f 54//83 51//83 50//83
f 53//84 54//84 50//84
f 56//85 41//85 37//85
f 56//86 37//86 55//86
f 55//87 37//87 52//87
f 41//88 56//88 42//88
f 53//89 58//89 57//89
f 53//90 40//90 58//90
f 40//91 44//91 58//91
f 54//92 53//92 57//92
f 56//93 55//93 59//93
f 42//94 56//94 59//94
f 42//95 59//95 45//95
f 45//96 59//96 60//96
f 58//97 44//97 45//97
f 60//98 58//98 45//98
f 46//99 61//99 62//99
f 47//100 46//100 62//100
f 48//101 63//101 46//101
f 46//102 63//102 61//102
f 49//103 64//103 48//103
f 48//104 64//104 63//104
f 64//105 49//105 51//105
f 65//106 64//106 51//106
f 47//107 62//107 52//107
f 62//108 66//108 52//108
f 51//109 54//109 65//109
f 65//110 54//110 67//110
f 52//111 66//111 55//111
f 66//112 68//112 55//112
f 57//113 58//113 69//113
f 57//114 69//114 70//114
f 57//115 70//115 54//115
f 54//116 70//116 67//116
f 55//117 68//117 71//117
f 59//118 55//118 71//118
f 60//119 59//119 72//119
f 59//120 71//120 72//120
f 69//121 58//121 60//121
f 69//122 60//122 73//122
f 73//123 60//123 72//123
f 70//124 69//124 73//124
f 61//125 74//125 62//125
f 61//126 63//126 75//126
f 74//127 61//127 75//127
f 63//128 64//128 76//128
f 75//129 63//129 76//129
f 64//130 65//130 76//130
f 74//131 77//131 66//131
f 62//132 74//132 66//132
f 75//133 78//133 74//133
f 78//134 77//134 74//134
f 76//135 79//135 75//135
f 79//136 78//136 75//136
f 65//137 67//137 79//137
f 76//138 65//138 79//138
f 77//139 80//139 68//139
f 66//140 77//140 68//140
f 78//141 81//141 77//141
f 81//142 80//142 77//142
f 79//143 82//143 78//143
f 82//144 81//144 78//144
f 67//145 70//145 82//145
f 79//146 67//146 82//146
f 68//147 80//147 71//147
f 72//148 71//148 80//148
f 81//149 72//149 80//149
f 73//150 72//150 81//150
f 82//151 73//151 81//151
f 70//152 73//152 82//152
