# Blender v2.78 (sub 0) OBJ File: 'fluid_test.blend'
# www.blender.org
o Area_Cube
v -0.070147 -2.065446 -0.063664
v -0.097048 -2.065446 -0.129382
v -0.070147 -2.087892 -0.129382
v 0.030359 -2.065446 -0.129382
v -0.070147 -2.065446 -0.165217
v -0.070147 -1.865916 0.112964
v -0.119213 -1.865916 0.070148
v -0.070147 -1.968519 0.070148
v 0.129383 -1.865916 0.089688
v 0.129383 -1.906931 0.070148
v 0.149901 -1.865916 0.070148
v -0.178454 -1.865916 -0.129382
v 0.129383 -2.030204 -0.129382
v 0.211052 -1.865916 -0.129382
v -0.070147 -1.865916 -0.305812
v 0.129383 -1.865916 -0.270860
v -0.070147 -1.666386 0.115848
v -0.123278 -1.666386 0.070148
v 0.129383 -1.666386 0.105533
v 0.167037 -1.666386 0.070148
v -0.181741 -1.666386 -0.129382
v 0.228002 -1.666386 -0.129382
v -0.090056 -1.666386 -0.328912
v -0.070147 -1.764296 -0.328912
v 0.129383 -1.666386 -0.316951
v 0.064624 -1.666386 -0.328912
v -0.070147 -1.666386 -0.353541
v -0.070147 -1.609842 0.070148
v 0.129383 -1.617978 0.070148
v -0.070147 -1.544454 -0.129382
v 0.129383 -1.540446 -0.129382
v -0.070147 -1.642791 -0.328912
v -0.070147 0.328914 0.028093
v -0.147367 0.328914 -0.129382
v -0.070147 0.253727 -0.129382
v 0.066723 0.328914 -0.129382
v -0.070147 0.328914 -0.205284
v -0.070147 0.528444 -0.058724
v -0.102690 0.528444 -0.129382
v -0.011945 0.528444 -0.129382
v -0.070147 0.528444 -0.162228
v -0.070147 0.569225 -0.129382
v -0.070147 3.720925 0.112834
v -0.115809 3.720925 0.070148
v -0.070147 3.676462 0.070148
v 0.129383 3.720925 0.128416
v 0.129383 3.657282 0.070148
v 0.243152 3.720925 0.070148
v -0.174357 3.720925 -0.129382
v -0.070147 3.623888 -0.129382
v 0.129383 3.583498 -0.129382
v 0.311172 3.720925 -0.129382
v -0.070147 3.720925 -0.326999
v -0.064940 3.720925 -0.328912
v 0.129383 3.680328 -0.328912
v 0.189291 3.720925 -0.328912
v 0.129383 3.720925 -0.410356
v -0.070147 3.920455 0.198227
v -0.187194 3.920455 0.070148
v 0.129383 3.920455 0.239496
v 0.328913 3.920455 0.146232
v 0.328913 3.792264 0.070148
v 0.448560 3.920455 0.070148
v -0.238416 3.920455 -0.129382
v 0.328913 3.747507 -0.129382
v 0.501980 3.920455 -0.129382
v -0.149221 3.920455 -0.328912
v -0.070147 3.723429 -0.328912
v 0.328913 3.920455 -0.311308
v 0.314111 3.920455 -0.328912
v -0.070147 3.920455 -0.447738
v 0.129383 3.920455 -0.498568
v -0.070147 4.119985 0.211555
v -0.209669 4.119985 0.070148
v 0.129383 4.119985 0.228483
v 0.328913 4.119985 0.174244
v 0.461004 4.119985 0.070148
v -0.233011 4.119985 -0.129382
v 0.474000 4.119985 -0.129382
v -0.165987 4.119985 -0.328912
v 0.328913 3.966703 -0.328912
v 0.372274 4.119985 -0.328912
v -0.070147 4.119985 -0.448252
v 0.129383 4.119985 -0.479080
v 0.328913 4.119985 -0.372479
v -0.070147 4.243762 0.070148
v 0.129383 4.245135 0.070148
v 0.328913 4.220095 0.070148
v -0.070147 4.245188 -0.129382
v 0.129383 4.245188 -0.129382
v 0.328913 4.223693 -0.129382
v -0.070147 4.214789 -0.328912
v 0.129383 4.230650 -0.328912
v 0.328913 4.161179 -0.328912
vn -0.6197 -0.7427 0.2537
vn 0.2068 -0.9259 0.3162
vn -0.5774 -0.6920 -0.4334
vn 0.1860 -0.8327 -0.5216
vn -0.6272 -0.2999 0.7188
vn 0.1316 -0.4263 0.8949
vn 0.1070 -0.3829 0.9176
vn 0.6519 -0.3261 0.6846
vn -0.8611 -0.4118 0.2983
vn -0.8338 -0.4339 0.3413
vn -0.8928 -0.3642 0.2651
vn 0.3581 -0.7561 0.5477
vn 0.2841 -0.7984 0.5309
vn 0.2540 -0.8228 0.5084
vn 0.8625 -0.4315 0.2643
vn 0.8634 -0.4292 0.2652
vn -0.8050 -0.3284 -0.4941
vn -0.7365 -0.3896 -0.5529
vn 0.2443 -0.6863 -0.6851
vn 0.2438 -0.6329 -0.7349
vn 0.1417 -0.5702 -0.8092
vn 0.7955 -0.3954 -0.4592
vn -0.6521 -0.0110 0.7581
vn -0.6574 -0.0134 0.7534
vn 0.1155 -0.0786 0.9902
vn 0.0516 -0.0144 0.9986
vn 0.6885 -0.0574 0.7230
vn 0.6836 -0.0587 0.7275
vn -0.9585 -0.0195 0.2846
vn -0.9595 -0.0158 0.2811
vn 0.9529 -0.0818 0.2920
vn 0.9532 -0.0810 0.2912
vn -0.8463 -0.1181 -0.5195
vn -0.8279 -0.1683 -0.5351
vn -0.9086 -0.0150 -0.4175
vn 0.1590 -0.2188 -0.9627
vn 0.1767 -0.2302 -0.9570
vn 0.1682 -0.2219 -0.9605
vn 0.8637 -0.0734 -0.4986
vn 0.8800 -0.1069 -0.4627
vn -0.7682 -0.1562 -0.6209
vn 0.1745 -0.2402 -0.9549
vn -0.5560 0.5225 0.6464
vn 0.0417 0.5896 0.8066
vn 0.0256 0.6284 0.7775
vn 0.6044 0.4701 0.6432
vn -0.7203 0.6592 0.2160
vn -0.7127 0.6697 0.2088
vn 0.0380 0.9314 0.3619
vn -0.0191 0.9501 0.3114
vn 0.7655 0.5994 0.2339
vn 0.7678 0.5972 0.2321
vn -0.7284 0.6146 -0.3029
vn -0.6986 0.6394 -0.3210
vn 0.1260 0.7200 -0.6825
vn 0.1305 0.8231 -0.5527
vn -0.0180 0.8968 -0.4420
vn 0.7275 0.5697 -0.3825
vn -0.6502 0.5486 -0.5256
vn 0.1254 0.7164 -0.6863
vn -0.6601 -0.6779 0.3237
vn 0.4442 -0.8085 0.3860
vn -0.5689 -0.5843 -0.5788
vn 0.3636 -0.6618 -0.6556
vn -0.8936 0.1791 0.4116
vn -0.8802 0.1971 0.4316
vn 0.7258 0.2745 0.6308
vn 0.7384 0.2911 0.6083
vn -0.7016 0.1571 -0.6951
vn -0.6928 0.1521 -0.7049
vn 0.4763 0.1878 -0.8590
vn 0.4830 0.1847 -0.8559
vn -0.7354 0.5869 0.3387
vn 0.5188 0.7404 0.4273
vn -0.6180 0.4932 -0.6123
vn 0.4024 0.5743 -0.7130
vn -0.5591 -0.5742 0.5981
vn -0.0648 -0.6738 0.7360
vn -0.0562 -0.6914 0.7202
vn 0.3534 -0.6317 0.6900
vn -0.6855 -0.7040 0.1855
vn -0.6682 -0.7176 0.1961
vn -0.0898 -0.9341 0.3454
vn -0.1921 -0.9490 0.2500
vn 0.4816 -0.8609 0.1642
vn 0.5784 -0.7651 0.2829
vn -0.6413 -0.6887 -0.3382
vn -0.1787 -0.8552 -0.4865
vn -0.1837 -0.8824 -0.4333
vn -0.1792 -0.8851 -0.4295
vn 0.5659 -0.7485 -0.3457
vn 0.5205 -0.7682 -0.3728
vn -0.1838 -0.8797 -0.4385
vn 0.5186 -0.7652 -0.3814
vn -0.7092 -0.2774 0.6481
vn -0.6634 -0.2373 0.7096
vn -0.0681 -0.4853 0.8717
vn -0.1868 -0.3865 0.9032
vn 0.3908 -0.4698 0.7916
vn 0.4019 -0.4720 0.7847
vn 0.3781 -0.4503 0.8089
vn 0.4798 -0.4478 0.7545
vn -0.9076 -0.3247 0.2663
vn -0.9249 -0.2969 0.2374
vn 0.8254 -0.5509 0.1236
vn 0.6248 -0.7511 0.2130
vn 0.7174 -0.6696 0.1921
vn 0.6981 -0.6986 0.1567
vn -0.8332 -0.3356 -0.4394
vn -0.8336 -0.3345 -0.4396
vn -0.8761 -0.2813 -0.3916
vn -0.2802 -0.5826 -0.7629
vn 0.6338 -0.5606 -0.5329
vn 0.7310 -0.4879 -0.4771
vn 0.7528 -0.4709 -0.4599
vn 0.5866 -0.5870 -0.5580
vn -0.7896 -0.3169 -0.5254
vn -0.2410 -0.5012 -0.8311
vn -0.3374 -0.4882 -0.8049
vn -0.2269 -0.3938 -0.8907
vn 0.7194 -0.4500 -0.5291
vn 0.6432 -0.3096 -0.7003
vn -0.7111 -0.0469 0.7016
vn -0.7356 -0.0829 0.6723
vn -0.2022 0.0540 0.9778
vn -0.0843 -0.0664 0.9942
vn 0.4201 -0.1262 0.8987
vn 0.2619 0.0532 0.9636
vn 0.5329 -0.1176 0.8380
vn 0.6185 -0.0386 0.7848
vn -0.9629 -0.1085 0.2472
vn -0.9929 0.0269 0.1162
vn 0.9642 -0.0601 0.2582
vn 0.9883 0.1386 0.0644
vn -0.9127 0.0247 -0.4080
vn -0.9450 -0.0794 -0.3174
vn 0.7434 -0.2379 -0.6251
vn 0.7827 -0.2214 -0.5817
vn 0.7079 -0.2132 -0.6734
vn 0.8840 0.1240 -0.4507
vn -0.7780 -0.0654 -0.6248
vn -0.8325 -0.0014 -0.5540
vn -0.2458 0.0942 -0.9647
vn -0.1527 -0.0025 -0.9883
vn 0.6611 -0.2116 -0.7198
vn 0.6612 -0.2051 -0.7217
vn 0.4695 0.0858 -0.8788
vn 0.6949 -0.1966 -0.6917
vn -0.5552 0.6258 0.5478
vn -0.0525 0.7834 0.6192
vn -0.0052 0.7524 0.6586
vn 0.1852 0.7083 0.6812
vn 0.0980 0.7808 0.6171
vn 0.4794 0.6325 0.6083
vn -0.6095 0.7928 0.0057
vn -0.6616 0.7458 0.0774
vn -0.0069 1.0000 0.0003
vn 0.0000 1.0000 0.0072
vn 0.1245 0.9921 0.0179
vn 0.1071 0.9942 0.0003
vn 0.5811 0.8130 0.0378
vn 0.6039 0.7969 0.0144
vn -0.6992 0.7068 -0.1077
vn -0.5971 0.7767 -0.2006
vn 0.0000 0.9974 -0.0727
vn -0.0783 0.9856 -0.1502
vn 0.1023 0.9493 -0.2974
vn 0.3280 0.9422 -0.0686
vn 0.6499 0.6840 -0.3313
vn 0.5635 0.7883 -0.2470
vn -0.6123 0.6190 -0.4918
vn -0.0957 0.7794 -0.6192
vn -0.0639 0.8034 -0.5920
vn 0.3021 0.7674 -0.5655
vn 0.2453 0.7044 -0.6661
vn 0.5681 0.5980 -0.5654
s off
f 3//1 1//1 2//1
f 1//2 3//2 4//2
f 3//3 2//3 5//3
f 4//4 3//4 5//4
f 8//5 6//5 7//5
f 8//6 10//6 9//6
f 6//7 8//7 9//7
f 9//8 10//8 11//8
f 1//9 8//9 7//9
f 1//10 7//10 2//10
f 2//11 7//11 12//11
f 4//12 8//12 1//12
f 4//13 13//13 8//13
f 13//14 10//14 8//14
f 14//15 11//15 10//15
f 13//16 14//16 10//16
f 2//17 12//17 15//17
f 5//18 2//18 15//18
f 13//19 4//19 5//19
f 13//20 5//20 16//20
f 16//21 5//21 15//21
f 14//22 13//22 16//22
f 6//23 17//23 18//23
f 7//24 6//24 18//24
f 9//25 19//25 6//25
f 6//26 19//26 17//26
f 19//27 9//27 11//27
f 20//28 19//28 11//28
f 7//29 18//29 12//29
f 18//30 21//30 12//30
f 11//31 14//31 20//31
f 20//32 14//32 22//32
f 24//33 15//33 12//33
f 24//34 12//34 23//34
f 23//35 12//35 21//35
f 26//36 15//36 24//36
f 26//37 25//37 15//37
f 25//38 16//38 15//38
f 22//39 14//39 16//39
f 25//40 22//40 16//40
f 24//41 23//41 27//41
f 26//42 24//42 27//42
f 17//43 28//43 18//43
f 17//44 19//44 29//44
f 28//45 17//45 29//45
f 19//46 20//46 29//46
f 28//47 30//47 21//47
f 18//48 28//48 21//48
f 29//49 31//49 28//49
f 31//50 30//50 28//50
f 20//51 22//51 31//51
f 29//52 20//52 31//52
f 30//53 32//53 23//53
f 21//54 30//54 23//54
f 25//55 26//55 32//55
f 25//56 32//56 31//56
f 31//57 32//57 30//57
f 22//58 25//58 31//58
f 23//59 32//59 27//59
f 26//60 27//60 32//60
f 35//61 33//61 34//61
f 33//62 35//62 36//62
f 35//63 34//63 37//63
f 36//64 35//64 37//64
f 33//65 38//65 39//65
f 34//66 33//66 39//66
f 38//67 33//67 36//67
f 40//68 38//68 36//68
f 34//69 39//69 41//69
f 37//70 34//70 41//70
f 40//71 36//71 37//71
f 41//72 40//72 37//72
f 38//73 42//73 39//73
f 38//74 40//74 42//74
f 39//75 42//75 41//75
f 40//76 41//76 42//76
f 45//77 43//77 44//77
f 45//78 47//78 46//78
f 43//79 45//79 46//79
f 46//80 47//80 48//80
f 50//81 45//81 44//81
f 49//82 50//82 44//82
f 47//83 45//83 51//83
f 51//84 45//84 50//84
f 52//85 48//85 47//85
f 51//86 52//86 47//86
f 50//87 49//87 53//87
f 53//88 54//88 55//88
f 53//89 55//89 50//89
f 50//90 55//90 51//90
f 56//91 52//91 51//91
f 55//92 56//92 51//92
f 55//93 54//93 57//93
f 56//94 55//94 57//94
f 43//95 58//95 59//95
f 44//96 43//96 59//96
f 46//97 60//97 43//97
f 43//98 60//98 58//98
f 48//99 62//99 61//99
f 48//100 61//100 46//100
f 46//101 61//101 60//101
f 61//102 62//102 63//102
f 44//103 59//103 49//103
f 59//104 64//104 49//104
f 62//105 52//105 65//105
f 48//106 52//106 62//106
f 66//107 63//107 62//107
f 65//108 66//108 62//108
f 68//109 53//109 49//109
f 68//110 49//110 67//110
f 67//111 49//111 64//111
f 53//112 68//112 54//112
f 65//113 70//113 69//113
f 65//114 52//114 70//114
f 52//115 56//115 70//115
f 66//116 65//116 69//116
f 68//117 67//117 71//117
f 54//118 68//118 71//118
f 54//119 71//119 57//119
f 57//120 71//120 72//120
f 70//121 56//121 57//121
f 72//122 70//122 57//122
f 58//123 73//123 74//123
f 59//124 58//124 74//124
f 60//125 75//125 58//125
f 58//126 75//126 73//126
f 61//127 76//127 60//127
f 60//128 76//128 75//128
f 76//129 61//129 63//129
f 77//130 76//130 63//130
f 59//131 74//131 64//131
f 74//132 78//132 64//132
f 63//133 66//133 77//133
f 77//134 66//134 79//134
f 64//135 78//135 67//135
f 78//136 80//136 67//136
f 69//137 70//137 81//137
f 69//138 81//138 82//138
f 69//139 82//139 66//139
f 66//140 82//140 79//140
f 67//141 80//141 83//141
f 71//142 67//142 83//142
f 72//143 71//143 84//143
f 71//144 83//144 84//144
f 81//145 70//145 72//145
f 81//146 72//146 85//146
f 85//147 72//147 84//147
f 82//148 81//148 85//148
f 73//149 86//149 74//149
f 73//150 75//150 87//150
f 86//151 73//151 87//151
f 75//152 76//152 88//152
f 87//153 75//153 88//153
f 76//154 77//154 88//154
f 86//155 89//155 78//155
f 74//156 86//156 78//156
f 87//157 90//157 86//157
f 90//158 89//158 86//158
f 88//159 91//159 87//159
f 91//160 90//160 87//160
f 77//161 79//161 91//161
f 88//162 77//162 91//162
f 89//163 92//163 80//163
f 78//164 89//164 80//164
f 90//165 93//165 89//165
f 93//166 92//166 89//166
f 91//167 94//167 90//167
f 94//168 93//168 90//168
f 79//169 82//169 94//169
f 91//170 79//170 94//170
f 80//171 92//171 83//171
f 84//172 83//172 92//172
f 93//173 84//173 92//173
f 85//174 84//174 93//174
f 94//175 85//175 93//175
f 82//176 85//176 94//176
