# Blender v2.78 (sub 0) OBJ File: 'fluid_test.blend'
# www.blender.org
o Area_Cube
v -0.070147 3.521395 0.071357
v -0.071428 3.521395 0.070148
v -0.070147 3.519784 0.070148
v -0.066406 3.521395 0.070148
v -0.124645 3.521395 -0.129382
v -0.070147 3.432744 -0.129382
v 0.129383 3.521395 -0.071292
v 0.129383 3.489622 -0.129382
v 0.162135 3.521395 -0.129382
v -0.070147 3.521395 -0.203075
v 0.129383 3.521395 -0.163561
v -0.070147 3.720925 0.195486
v -0.191640 3.720925 0.070148
v 0.129383 3.720925 0.181539
v 0.129383 3.576611 0.070148
v 0.328913 3.720925 0.147817
v 0.328913 3.643976 0.070148
v 0.450235 3.720925 0.070148
v -0.194158 3.720925 -0.129382
v 0.328913 3.623288 -0.129382
v 0.459708 3.720925 -0.129382
v -0.125707 3.720925 -0.328912
v -0.070147 3.654959 -0.328912
v 0.129383 3.651967 -0.328912
v 0.328913 3.701398 -0.328912
v 0.354860 3.720925 -0.328912
v -0.070147 3.720925 -0.392598
v 0.129383 3.720925 -0.400019
v 0.328913 3.720925 -0.355553
v -0.070147 3.920455 0.243130
v -0.242116 3.920455 0.070148
v 0.129383 3.920455 0.227181
v 0.328913 3.920455 0.200124
v 0.528226 3.920455 0.070148
v -0.241884 3.920455 -0.129382
v 0.510259 3.920455 -0.129382
v -0.196183 3.920455 -0.328912
v 0.422768 3.920455 -0.328912
v -0.070147 3.920455 -0.483182
v 0.129383 3.920455 -0.485823
v 0.328913 3.920455 -0.430124
v -0.070147 4.119985 0.224359
v -0.224274 4.119985 0.070148
v 0.129383 4.119985 0.222594
v 0.328913 4.119985 0.184662
v 0.455700 4.119985 0.070148
v -0.227026 4.119985 -0.129382
v 0.455215 4.119985 -0.129382
v -0.185030 4.119985 -0.328912
v 0.394719 4.119985 -0.328912
v -0.070147 4.119985 -0.467854
v 0.129383 4.119985 -0.468075
v 0.328913 4.119985 -0.394175
v -0.070147 4.245188 0.070148
v 0.129383 4.245188 0.070148
v 0.328913 4.222364 0.070148
v -0.070147 4.245188 -0.129382
v 0.129383 4.245188 -0.129382
v 0.328913 4.219498 -0.129382
v -0.070147 4.223191 -0.328912
v 0.129383 4.221545 -0.328912
v 0.328913 4.176530 -0.328912
vn -0.6024 -0.4790 0.6385
vn 0.2502 -0.5810 0.7745
vn -0.7553 -0.6007 0.2620
vn -0.8307 -0.5107 0.2216
vn 0.3469 -0.8056 0.4803
vn 0.3280 -0.8288 0.4533
vn 0.2528 -0.8868 0.3868
vn 0.6481 -0.6681 0.3654
vn -0.7208 -0.4431 -0.5330
vn 0.1793 -0.6289 -0.7565
vn 0.1336 -0.7259 -0.6747
vn 0.5792 -0.5971 -0.5550
vn -0.6589 -0.3973 0.6387
vn -0.6341 -0.3821 0.6722
vn 0.1698 -0.6021 0.7801
vn 0.2362 -0.6400 0.7312
vn 0.0592 -0.5273 0.8476
vn 0.2332 -0.6908 0.6844
vn 0.1326 -0.6056 0.7846
vn 0.4108 -0.6477 0.6417
vn -0.8350 -0.5031 0.2227
vn -0.9443 -0.3290 0.0119
vn 0.2541 -0.9010 0.3517
vn 0.5420 -0.7828 0.3056
vn 0.4963 -0.8123 0.3063
vn 0.3183 -0.9429 0.0978
vn 0.5354 -0.8442 0.0254
vn 0.5961 -0.7986 0.0828
vn -0.7015 -0.4887 -0.5187
vn -0.6442 -0.5426 -0.5391
vn -0.8984 -0.3130 -0.3082
vn 0.1218 -0.7790 -0.6151
vn -0.0103 -0.6857 -0.7278
vn 0.4664 -0.7634 -0.4469
vn 0.4522 -0.7000 -0.5528
vn 0.2248 -0.9074 -0.3552
vn 0.5707 -0.7645 -0.2999
vn 0.5739 -0.7626 -0.2985
vn -0.6362 -0.5359 -0.5550
vn -0.0104 -0.6945 -0.7194
vn -0.0259 -0.7176 -0.6959
vn 0.1751 -0.7068 -0.6854
vn 0.1306 -0.7996 -0.5861
vn 0.5189 -0.6895 -0.5054
vn -0.6993 -0.1660 0.6952
vn -0.7065 -0.1787 0.6848
vn 0.0680 -0.2225 0.9726
vn 0.0775 -0.2316 0.9697
vn 0.1613 -0.2503 0.9546
vn 0.1310 -0.2211 0.9664
vn 0.5265 -0.2156 0.8224
vn 0.5342 -0.2088 0.8192
vn -0.9694 -0.2452 0.0122
vn -0.9726 -0.2326 -0.0011
vn 0.9305 -0.3637 0.0442
vn 0.9657 -0.2447 -0.0870
vn -0.9226 -0.2207 -0.3165
vn -0.9217 -0.3255 -0.2111
vn 0.8638 -0.2188 -0.4539
vn 0.8743 -0.2976 -0.3834
vn -0.7470 -0.2638 -0.6103
vn -0.7221 -0.2860 -0.6299
vn -0.0341 -0.3948 -0.9181
vn -0.0120 -0.4134 -0.9105
vn 0.2043 -0.3427 -0.9170
vn 0.2484 -0.3827 -0.8899
vn 0.6960 -0.2369 -0.6779
vn 0.7107 -0.2463 -0.6590
vn -0.7057 0.0664 0.7054
vn -0.7078 0.0633 0.7036
vn 0.0797 0.0229 0.9966
vn 0.0088 0.0937 0.9956
vn 0.1340 0.0766 0.9880
vn 0.1867 0.0226 0.9822
vn 0.5451 0.0648 0.8359
vn 0.6512 0.2367 0.7210
vn -0.9960 0.0891 -0.0012
vn -0.9971 0.0743 0.0138
vn 0.9365 0.3404 -0.0843
vn 0.9640 0.2659 -0.0023
vn -0.9722 0.0724 -0.2227
vn -0.9771 0.0546 -0.2057
vn 0.8879 0.2449 -0.3893
vn 0.9484 0.1333 -0.2876
vn -0.7700 0.0430 -0.6366
vn -0.7735 0.0485 -0.6319
vn -0.0132 0.0886 -0.9960
vn -0.0011 0.0766 -0.9971
vn 0.2649 0.1710 -0.9490
vn 0.3461 0.0831 -0.9345
vn 0.7294 0.1025 -0.6764
vn 0.6985 0.1269 -0.7043
vn -0.5334 0.6567 0.5331
vn 0.0056 0.7728 0.6347
vn 0.0000 0.7763 0.6303
vn 0.1257 0.7396 0.6612
vn 0.0881 0.7698 0.6322
vn 0.5157 0.6387 0.5710
vn -0.6238 0.7816 0.0000
vn -0.6305 0.7761 0.0087
vn 0.0000 1.0000 0.0000
vn 0.1136 0.9934 -0.0143
vn 0.1277 0.9918 0.0000
vn 0.6189 0.7855 -0.0015
vn 0.6282 0.7780 -0.0112
vn -0.6661 0.7414 -0.0817
vn -0.6185 0.7749 -0.1302
vn 0.0000 0.9931 -0.1177
vn 0.0082 0.9939 -0.1096
vn 0.1249 0.9699 -0.2089
vn 0.2186 0.9690 -0.1148
vn 0.6394 0.7441 -0.1939
vn 0.6102 0.7745 -0.1668
vn -0.5849 0.6511 -0.4836
vn -0.0007 0.8028 -0.5963
vn 0.0067 0.8078 -0.5895
vn 0.2133 0.7892 -0.5759
vn 0.1681 0.7450 -0.6455
vn 0.5446 0.6339 -0.5492
s off
f 3//1 1//1 2//1
f 1//2 3//2 4//2
f 6//3 3//3 2//3
f 5//4 6//4 2//4
f 7//5 4//5 3//5
f 7//6 3//6 8//6
f 8//7 3//7 6//7
f 7//8 8//8 9//8
f 6//9 5//9 10//9
f 8//10 6//10 10//10
f 11//11 8//11 10//11
f 9//12 8//12 11//12
f 1//13 12//13 13//13
f 2//14 1//14 13//14
f 4//15 15//15 14//15
f 4//16 14//16 1//16
f 1//17 14//17 12//17
f 15//18 17//18 16//18
f 14//19 15//19 16//19
f 16//20 17//20 18//20
f 2//21 13//21 5//21
f 13//22 19//22 5//22
f 4//23 7//23 15//23
f 9//24 15//24 7//24
f 9//25 20//25 15//25
f 20//26 17//26 15//26
f 21//27 18//27 17//27
f 20//28 21//28 17//28
f 23//29 10//29 5//29
f 23//30 5//30 22//30
f 22//31 5//31 19//31
f 10//32 24//32 11//32
f 23//33 24//33 10//33
f 11//34 20//34 9//34
f 11//35 24//35 20//35
f 24//36 25//36 20//36
f 26//37 21//37 20//37
f 25//38 26//38 20//38
f 23//39 22//39 27//39
f 24//40 23//40 27//40
f 28//41 24//41 27//41
f 25//42 24//42 28//42
f 29//43 25//43 28//43
f 26//44 25//44 29//44
f 12//45 30//45 31//45
f 13//46 12//46 31//46
f 14//47 32//47 12//47
f 12//48 32//48 30//48
f 16//49 33//49 14//49
f 14//50 33//50 32//50
f 33//51 16//51 18//51
f 34//52 33//52 18//52
f 13//53 31//53 19//53
f 31//54 35//54 19//54
f 18//55 21//55 34//55
f 34//56 21//56 36//56
f 19//57 35//57 22//57
f 35//58 37//58 22//58
f 21//59 26//59 36//59
f 36//60 26//60 38//60
f 22//61 37//61 39//61
f 27//62 22//62 39//62
f 28//63 27//63 40//63
f 27//64 39//64 40//64
f 29//65 28//65 41//65
f 28//66 40//66 41//66
f 38//67 26//67 29//67
f 41//68 38//68 29//68
f 30//69 42//69 43//69
f 31//70 30//70 43//70
f 32//71 44//71 30//71
f 30//72 44//72 42//72
f 33//73 45//73 32//73
f 32//74 45//74 44//74
f 45//75 33//75 34//75
f 46//76 45//76 34//76
f 31//77 43//77 35//77
f 43//78 47//78 35//78
f 34//79 36//79 46//79
f 46//80 36//80 48//80
f 35//81 47//81 37//81
f 47//82 49//82 37//82
f 36//83 38//83 48//83
f 48//84 38//84 50//84
f 37//85 49//85 51//85
f 39//86 37//86 51//86
f 40//87 39//87 52//87
f 39//88 51//88 52//88
f 41//89 40//89 53//89
f 40//90 52//90 53//90
f 50//91 38//91 41//91
f 53//92 50//92 41//92
f 42//93 54//93 43//93
f 42//94 44//94 55//94
f 54//95 42//95 55//95
f 44//96 45//96 56//96
f 55//97 44//97 56//97
f 45//98 46//98 56//98
f 54//99 57//99 47//99
f 43//100 54//100 47//100
f 55//101 58//101 54//101
f 58//101 57//101 54//101
f 56//102 59//102 55//102
f 59//103 58//103 55//103
f 46//104 48//104 59//104
f 56//105 46//105 59//105
f 57//106 60//106 49//106
f 47//107 57//107 49//107
f 58//108 61//108 57//108
f 61//109 60//109 57//109
f 59//110 62//110 58//110
f 62//111 61//111 58//111
f 48//112 50//112 62//112
f 59//113 48//113 62//113
f 49//114 60//114 51//114
f 52//115 51//115 60//115
f 61//116 52//116 60//116
f 53//117 52//117 61//117
f 62//118 53//118 61//118
f 50//119 53//119 62//119
