# Blender v2.78 (sub 0) OBJ File: 'fluid_test.blend'
# www.blender.org
o Area_Cube
v -0.070147 3.720925 0.137387
v -0.137260 3.720925 0.070148
v -0.070147 3.683562 0.070148
v 0.129383 3.720925 0.101524
v 0.129383 3.704305 0.070148
v 0.328913 3.720925 0.124342
v 0.328913 3.687346 0.070148
v 0.390777 3.720925 0.070148
v -0.100145 3.720925 -0.129382
v -0.070147 3.705022 -0.129382
v 0.129383 3.720925 -0.035609
v 0.033222 3.720925 -0.129382
v 0.213115 3.720925 -0.129382
v 0.328913 3.700922 -0.129382
v 0.366034 3.720925 -0.129382
v -0.123937 3.720925 -0.328912
v -0.070147 3.687597 -0.328912
v 0.129383 3.720925 -0.215770
v 0.129383 3.701851 -0.328912
v 0.328913 3.706204 -0.328912
v 0.354452 3.720925 -0.328912
v -0.070147 3.720925 -0.390408
v 0.129383 3.720925 -0.364398
v 0.328913 3.720925 -0.354412
v -0.070147 3.920455 0.271301
v -0.072176 3.920455 0.269679
v -0.070147 3.917712 0.269679
v -0.047595 3.920455 0.269679
v -0.269677 3.920455 0.072003
v -0.271159 3.920455 0.070148
v -0.269677 3.917954 0.070148
v 0.129383 3.920455 0.258251
v 0.328913 3.920455 0.247975
v 0.528443 3.920455 0.072520
v 0.528443 3.917230 0.070148
v 0.530337 3.920455 0.070148
v -0.269677 3.920455 0.049883
v -0.257918 3.920455 -0.129382
v 0.129383 3.740140 -0.129382
v 0.528443 3.920455 0.044942
v 0.515746 3.920455 -0.129382
v -0.247934 3.920455 -0.328912
v 0.503154 3.920455 -0.328912
v -0.073112 3.920455 -0.528442
v -0.070147 3.916422 -0.528442
v 0.129383 3.920455 -0.515890
v -0.039088 3.920455 -0.528442
v 0.328913 3.920455 -0.503053
v -0.070147 3.920455 -0.530814
v -0.070147 3.934852 0.269679
v -0.269677 3.933661 0.070148
v -0.070147 4.119985 0.254757
v -0.254733 4.119985 0.070148
v 0.129383 4.119985 0.246207
v 0.328913 4.119985 0.237396
v 0.509396 4.119985 0.070148
v 0.528443 3.937098 0.070148
v -0.246181 4.119985 -0.129382
v 0.498213 4.119985 -0.129382
v -0.237400 4.119985 -0.328912
v 0.489605 4.119985 -0.328912
v -0.070147 4.119985 -0.509420
v -0.070147 3.940921 -0.528442
v 0.129383 4.119985 -0.498317
v 0.328913 4.119985 -0.489717
v -0.070147 4.245172 0.070148
v 0.129383 4.245188 0.070148
v 0.328913 4.229243 0.070148
v -0.070147 4.245188 -0.129382
v 0.129383 4.245188 -0.129382
v 0.328913 4.228156 -0.129382
v -0.070147 4.229243 -0.328912
v 0.129383 4.228164 -0.328912
v 0.328913 4.216404 -0.328912
vn -0.4376 -0.7860 0.4368
vn 0.0915 -0.8800 0.4661
vn 0.0870 -0.8708 0.4839
vn -0.0721 -0.8478 0.5253
vn -0.0535 -0.8824 0.4674
vn 0.4189 -0.7719 0.4783
vn -0.4843 -0.8699 -0.0936
vn -0.4666 -0.8802 -0.0868
vn 0.1497 -0.9767 -0.1535
vn 0.1503 -0.9766 -0.1538
vn 0.1028 -0.9890 -0.1064
vn -0.1683 -0.9742 -0.1503
vn -0.1695 -0.9736 -0.1530
vn -0.0845 -0.9941 -0.0676
vn 0.4762 -0.8773 -0.0591
vn 0.4735 -0.8787 -0.0598
vn -0.4670 -0.8809 0.0769
vn -0.5257 -0.8484 0.0627
vn 0.1499 -0.9745 0.1669
vn 0.1489 -0.9751 0.1644
vn 0.0710 -0.9937 0.0868
vn -0.1690 -0.9719 0.1638
vn -0.1679 -0.9722 0.1634
vn 0.0218 -0.9994 -0.0265
vn 0.4742 -0.8800 -0.0275
vn 0.4992 -0.8662 -0.0229
vn -0.4784 -0.7721 -0.4184
vn 0.0627 -0.8775 -0.4755
vn 0.0616 -0.8791 -0.4726
vn 0.0192 -0.8807 -0.4734
vn 0.0250 -0.8658 -0.4998
vn 0.4466 -0.7749 -0.4473
vn -0.5668 -0.4193 0.7092
vn 0.0618 -0.5080 0.8591
vn -0.7089 -0.4201 0.5666
vn -0.6266 -0.4642 0.6261
vn -0.6268 -0.4636 0.6263
vn -0.6389 -0.4294 0.6383
vn -0.6393 -0.4290 0.6381
vn 0.0569 -0.4682 0.8818
vn 0.0551 -0.5571 0.8286
vn 0.1400 -0.6116 0.7787
vn -0.0968 -0.5242 0.8461
vn 0.0405 -0.6172 0.7858
vn 0.6454 -0.4526 0.6154
vn 0.5978 -0.4206 0.6824
vn 0.5987 -0.4219 0.6809
vn 0.7101 -0.4172 0.5672
vn -0.8586 -0.5088 -0.0628
vn -0.8280 -0.5565 -0.0686
vn -0.8294 -0.5560 -0.0544
vn -0.7762 -0.6137 -0.1444
vn 0.1921 -0.9614 -0.1970
vn -0.2193 -0.9558 -0.1959
vn 0.8673 -0.4938 -0.0632
vn 0.8172 -0.5731 -0.0613
vn 0.7960 -0.5972 -0.0987
vn 0.8604 -0.5054 -0.0647
vn -0.7810 -0.6176 0.0931
vn -0.8486 -0.5273 -0.0425
vn 0.1915 -0.9581 0.2131
vn -0.2186 -0.9525 0.2119
vn 0.7990 -0.5995 -0.0464
vn 0.8008 -0.5968 -0.0505
vn -0.6826 -0.4215 -0.5970
vn -0.6298 -0.4631 -0.6235
vn -0.6814 -0.4234 -0.5970
vn 0.0747 -0.5752 -0.8146
vn 0.0608 -0.5743 -0.8164
vn 0.1033 -0.6015 -0.7922
vn 0.0401 -0.5969 -0.8013
vn 0.0512 -0.6039 -0.7954
vn 0.6252 -0.4659 -0.6261
vn 0.6254 -0.4662 -0.6258
vn -0.5676 -0.4174 -0.7096
vn 0.0657 -0.5059 -0.8601
vn -0.6221 0.0877 0.7780
vn 0.0713 0.1117 0.9912
vn -0.7782 0.0873 0.6220
vn -0.8662 0.0695 0.4949
vn -0.7062 0.0594 0.7055
vn -0.7059 0.0600 0.7058
vn -0.4952 0.0698 0.8659
vn 0.0512 0.0802 0.9955
vn 0.0642 0.0816 0.9946
vn 0.0427 0.0602 0.9973
vn 0.0514 0.0529 0.9973
vn 0.0440 0.0602 0.9972
vn 0.6780 0.0706 0.7317
vn 0.6922 0.1018 0.7145
vn 0.6598 0.0398 0.7504
vn 0.7783 0.0886 0.6216
vn -0.9911 0.1112 -0.0725
vn -0.9929 0.0999 -0.0651
vn -0.9948 0.0798 -0.0639
vn -0.9974 0.0587 -0.0427
vn 0.9923 0.1033 -0.0682
vn 0.9920 0.1038 -0.0723
vn 0.9946 0.0874 -0.0557
vn 0.9908 0.1128 -0.0745
vn -0.9970 0.0586 -0.0499
vn -0.9976 0.0527 -0.0439
vn 0.9942 0.0874 -0.0627
vn 0.9968 0.0677 -0.0430
vn -0.5891 0.0854 -0.8035
vn -0.7314 0.0755 -0.6777
vn -0.7515 0.0397 -0.6585
vn 0.0738 0.1120 -0.9910
vn 0.0732 0.1054 -0.9917
vn 0.0553 0.0876 -0.9946
vn 0.0641 0.0666 -0.9957
vn 0.0429 0.0876 -0.9952
vn 0.7061 0.0479 -0.7065
vn 0.7066 0.0472 -0.7061
vn -0.6221 0.0901 -0.7777
vn 0.0756 0.1148 -0.9905
vn -0.4895 0.7217 0.4894
vn 0.0248 0.8147 0.5794
vn -0.0001 0.8276 0.5612
vn 0.0241 0.8369 0.5468
vn 0.0650 0.8132 0.5783
vn 0.4521 0.7468 0.4878
vn -0.5796 0.8149 0.0001
vn -0.5611 0.8274 -0.0241
vn -0.0001 1.0000 0.0000
vn 0.0000 1.0000 0.0001
vn 0.0797 0.9968 -0.0054
vn 0.0851 0.9964 0.0000
vn 0.5382 0.8423 -0.0302
vn 0.5179 0.8555 -0.0047
vn -0.5457 0.8353 -0.0668
vn -0.5794 0.8146 -0.0255
vn 0.0000 0.9964 -0.0850
vn 0.0054 0.9968 -0.0797
vn 0.0849 0.9947 -0.0586
vn 0.0586 0.9947 -0.0849
vn 0.5144 0.8573 -0.0222
vn 0.5378 0.8416 -0.0496
vn -0.4878 0.7468 -0.4520
vn 0.0288 0.8551 -0.5176
vn 0.0046 0.8428 -0.5382
vn 0.0232 0.8426 -0.5381
vn 0.0505 0.8565 -0.5136
vn 0.4576 0.7626 -0.4573
s off
f 3//1 1//1 2//1
f 3//2 5//2 4//2
f 1//3 3//3 4//3
f 5//4 7//4 6//4
f 4//5 5//5 6//5
f 6//6 7//6 8//6
f 10//7 3//7 2//7
f 9//8 10//8 2//8
f 12//9 11//9 5//9
f 12//10 5//10 10//10
f 10//11 5//11 3//11
f 11//12 13//12 14//12
f 11//13 14//13 5//13
f 5//14 14//14 7//14
f 15//15 8//15 7//15
f 14//16 15//16 7//16
f 17//17 10//17 9//17
f 16//18 17//18 9//18
f 18//19 12//19 10//19
f 18//20 10//20 19//20
f 19//21 10//21 17//21
f 13//22 18//22 19//22
f 13//23 19//23 14//23
f 14//24 19//24 20//24
f 21//25 15//25 14//25
f 20//26 21//26 14//26
f 17//27 16//27 22//27
f 19//28 17//28 22//28
f 23//29 19//29 22//29
f 20//30 19//30 23//30
f 24//31 20//31 23//31
f 21//32 20//32 24//32
f 27//33 25//33 26//33
f 25//34 27//34 28//34
f 31//35 29//35 30//35
f 26//36 29//36 31//36
f 27//37 26//37 31//37
f 27//38 31//38 2//38
f 27//39 2//39 1//39
f 27//40 32//40 28//40
f 27//41 1//41 32//41
f 1//42 4//42 32//42
f 6//43 33//43 4//43
f 4//44 33//44 32//44
f 8//45 35//45 34//45
f 8//46 34//46 6//46
f 6//47 34//47 33//47
f 34//48 35//48 36//48
f 31//49 30//49 37//49
f 37//50 2//50 31//50
f 37//51 38//51 2//51
f 38//52 9//52 2//52
f 11//53 12//53 39//53
f 11//54 39//54 13//54
f 35//55 41//55 40//55
f 35//56 8//56 41//56
f 8//57 15//57 41//57
f 36//58 35//58 40//58
f 9//59 38//59 16//59
f 38//60 42//60 16//60
f 12//61 18//61 39//61
f 13//62 39//62 18//62
f 15//63 21//63 41//63
f 41//64 21//64 43//64
f 45//65 22//65 16//65
f 45//66 16//66 44//66
f 44//67 16//67 42//67
f 47//68 22//68 45//68
f 47//69 46//69 22//69
f 46//70 23//70 22//70
f 24//71 23//71 48//71
f 23//72 46//72 48//72
f 43//73 21//73 24//73
f 48//74 43//74 24//74
f 45//75 44//75 49//75
f 47//76 45//76 49//76
f 25//77 50//77 26//77
f 25//78 28//78 50//78
f 29//79 51//79 30//79
f 29//80 53//80 51//80
f 26//81 53//81 29//81
f 26//82 52//82 53//82
f 26//83 50//83 52//83
f 28//84 52//84 50//84
f 28//85 32//85 52//85
f 32//86 54//86 52//86
f 33//87 55//87 32//87
f 32//88 55//88 54//88
f 57//89 56//89 55//89
f 57//90 55//90 34//90
f 34//91 55//91 33//91
f 34//92 36//92 57//92
f 30//93 51//93 37//93
f 51//94 38//94 37//94
f 51//95 53//95 38//95
f 53//96 58//96 38//96
f 40//97 56//97 57//97
f 40//98 41//98 56//98
f 41//99 59//99 56//99
f 36//100 40//100 57//100
f 38//101 58//101 42//101
f 58//102 60//102 42//102
f 41//103 43//103 59//103
f 59//104 43//104 61//104
f 62//105 63//105 44//105
f 62//106 44//106 60//106
f 60//107 44//107 42//107
f 63//108 46//108 47//108
f 63//109 62//109 46//109
f 62//110 64//110 46//110
f 48//111 46//111 65//111
f 46//112 64//112 65//112
f 61//113 43//113 48//113
f 65//114 61//114 48//114
f 44//115 63//115 49//115
f 47//116 49//116 63//116
f 52//117 66//117 53//117
f 52//118 54//118 67//118
f 66//119 52//119 67//119
f 54//120 55//120 68//120
f 67//121 54//121 68//121
f 55//122 56//122 68//122
f 66//123 69//123 58//123
f 53//124 66//124 58//124
f 67//125 70//125 66//125
f 70//126 69//126 66//126
f 68//127 71//127 67//127
f 71//128 70//128 67//128
f 56//129 59//129 71//129
f 68//130 56//130 71//130
f 69//131 72//131 60//131
f 58//132 69//132 60//132
f 70//133 73//133 69//133
f 73//134 72//134 69//134
f 71//135 74//135 70//135
f 74//136 73//136 70//136
f 59//137 61//137 74//137
f 71//138 59//138 74//138
f 60//139 72//139 62//139
f 64//140 62//140 72//140
f 73//141 64//141 72//141
f 65//142 64//142 73//142
f 74//143 65//143 73//143
f 61//144 65//144 74//144
