# Blender v2.78 (sub 0) OBJ File: 'fluid_test.blend'
# www.blender.org
o Area_Cube
v -0.070147 0.927505 0.100394
v -0.103479 0.927505 0.070148
v -0.070147 0.892282 0.070148
v 0.128096 0.927505 0.070148
v -0.182065 0.927505 -0.129382
v -0.070147 0.815755 -0.129382
v 0.129383 0.927505 0.069723
v 0.129383 0.845972 -0.129382
v 0.206422 0.927505 -0.129382
v -0.088941 0.927505 -0.328912
v -0.070147 0.909497 -0.328912
v 0.129383 0.927505 -0.282601
v -0.000239 0.927505 -0.328912
v -0.070147 0.927505 -0.350206
v -0.070147 1.127035 0.087457
v -0.088653 1.127035 0.070148
v 0.129383 1.127035 0.088502
v 0.129383 0.929762 0.070148
v 0.148995 1.127035 0.070148
v -0.162781 1.127035 -0.129382
v 0.224033 1.127035 -0.129382
v -0.108806 1.127035 -0.328912
v 0.129383 1.035332 -0.328912
v 0.155619 1.127035 -0.328912
v -0.070147 1.127035 -0.375589
v 0.129383 1.127035 -0.360961
v -0.070147 1.146488 0.070148
v 0.129383 1.149172 0.070148
v -0.070147 1.217211 -0.129382
v 0.129383 1.233138 -0.129382
v -0.070147 1.170349 -0.328912
v 0.129383 1.162171 -0.328912
v -0.070147 2.324215 -0.022239
v -0.114737 2.324215 -0.129382
v -0.070147 2.242408 -0.129382
v 0.040887 2.324215 -0.129382
v -0.070147 2.324215 -0.173651
v -0.070147 2.398211 -0.129382
v -0.070147 3.720925 0.097820
v -0.099350 3.720925 0.070148
v -0.070147 3.691490 0.070148
v 0.129383 3.720925 0.096420
v 0.129383 3.689811 0.070148
v 0.159454 3.720925 0.070148
v -0.154815 3.720925 -0.129382
v -0.070147 3.632958 -0.129382
v 0.129383 3.570354 -0.129382
v 0.248504 3.720925 -0.129382
v -0.070147 3.720925 -0.239785
v 0.129383 3.720925 -0.281695
v -0.070147 3.920455 0.196051
v -0.189348 3.920455 0.070148
v 0.129383 3.920455 0.232116
v 0.328913 3.920455 0.115466
v 0.328913 3.871394 0.070148
v 0.394466 3.920455 0.070148
v -0.233968 3.920455 -0.129382
v 0.328913 3.830931 -0.129382
v 0.457219 3.920455 -0.129382
v -0.139177 3.920455 -0.328912
v -0.070147 3.821288 -0.328912
v 0.129383 3.778525 -0.328912
v 0.328913 3.920455 -0.280412
v 0.291479 3.920455 -0.328912
v -0.070147 3.920455 -0.434151
v 0.129383 3.920455 -0.480150
v -0.070147 4.119985 0.215207
v -0.208573 4.119985 0.070148
v 0.129383 4.119985 0.229449
v 0.328913 4.119985 0.183200
v 0.463885 4.119985 0.070148
v -0.218912 4.119985 -0.129382
v 0.481833 4.119985 -0.129382
v -0.171963 4.119985 -0.328912
v 0.328913 4.000868 -0.328912
v 0.371241 4.119985 -0.328912
v -0.070147 4.119985 -0.464563
v 0.129383 4.119985 -0.467842
v 0.328913 4.119985 -0.370939
v -0.070147 4.244844 0.070148
v 0.129383 4.245188 0.070148
v 0.328913 4.222750 0.070148
v -0.070147 4.245188 -0.129382
v 0.129383 4.245188 -0.129382
v 0.328913 4.225709 -0.129382
v -0.070147 4.223127 -0.328912
v 0.129383 4.222915 -0.328912
v 0.328913 4.159852 -0.328912
vn -0.5670 -0.5366 0.6249
vn 0.1150 -0.6471 0.7536
vn -0.7023 -0.6646 0.2549
vn -0.6807 -0.6817 0.2681
vn 0.1546 -0.8704 0.4674
vn 0.1620 -0.9132 0.3740
vn 0.1400 -0.9245 0.3546
vn 0.6997 -0.6611 0.2707
vn -0.6705 -0.6715 -0.3155
vn -0.6584 -0.6871 -0.3073
vn 0.1655 -0.8706 -0.4633
vn 0.2179 -0.8457 -0.4871
vn 0.1358 -0.8967 -0.4213
vn 0.6827 -0.6451 -0.3433
vn -0.5905 -0.6163 -0.5211
vn 0.1930 -0.7492 -0.6336
vn -0.6823 0.0473 0.7295
vn -0.6712 0.0499 0.7396
vn 0.1604 -0.0914 0.9828
vn 0.1502 -0.0915 0.9844
vn -0.0052 0.0647 0.9979
vn 0.6817 -0.0678 0.7285
vn -0.9282 0.0690 0.3656
vn -0.9336 0.0902 0.3468
vn 0.3091 -0.1762 0.9345
vn 0.9305 -0.0679 0.3600
vn 0.9285 -0.0923 0.3596
vn 0.9328 -0.0823 0.3508
vn -0.9027 0.0872 -0.4213
vn -0.9609 -0.0957 -0.2599
vn 0.3119 -0.3749 -0.8730
vn 0.8096 -0.2316 -0.5393
vn 0.8722 -0.2165 -0.4386
vn 0.9427 -0.0832 -0.3232
vn -0.7679 -0.0765 -0.6360
vn -0.7471 -0.0839 -0.6594
vn 0.2750 -0.3306 -0.9028
vn 0.2688 -0.3178 -0.9093
vn 0.0725 -0.1259 -0.9894
vn 0.7555 -0.2161 -0.6185
vn -0.5728 0.5449 0.6124
vn -0.0040 0.6382 0.7698
vn -0.0089 0.6647 0.7471
vn 0.5845 0.5178 0.6246
vn -0.6761 0.6945 0.2462
vn -0.6996 0.6655 0.2599
vn -0.0124 0.9216 0.3878
vn -0.0750 0.9399 0.3331
vn 0.7185 0.6409 0.2702
vn 0.7210 0.6387 0.2688
vn -0.7371 0.6579 -0.1545
vn -0.6854 0.7041 -0.1854
vn -0.0750 0.9395 -0.3342
vn 0.0399 0.9727 -0.2285
vn 0.7726 0.5769 -0.2649
vn 0.7262 0.6478 -0.2304
vn -0.6347 0.5665 -0.5256
vn 0.0498 0.7321 -0.6794
vn 0.0276 0.6736 -0.7385
vn 0.6700 0.5003 -0.5485
vn -0.8247 -0.4495 0.3432
vn 0.5053 -0.6859 0.5237
vn -0.6577 -0.3585 -0.6625
vn 0.3309 -0.4491 -0.8299
vn -0.8068 0.4862 0.3358
vn 0.4808 0.7215 0.4983
vn -0.6485 0.3908 -0.6532
vn 0.3237 0.4858 -0.8119
vn -0.5681 -0.5637 0.5996
vn -0.0054 -0.6451 0.7640
vn 0.0051 -0.6849 0.7286
vn 0.5552 -0.5366 0.6355
vn -0.6952 -0.6897 0.2023
vn -0.7065 -0.6800 0.1964
vn -0.0072 -0.8580 0.5137
vn -0.2883 -0.9188 0.2695
vn 0.6847 -0.6617 0.3056
vn 0.7352 -0.5816 0.3482
vn -0.6306 -0.6070 -0.4836
vn -0.2383 -0.7596 -0.6052
vn -0.1461 -0.7035 -0.6955
vn 0.6685 -0.5289 -0.5228
vn -0.6878 -0.3206 0.6512
vn -0.6569 -0.2963 0.6933
vn 0.0058 -0.5623 0.8269
vn -0.1601 -0.4360 0.8856
vn 0.5161 -0.5812 0.6292
vn 0.5315 -0.5895 0.6083
vn 0.4352 -0.5063 0.7445
vn 0.4528 -0.6050 0.6550
vn -0.8836 -0.3986 0.2456
vn -0.9101 -0.3610 0.2035
vn 0.8016 -0.5859 0.1188
vn 0.6366 -0.7169 0.2841
vn 0.5888 -0.7868 0.1852
vn 0.5645 -0.8090 0.1641
vn -0.6981 -0.4754 -0.5354
vn -0.6926 -0.4822 -0.5364
vn -0.8503 -0.3373 -0.4040
vn -0.1603 -0.6258 -0.7634
vn -0.1409 -0.6574 -0.7403
vn 0.4853 -0.5543 -0.6762
vn 0.6194 -0.6178 -0.4844
vn 0.6237 -0.6158 -0.4814
vn 0.7621 -0.5570 -0.3302
vn 0.5146 -0.7376 -0.4372
vn -0.7227 -0.5030 -0.4740
vn -0.1541 -0.7191 -0.6776
vn -0.1558 -0.7203 -0.6760
vn 0.5381 -0.6146 -0.5768
vn -0.7219 -0.0661 0.6889
vn -0.7244 -0.0698 0.6858
vn -0.1779 0.0132 0.9840
vn -0.0709 -0.0953 0.9929
vn 0.4843 -0.2812 0.8285
vn 0.2258 0.0130 0.9741
vn 0.5477 -0.2689 0.7923
vn 0.6267 -0.2180 0.7482
vn -0.9716 -0.0936 0.2173
vn -0.9958 0.0751 0.0516
vn 0.9054 -0.3150 0.2847
vn 0.9885 -0.1219 0.0889
vn -0.9012 0.0680 -0.4281
vn -0.9612 -0.1579 -0.2262
vn 0.7428 -0.3458 -0.5733
vn 0.8238 -0.2927 -0.4854
vn 0.7261 -0.3040 -0.6168
vn 0.8696 -0.1073 -0.4820
vn -0.7930 -0.1303 -0.5952
vn -0.8333 -0.0833 -0.5466
vn -0.2242 0.0600 -0.9727
vn -0.0162 -0.1507 -0.9885
vn 0.6502 -0.3027 -0.6969
vn 0.6472 -0.2537 -0.7189
vn 0.4362 0.0554 -0.8981
vn 0.6835 -0.2429 -0.6884
vn -0.5644 0.6257 0.5385
vn -0.0441 0.7855 0.6173
vn -0.0013 0.7579 0.6524
vn 0.1540 0.7311 0.6646
vn 0.0881 0.7832 0.6155
vn 0.4909 0.6447 0.5860
vn -0.6439 0.7651 0.0013
vn -0.6694 0.7421 0.0347
vn -0.0017 1.0000 0.0000
vn 0.0000 1.0000 0.0017
vn 0.1117 0.9936 0.0147
vn 0.0972 0.9953 0.0000
vn 0.5679 0.8215 0.0511
vn 0.6057 0.7956 0.0118
vn -0.7095 0.7004 -0.0774
vn -0.6367 0.7565 -0.1498
vn 0.0000 0.9938 -0.1109
vn 0.0011 0.9939 -0.1099
vn 0.0923 0.9456 -0.3121
vn 0.2997 0.9482 -0.1058
vn 0.6409 0.6805 -0.3552
vn 0.5488 0.7938 -0.2620
vn -0.6277 0.6197 -0.4712
vn -0.0099 0.7960 -0.6052
vn 0.0009 0.8035 -0.5953
vn 0.2777 0.7719 -0.5719
vn 0.2235 0.7072 -0.6708
vn 0.5642 0.5990 -0.5682
s off
f 3//1 1//1 2//1
f 1//2 3//2 4//2
f 6//3 3//3 2//3
f 5//4 6//4 2//4
f 7//5 4//5 3//5
f 7//6 3//6 8//6
f 8//7 3//7 6//7
f 7//8 8//8 9//8
f 11//9 6//9 5//9
f 10//10 11//10 5//10
f 13//11 12//11 8//11
f 13//12 8//12 11//12
f 11//13 8//13 6//13
f 9//14 8//14 12//14
f 11//15 10//15 14//15
f 13//16 11//16 14//16
f 1//17 15//17 16//17
f 2//18 1//18 16//18
f 4//19 18//19 17//19
f 4//20 17//20 1//20
f 1//21 17//21 15//21
f 17//22 18//22 19//22
f 2//23 16//23 5//23
f 16//24 20//24 5//24
f 4//25 7//25 18//25
f 18//26 7//26 9//26
f 18//27 9//27 19//27
f 19//28 9//28 21//28
f 5//29 20//29 10//29
f 20//30 22//30 10//30
f 12//31 13//31 23//31
f 12//32 23//32 24//32
f 12//33 24//33 9//33
f 9//34 24//34 21//34
f 10//35 22//35 25//35
f 14//36 10//36 25//36
f 23//37 13//37 14//37
f 23//38 14//38 26//38
f 26//39 14//39 25//39
f 24//40 23//40 26//40
f 15//41 27//41 16//41
f 15//42 17//42 28//42
f 27//43 15//43 28//43
f 17//44 19//44 28//44
f 27//45 29//45 20//45
f 16//46 27//46 20//46
f 28//47 30//47 27//47
f 30//48 29//48 27//48
f 19//49 21//49 30//49
f 28//50 19//50 30//50
f 29//51 31//51 22//51
f 20//52 29//52 22//52
f 30//53 32//53 29//53
f 32//54 31//54 29//54
f 21//55 24//55 32//55
f 30//56 21//56 32//56
f 22//57 31//57 25//57
f 26//58 25//58 31//58
f 32//59 26//59 31//59
f 24//60 26//60 32//60
f 35//61 33//61 34//61
f 33//62 35//62 36//62
f 35//63 34//63 37//63
f 36//64 35//64 37//64
f 33//65 38//65 34//65
f 33//66 36//66 38//66
f 34//67 38//67 37//67
f 36//68 37//68 38//68
f 41//69 39//69 40//69
f 41//70 43//70 42//70
f 39//71 41//71 42//71
f 42//72 43//72 44//72
f 46//73 41//73 40//73
f 45//74 46//74 40//74
f 43//75 41//75 47//75
f 47//76 41//76 46//76
f 48//77 44//77 43//77
f 47//78 48//78 43//78
f 46//79 45//79 49//79
f 47//80 46//80 49//80
f 50//81 47//81 49//81
f 48//82 47//82 50//82
f 39//83 51//83 52//83
f 40//84 39//84 52//84
f 42//85 53//85 39//85
f 39//86 53//86 51//86
f 44//87 55//87 54//87
f 44//88 54//88 42//88
f 42//89 54//89 53//89
f 54//90 55//90 56//90
f 40//91 52//91 45//91
f 52//92 57//92 45//92
f 55//93 48//93 58//93
f 44//94 48//94 55//94
f 59//95 56//95 55//95
f 58//96 59//96 55//96
f 61//97 49//97 45//97
f 61//98 45//98 60//98
f 60//99 45//99 57//99
f 49//100 62//100 50//100
f 61//101 62//101 49//101
f 50//102 62//102 64//102
f 48//103 50//103 64//103
f 48//104 64//104 63//104
f 48//105 63//105 58//105
f 59//106 58//106 63//106
f 61//107 60//107 65//107
f 62//108 61//108 65//108
f 66//109 62//109 65//109
f 64//110 62//110 66//110
f 51//111 67//111 68//111
f 52//112 51//112 68//112
f 53//113 69//113 51//113
f 51//114 69//114 67//114
f 54//115 70//115 53//115
f 53//116 70//116 69//116
f 70//117 54//117 56//117
f 71//118 70//118 56//118
f 52//119 68//119 57//119
f 68//120 72//120 57//120
f 56//121 59//121 71//121
f 71//122 59//122 73//122
f 57//123 72//123 60//123
f 72//124 74//124 60//124
f 63//125 64//125 75//125
f 63//126 75//126 76//126
f 63//127 76//127 59//127
f 59//128 76//128 73//128
f 60//129 74//129 77//129
f 65//130 60//130 77//130
f 66//131 65//131 78//131
f 65//132 77//132 78//132
f 75//133 64//133 66//133
f 75//134 66//134 79//134
f 79//135 66//135 78//135
f 76//136 75//136 79//136
f 67//137 80//137 68//137
f 67//138 69//138 81//138
f 80//139 67//139 81//139
f 69//140 70//140 82//140
f 81//141 69//141 82//141
f 70//142 71//142 82//142
f 80//143 83//143 72//143
f 68//144 80//144 72//144
f 81//145 84//145 80//145
f 84//146 83//146 80//146
f 82//147 85//147 81//147
f 85//148 84//148 81//148
f 71//149 73//149 85//149
f 82//150 71//150 85//150
f 83//151 86//151 74//151
f 72//152 83//152 74//152
f 84//153 87//153 83//153
f 87//154 86//154 83//154
f 85//155 88//155 84//155
f 88//156 87//156 84//156
f 73//157 76//157 88//157
f 85//158 73//158 88//158
f 74//159 86//159 77//159
f 78//160 77//160 86//160
f 87//161 78//161 86//161
f 79//162 78//162 87//162
f 88//163 79//163 87//163
f 76//164 79//164 88//164
