# Blender v2.78 (sub 0) OBJ File: 'fluid_test.blend'
# www.blender.org
o Area_Cube
v -0.070147 -0.868266 0.085664
v -0.087838 -0.868266 0.070148
v -0.070147 -0.893160 0.070148
v 0.008585 -0.868266 0.070148
v -0.161952 -0.868266 -0.129382
v -0.070147 -0.998244 -0.129382
v 0.129383 -0.868266 0.013366
v 0.129383 -0.946836 -0.129382
v 0.182428 -0.868266 -0.129382
v -0.070147 -0.868266 -0.271279
v 0.129383 -0.868266 -0.215004
v -0.070147 -0.668736 0.085310
v -0.086649 -0.668736 0.070148
v 0.129383 -0.668736 0.088560
v 0.129383 -0.756575 0.070148
v 0.149019 -0.668736 0.070148
v -0.151550 -0.668736 -0.129382
v 0.213580 -0.668736 -0.129382
v -0.078950 -0.668736 -0.328912
v -0.070147 -0.698391 -0.328912
v 0.129383 -0.668736 -0.311460
v 0.015892 -0.668736 -0.328912
v -0.070147 -0.668736 -0.339985
v -0.070147 -0.642295 0.070148
v 0.129383 -0.631814 0.070148
v -0.070147 -0.538962 -0.129382
v 0.129383 -0.508624 -0.129382
v -0.070147 -0.650670 -0.328912
v -0.070147 1.127035 0.032436
v -0.143129 1.127035 -0.129382
v -0.070147 0.964009 -0.129382
v 0.070135 1.127035 -0.129382
v -0.070147 1.127035 -0.203057
v -0.070147 1.202593 -0.129382
v -0.070147 3.720925 0.102821
v -0.105018 3.720925 0.070148
v -0.070147 3.686890 0.070148
v 0.129383 3.720925 0.137686
v 0.129383 3.648798 0.070148
v 0.223765 3.720925 0.070148
v -0.165702 3.720925 -0.129382
v -0.070147 3.629274 -0.129382
v 0.129383 3.585434 -0.129382
v 0.291338 3.720925 -0.129382
v -0.074491 3.720925 -0.328912
v -0.070147 3.716791 -0.328912
v 0.129383 3.673950 -0.328912
v 0.195825 3.720925 -0.328912
v -0.070147 3.720925 -0.337360
v 0.129383 3.720925 -0.441176
v -0.070147 3.920455 0.195081
v -0.189743 3.920455 0.070148
v 0.129383 3.920455 0.240067
v 0.328913 3.920455 0.138003
v 0.328913 3.830891 0.070148
v 0.425289 3.920455 0.070148
v -0.237964 3.920455 -0.129382
v 0.328913 3.781586 -0.129382
v 0.460382 3.920455 -0.129382
v -0.155832 3.920455 -0.328912
v 0.328913 3.920455 -0.290640
v 0.302645 3.920455 -0.328912
v -0.070147 3.920455 -0.484458
v 0.065882 3.920455 -0.528442
v 0.129383 3.869714 -0.528442
v 0.147319 3.920455 -0.528442
v 0.129383 3.920455 -0.548351
v -0.070147 4.119985 0.211462
v -0.210872 4.119985 0.070148
v 0.129383 4.119985 0.228885
v 0.328913 4.119985 0.184085
v 0.473337 4.119985 0.070148
v -0.229680 4.119985 -0.129382
v 0.484887 4.119985 -0.129382
v -0.161121 4.119985 -0.328912
v 0.328913 4.023028 -0.328912
v 0.356354 4.119985 -0.328912
v -0.070147 4.119985 -0.439066
v 0.129383 4.119985 -0.470138
v 0.129383 3.961303 -0.528442
v 0.328913 4.119985 -0.356905
v -0.070147 4.244552 0.070148
v 0.129383 4.245070 0.070148
v 0.328913 4.223983 0.070148
v -0.070147 4.245188 -0.129382
v 0.129383 4.245188 -0.129382
v 0.328913 4.225830 -0.129382
v -0.070147 4.212299 -0.328912
v 0.129383 4.227912 -0.328912
v 0.328913 4.146909 -0.328912
vn -0.5971 -0.4243 0.6808
vn 0.1650 -0.5217 0.8370
vn -0.7797 -0.5541 0.2918
vn -0.7816 -0.5521 0.2903
vn 0.2538 -0.8026 0.5399
vn 0.2394 -0.8506 0.4682
vn 0.2223 -0.8627 0.4543
vn 0.7921 -0.5348 0.2943
vn -0.7222 -0.5101 -0.4672
vn 0.1866 -0.7244 -0.6636
vn 0.1873 -0.7238 -0.6641
vn 0.7373 -0.4978 -0.4568
vn -0.6766 0.0013 0.7364
vn -0.6594 0.0039 0.7518
vn 0.1864 -0.2016 0.9616
vn 0.1893 -0.2033 0.9606
vn -0.0163 0.0018 0.9999
vn 0.6762 -0.1511 0.7211
vn -0.9374 0.0056 0.3482
vn -0.9498 0.0495 0.3089
vn 0.3865 -0.4180 0.8222
vn 0.9230 -0.1744 0.3430
vn 0.9118 -0.2038 0.3565
vn 0.9411 -0.1469 0.3045
vn -0.8257 -0.1812 -0.5342
vn -0.7915 -0.2349 -0.5642
vn -0.9386 0.0489 -0.3415
vn 0.1101 -0.3193 -0.9412
vn 0.1434 -0.3312 -0.9326
vn 0.2461 -0.4218 -0.8726
vn 0.8427 -0.1316 -0.5221
vn 0.8895 -0.1988 -0.4113
vn -0.7625 -0.2263 -0.6061
vn 0.1197 -0.3473 -0.9301
vn -0.6233 0.3890 0.6784
vn -0.0146 0.4462 0.8948
vn -0.0261 0.4973 0.8672
vn 0.6428 0.3419 0.6855
vn -0.8168 0.5123 0.2653
vn -0.8178 0.5104 0.2660
vn -0.0446 0.8500 0.5248
vn -0.1338 0.8800 0.4557
vn 0.8509 0.4474 0.2753
vn 0.8480 0.4510 0.2784
vn -0.8731 0.4254 -0.2382
vn -0.8096 0.5078 -0.2946
vn 0.1231 0.5863 -0.8007
vn 0.1248 0.7451 -0.6552
vn -0.1315 0.8650 -0.4843
vn 0.8191 0.4308 -0.3788
vn -0.7314 0.3564 -0.5814
vn 0.1091 0.5195 -0.8475
vn -0.8440 -0.3778 0.3807
vn 0.6335 -0.5451 0.5492
vn -0.6770 -0.3031 -0.6706
vn 0.4317 -0.3715 -0.8220
vn -0.6842 0.6608 0.3086
vn 0.4386 0.8143 0.3802
vn -0.5858 0.5658 -0.5803
vn 0.3520 0.6535 -0.6702
vn -0.5600 -0.5738 0.5977
vn -0.1294 -0.6778 0.7238
vn -0.1251 -0.6871 0.7157
vn 0.4630 -0.6058 0.6470
vn -0.6840 -0.7008 0.2024
vn -0.6774 -0.7062 0.2060
vn -0.1790 -0.9377 0.2978
vn -0.2065 -0.9400 0.2714
vn 0.5948 -0.7783 0.2014
vn 0.6234 -0.7452 0.2367
vn -0.6599 -0.6880 -0.3018
vn -0.6575 -0.6909 -0.3006
vn -0.1969 -0.8962 -0.3976
vn -0.1929 -0.8986 -0.3941
vn 0.6134 -0.7332 -0.2936
vn 0.5428 -0.7677 -0.3406
vn -0.6497 -0.6828 -0.3341
vn -0.1894 -0.8820 -0.4315
vn -0.1969 -0.9044 -0.3784
vn 0.5463 -0.7727 -0.3233
vn -0.6880 -0.3046 0.6587
vn -0.6566 -0.2788 0.7008
vn -0.1536 -0.4511 0.8792
vn -0.2005 -0.4112 0.8892
vn 0.5340 -0.5106 0.6739
vn 0.5027 -0.5038 0.7025
vn 0.4142 -0.4155 0.8098
vn 0.4894 -0.5266 0.6951
vn -0.8864 -0.3764 0.2696
vn -0.9169 -0.3321 0.2216
vn 0.8430 -0.5222 0.1290
vn 0.7020 -0.6713 0.2378
vn 0.6759 -0.7273 0.1189
vn 0.7159 -0.6778 0.1675
vn -0.8638 -0.3128 -0.3949
vn -0.8653 -0.3527 -0.3562
vn 0.6890 -0.5492 -0.4729
vn 0.7669 -0.4750 -0.4316
vn 0.8122 -0.4348 -0.3888
vn 0.6249 -0.5916 -0.5094
vn -0.8249 -0.3363 -0.4544
vn -0.8427 -0.3194 -0.4333
vn -0.2871 -0.3593 -0.8880
vn -0.3037 -0.4820 -0.8218
vn -0.3863 -0.5473 -0.7424
vn 0.8197 -0.2898 -0.4941
vn 0.8243 -0.2874 -0.4878
vn 0.7269 -0.3891 -0.5659
vn -0.2802 -0.3506 -0.8936
vn 0.7186 -0.2540 -0.6474
vn -0.7074 -0.0578 0.7044
vn -0.7203 -0.0763 0.6895
vn -0.2196 0.0546 0.9741
vn -0.0867 -0.0815 0.9929
vn 0.4461 -0.2014 0.8720
vn 0.2187 0.0546 0.9743
vn 0.5657 -0.1856 0.8035
vn 0.6126 -0.1475 0.7765
vn -0.9669 -0.1024 0.2337
vn -0.9947 0.0413 0.0938
vn 0.9583 -0.2308 0.1685
vn 0.9909 -0.1217 0.0574
vn -0.9240 0.0384 -0.3804
vn -0.9454 -0.0251 -0.3249
vn 0.8067 -0.2066 -0.5537
vn 0.7772 -0.2200 -0.5895
vn 0.7557 -0.2221 -0.6161
vn 0.8362 -0.1027 -0.5387
vn -0.7709 -0.0204 -0.6367
vn -0.8707 0.1091 -0.4796
vn -0.2166 0.3367 -0.9164
vn -0.2880 0.3519 -0.8906
vn -0.1501 0.2193 -0.9640
vn 0.4787 -0.2435 -0.8435
vn 0.6400 0.2680 -0.7202
vn 0.7735 -0.1981 -0.6021
vn 0.6177 0.2712 -0.7382
vn 0.7000 -0.1981 -0.6861
vn -0.2713 0.4217 -0.8652
vn 0.7063 0.3101 -0.6363
vn -0.5532 0.6249 0.5509
vn -0.0540 0.7843 0.6180
vn -0.0020 0.7502 0.6613
vn 0.1497 0.7303 0.6666
vn 0.0827 0.7827 0.6168
vn 0.4696 0.6521 0.5952
vn -0.6174 0.7867 0.0025
vn -0.6615 0.7473 0.0624
vn -0.0026 1.0000 0.0006
vn 0.0000 1.0000 0.0032
vn 0.1051 0.9944 0.0092
vn 0.0966 0.9953 0.0006
vn 0.5612 0.8270 0.0325
vn 0.5843 0.8115 0.0075
vn -0.7075 0.6973 -0.1149
vn -0.6039 0.7695 -0.2075
vn 0.0000 0.9963 -0.0863
vn -0.0770 0.9838 -0.1622
vn 0.0899 0.9261 -0.3663
vn 0.3749 0.9236 -0.0800
vn 0.6384 0.6506 -0.4112
vn 0.5337 0.7864 -0.3111
vn -0.6139 0.6050 -0.5070
vn -0.0995 0.7626 -0.6391
vn -0.0621 0.7930 -0.6060
vn 0.3258 0.7512 -0.5741
vn 0.2808 0.6917 -0.6653
vn 0.5774 0.5885 -0.5660
s off
f 3//1 1//1 2//1
f 1//2 3//2 4//2
f 6//3 3//3 2//3
f 5//4 6//4 2//4
f 7//5 4//5 3//5
f 7//6 3//6 8//6
f 8//7 3//7 6//7
f 7//8 8//8 9//8
f 6//9 5//9 10//9
f 8//10 6//10 10//10
f 11//11 8//11 10//11
f 9//12 8//12 11//12
f 1//13 12//13 13//13
f 2//14 1//14 13//14
f 4//15 15//15 14//15
f 4//16 14//16 1//16
f 1//17 14//17 12//17
f 14//18 15//18 16//18
f 2//19 13//19 5//19
f 13//20 17//20 5//20
f 4//21 7//21 15//21
f 15//22 7//22 9//22
f 15//23 9//23 16//23
f 16//24 9//24 18//24
f 20//25 10//25 5//25
f 20//26 5//26 19//26
f 19//27 5//27 17//27
f 22//28 10//28 20//28
f 22//29 21//29 10//29
f 21//30 11//30 10//30
f 18//31 9//31 11//31
f 21//32 18//32 11//32
f 20//33 19//33 23//33
f 22//34 20//34 23//34
f 12//35 24//35 13//35
f 12//36 14//36 25//36
f 24//37 12//37 25//37
f 14//38 16//38 25//38
f 24//39 26//39 17//39
f 13//40 24//40 17//40
f 25//41 27//41 24//41
f 27//42 26//42 24//42
f 16//43 18//43 27//43
f 25//44 16//44 27//44
f 26//45 28//45 19//45
f 17//46 26//46 19//46
f 21//47 22//47 28//47
f 21//48 28//48 27//48
f 27//49 28//49 26//49
f 18//50 21//50 27//50
f 19//51 28//51 23//51
f 22//52 23//52 28//52
f 31//53 29//53 30//53
f 29//54 31//54 32//54
f 31//55 30//55 33//55
f 32//56 31//56 33//56
f 29//57 34//57 30//57
f 29//58 32//58 34//58
f 30//59 34//59 33//59
f 32//60 33//60 34//60
f 37//61 35//61 36//61
f 37//62 39//62 38//62
f 35//63 37//63 38//63
f 38//64 39//64 40//64
f 42//65 37//65 36//65
f 41//66 42//66 36//66
f 39//67 37//67 43//67
f 43//68 37//68 42//68
f 44//69 40//69 39//69
f 43//70 44//70 39//70
f 46//71 42//71 41//71
f 45//72 46//72 41//72
f 43//73 42//73 47//73
f 47//74 42//74 46//74
f 48//75 44//75 43//75
f 47//76 48//76 43//76
f 46//77 45//77 49//77
f 47//78 46//78 49//78
f 50//79 47//79 49//79
f 48//80 47//80 50//80
f 35//81 51//81 52//81
f 36//82 35//82 52//82
f 38//83 53//83 35//83
f 35//84 53//84 51//84
f 40//85 55//85 54//85
f 40//86 54//86 38//86
f 38//87 54//87 53//87
f 54//88 55//88 56//88
f 36//89 52//89 41//89
f 52//90 57//90 41//90
f 55//91 44//91 58//91
f 40//92 44//92 55//92
f 59//93 56//93 55//93
f 58//94 59//94 55//94
f 41//95 57//95 45//95
f 57//96 60//96 45//96
f 58//97 62//97 61//97
f 58//98 44//98 62//98
f 44//99 48//99 62//99
f 59//100 58//100 61//100
f 45//101 60//101 63//101
f 49//102 45//102 63//102
f 65//103 63//103 64//103
f 65//104 50//104 63//104
f 50//105 49//105 63//105
f 50//106 65//106 66//106
f 50//107 66//107 48//107
f 48//108 66//108 62//108
f 65//109 64//109 67//109
f 66//110 65//110 67//110
f 51//111 68//111 69//111
f 52//112 51//112 69//112
f 53//113 70//113 51//113
f 51//114 70//114 68//114
f 54//115 71//115 53//115
f 53//116 71//116 70//116
f 71//117 54//117 56//117
f 72//118 71//118 56//118
f 52//119 69//119 57//119
f 69//120 73//120 57//120
f 56//121 59//121 72//121
f 72//122 59//122 74//122
f 57//123 73//123 60//123
f 73//124 75//124 60//124
f 61//125 62//125 76//125
f 61//126 76//126 77//126
f 61//127 77//127 59//127
f 59//128 77//128 74//128
f 60//129 75//129 78//129
f 63//130 60//130 78//130
f 64//131 79//131 80//131
f 64//132 63//132 79//132
f 63//133 78//133 79//133
f 76//134 79//134 81//134
f 76//135 66//135 79//135
f 76//136 62//136 66//136
f 66//137 80//137 79//137
f 77//138 76//138 81//138
f 64//139 80//139 67//139
f 66//140 67//140 80//140
f 68//141 82//141 69//141
f 68//142 70//142 83//142
f 82//143 68//143 83//143
f 70//144 71//144 84//144
f 83//145 70//145 84//145
f 71//146 72//146 84//146
f 82//147 85//147 73//147
f 69//148 82//148 73//148
f 83//149 86//149 82//149
f 86//150 85//150 82//150
f 84//151 87//151 83//151
f 87//152 86//152 83//152
f 72//153 74//153 87//153
f 84//154 72//154 87//154
f 85//155 88//155 75//155
f 73//156 85//156 75//156
f 86//157 89//157 85//157
f 89//158 88//158 85//158
f 87//159 90//159 86//159
f 90//160 89//160 86//160
f 74//161 77//161 90//161
f 87//162 74//162 90//162
f 75//163 88//163 78//163
f 79//164 78//164 88//164
f 89//165 79//165 88//165
f 81//166 79//166 89//166
f 90//167 81//167 89//167
f 77//168 81//168 90//168
