# Blender v2.78 (sub 0) OBJ File: 'fluid_test.blend'
# www.blender.org
o Area_Cube
v -0.070147 3.720925 0.073846
v -0.073845 3.720925 0.070148
v -0.070147 3.719298 0.070148
v -0.017925 3.720925 0.070148
v -0.070147 3.720925 0.017975
v -0.070147 3.920455 0.256843
v -0.256837 3.920455 0.070148
v 0.129383 3.920455 0.253262
v 0.129383 3.726617 0.070148
v 0.328913 3.920455 0.234518
v 0.328913 3.731813 0.070148
v 0.512833 3.920455 0.070148
v -0.253254 3.920455 -0.129382
v -0.070147 3.726624 -0.129382
v 0.129383 3.735495 -0.129382
v 0.328913 3.736529 -0.129382
v 0.508591 3.920455 -0.129382
v -0.234516 3.920455 -0.328912
v -0.070147 3.731804 -0.328912
v 0.129383 3.736509 -0.328912
v 0.328913 3.759929 -0.328912
v 0.485602 3.920455 -0.328912
v -0.070147 3.920455 -0.512838
v 0.129383 3.920455 -0.508602
v 0.328913 3.920455 -0.485602
v -0.070147 4.119985 0.260686
v -0.260678 4.119985 0.070148
v 0.129383 4.119985 0.256523
v 0.328913 4.119985 0.248818
v 0.517035 4.119985 0.070148
v -0.256512 4.119985 -0.129382
v 0.511733 4.119985 -0.129382
v -0.248815 4.119985 -0.328912
v 0.502797 4.119985 -0.328912
v -0.070147 4.119985 -0.517042
v 0.129383 4.119985 -0.511743
v 0.328913 4.119985 -0.502798
v -0.070147 4.245188 0.070148
v 0.129383 4.245188 0.070148
v 0.328913 4.230408 0.070148
v -0.070147 4.245188 -0.129382
v 0.129383 4.245188 -0.129382
v 0.328913 4.230008 -0.129382
v -0.070147 4.230409 -0.328912
v 0.129383 4.230010 -0.328912
v 0.328913 4.216654 -0.328912
vn -0.3735 -0.8491 0.3735
vn 0.0285 -0.9150 0.4026
vn -0.4025 -0.9150 -0.0285
vn 0.0311 -0.9990 -0.0312
vn -0.5933 -0.5441 0.5933
vn 0.0265 -0.6865 0.7267
vn 0.0508 -0.6954 0.7169
vn 0.0132 -0.6759 0.7369
vn 0.0171 -0.6568 0.7538
vn 0.0681 -0.6851 0.7252
vn 0.5588 -0.5448 0.6253
vn -0.4787 -0.8773 -0.0339
vn -0.7265 -0.6863 -0.0331
vn -0.7369 -0.6758 -0.0132
vn 0.0386 -0.9985 -0.0386
vn 0.0444 -0.9980 -0.0444
vn 0.0260 -0.9994 -0.0236
vn 0.0052 -0.9990 -0.0445
vn 0.7159 -0.6980 -0.0152
vn 0.7152 -0.6987 -0.0165
vn -0.7268 -0.6866 -0.0178
vn -0.7521 -0.6553 -0.0706
vn 0.0444 -0.9990 -0.0051
vn 0.0236 -0.9994 -0.0259
vn 0.0051 -0.9932 -0.1165
vn 0.1166 -0.9932 -0.0050
vn 0.7129 -0.6964 -0.0821
vn 0.7132 -0.6962 -0.0816
vn -0.6253 -0.5448 -0.5588
vn 0.0165 -0.6980 -0.7159
vn 0.0152 -0.6987 -0.7152
vn 0.0817 -0.6964 -0.7129
vn 0.0822 -0.6961 -0.7132
vn 0.5820 -0.5680 -0.5819
vn -0.7071 -0.0136 0.7070
vn 0.0179 -0.0163 0.9997
vn 0.0209 -0.0192 0.9996
vn 0.0933 -0.0712 0.9931
vn 0.0386 -0.0163 0.9991
vn 0.6654 -0.0534 0.7446
vn 0.6886 -0.0145 0.7250
vn -0.9997 -0.0192 -0.0180
vn -0.9996 -0.0163 -0.0209
vn 0.9996 -0.0211 -0.0212
vn 0.9995 -0.0157 -0.0266
vn -0.9955 -0.0163 -0.0935
vn -0.9967 -0.0714 -0.0385
vn 0.9933 -0.0156 -0.1144
vn 0.9953 -0.0858 -0.0446
vn -0.7241 -0.0519 -0.6877
vn -0.7456 -0.0140 -0.6663
vn 0.0212 -0.0157 -0.9997
vn 0.0265 -0.0211 -0.9994
vn 0.1141 -0.0853 -0.9898
vn 0.0448 -0.0157 -0.9989
vn 0.7058 -0.0608 -0.7058
vn -0.4814 0.7325 0.4813
vn 0.0116 0.8300 0.5576
vn 0.0000 0.8357 0.5492
vn 0.0203 0.8505 0.5256
vn 0.0614 0.8285 0.5566
vn 0.4467 0.7611 0.4704
vn -0.5577 0.8301 0.0000
vn -0.5491 0.8357 -0.0115
vn 0.0000 1.0000 0.0000
vn 0.0739 0.9973 -0.0020
vn 0.0759 0.9971 0.0000
vn 0.5156 0.8567 -0.0137
vn 0.5062 0.8624 -0.0017
vn -0.5247 0.8490 -0.0629
vn -0.5575 0.8299 -0.0215
vn 0.0000 0.9971 -0.0759
vn 0.0020 0.9973 -0.0739
vn 0.0757 0.9949 -0.0666
vn 0.0666 0.9949 -0.0757
vn 0.4858 0.8738 -0.0218
vn 0.5148 0.8554 -0.0572
vn -0.4704 0.7611 -0.4467
vn 0.0134 0.8623 -0.5062
vn 0.0017 0.8568 -0.5156
vn 0.0231 0.8566 -0.5155
vn 0.0584 0.8725 -0.4851
vn 0.4370 0.7861 -0.4370
s off
f 3//1 1//1 2//1
f 1//2 3//2 4//2
f 3//3 2//3 5//3
f 4//4 3//4 5//4
f 1//5 6//5 7//5
f 2//5 1//5 7//5
f 4//6 9//6 8//6
f 4//7 8//7 1//7
f 1//8 8//8 6//8
f 9//9 11//9 10//9
f 8//10 9//10 10//10
f 10//11 11//11 12//11
f 14//12 5//12 2//12
f 14//13 2//13 13//13
f 13//14 2//14 7//14
f 5//15 9//15 4//15
f 5//15 14//15 9//15
f 14//16 15//16 9//16
f 11//17 9//17 16//17
f 16//18 9//18 15//18
f 17//19 12//19 11//19
f 16//20 17//20 11//20
f 19//21 14//21 13//21
f 18//22 19//22 13//22
f 15//23 14//23 20//23
f 20//24 14//24 19//24
f 16//25 15//25 21//25
f 21//26 15//26 20//26
f 22//27 17//27 16//27
f 21//28 22//28 16//28
f 19//29 18//29 23//29
f 20//30 19//30 23//30
f 24//31 20//31 23//31
f 21//32 20//32 24//32
f 25//33 21//33 24//33
f 22//34 21//34 25//34
f 6//35 26//35 27//35
f 7//35 6//35 27//35
f 8//36 28//36 6//36
f 6//37 28//37 26//37
f 10//38 29//38 8//38
f 8//39 29//39 28//39
f 29//40 10//40 12//40
f 30//41 29//41 12//41
f 7//42 27//42 13//42
f 27//43 31//43 13//43
f 12//44 17//44 30//44
f 30//45 17//45 32//45
f 13//46 31//46 18//46
f 31//47 33//47 18//47
f 17//48 22//48 32//48
f 32//49 22//49 34//49
f 18//50 33//50 35//50
f 23//51 18//51 35//51
f 24//52 23//52 36//52
f 23//53 35//53 36//53
f 25//54 24//54 37//54
f 24//55 36//55 37//55
f 34//56 22//56 25//56
f 37//56 34//56 25//56
f 26//57 38//57 27//57
f 26//58 28//58 39//58
f 38//59 26//59 39//59
f 28//60 29//60 40//60
f 39//61 28//61 40//61
f 29//62 30//62 40//62
f 38//63 41//63 31//63
f 27//64 38//64 31//64
f 39//65 42//65 38//65
f 42//65 41//65 38//65
f 40//66 43//66 39//66
f 43//67 42//67 39//67
f 30//68 32//68 43//68
f 40//69 30//69 43//69
f 41//70 44//70 33//70
f 31//71 41//71 33//71
f 42//72 45//72 41//72
f 45//73 44//73 41//73
f 43//74 46//74 42//74
f 46//75 45//75 42//75
f 32//76 34//76 46//76
f 43//77 32//77 46//77
f 33//78 44//78 35//78
f 36//79 35//79 44//79
f 45//80 36//80 44//80
f 37//81 36//81 45//81
f 46//82 37//82 45//82
f 34//83 37//83 46//83
