# Blender v2.78 (sub 0) OBJ File: 'fluid_test.blend'
# www.blender.org
o Area_Cube
v -0.070147 1.925155 0.092786
v -0.095427 1.925155 0.070148
v -0.070147 1.880152 0.070148
v 0.068070 1.925155 0.070148
v -0.171837 1.925155 -0.129382
v -0.070147 1.733855 -0.129382
v 0.129383 1.925155 0.049182
v 0.129383 1.790574 -0.129382
v 0.200989 1.925155 -0.129382
v -0.070147 1.925155 -0.305739
v 0.129383 1.925155 -0.260511
v -0.070147 2.124685 0.107545
v -0.111386 2.124685 0.070148
v 0.129383 2.124685 0.100358
v 0.129383 1.973318 0.070148
v 0.161441 2.124685 0.070148
v -0.179615 2.124685 -0.129382
v 0.226838 2.124685 -0.129382
v -0.104957 2.124685 -0.328912
v -0.070147 1.991946 -0.328912
v 0.129383 2.084880 -0.328912
v 0.141898 2.124685 -0.328912
v -0.070147 2.124685 -0.371655
v 0.129383 2.124685 -0.344303
v -0.070147 2.174587 0.070148
v 0.129383 2.176281 0.070148
v -0.070147 2.245585 -0.129382
v 0.129383 2.268705 -0.129382
v -0.070147 2.166026 -0.328912
v 0.129383 2.141412 -0.328912
v 0.129383 2.922805 -0.108103
v 0.048306 2.922805 -0.129382
v 0.129383 2.905494 -0.129382
v 0.139647 2.922805 -0.129382
v 0.129383 2.922805 -0.140363
v 0.129383 2.986948 -0.129382
v -0.070147 3.720925 0.123690
v -0.132683 3.720925 0.070148
v -0.070147 3.665742 0.070148
v 0.129383 3.720925 0.121286
v 0.129383 3.670698 0.070148
v 0.190918 3.720925 0.070148
v -0.172994 3.720925 -0.129382
v -0.070147 3.628338 -0.129382
v 0.129383 3.611243 -0.129382
v 0.264704 3.720925 -0.129382
v -0.070147 3.720925 -0.246372
v 0.129383 3.720925 -0.272903
v -0.070147 3.920455 0.195708
v -0.192543 3.920455 0.070148
v 0.129383 3.920455 0.228890
v 0.328913 3.920455 0.124018
v 0.328913 3.858901 0.070148
v 0.404335 3.920455 0.070148
v -0.229000 3.920455 -0.129382
v 0.328913 3.808494 -0.129382
v 0.465473 3.920455 -0.129382
v -0.128304 3.920455 -0.328912
v -0.070147 3.838985 -0.328912
v 0.129383 3.800349 -0.328912
v 0.328913 3.920455 -0.272375
v 0.271251 3.920455 -0.328912
v -0.070147 3.920455 -0.407530
v 0.129383 3.920455 -0.439640
v -0.070147 4.119985 0.208817
v -0.202029 4.119985 0.070148
v 0.129383 4.119985 0.220435
v 0.328913 4.119985 0.176636
v 0.456630 4.119985 0.070148
v -0.206988 4.119985 -0.129382
v 0.472131 4.119985 -0.129382
v -0.167666 4.119985 -0.328912
v 0.328913 4.028548 -0.328912
v 0.366908 4.119985 -0.328912
v -0.070147 4.119985 -0.458513
v 0.129383 4.119985 -0.467474
v 0.328913 4.119985 -0.366444
v -0.070147 4.245072 0.070148
v 0.129383 4.245234 0.070148
v 0.328913 4.222352 0.070148
v -0.070147 4.245254 -0.129382
v 0.129383 4.245188 -0.129382
v 0.328913 4.223954 -0.129382
v -0.070147 4.220151 -0.328912
v 0.129383 4.222670 -0.328912
v 0.328913 4.155369 -0.328912
vn -0.6247 -0.3509 0.6976
vn 0.1448 -0.4446 0.8839
vn -0.8206 -0.4609 0.3380
vn -0.8365 -0.4446 0.3203
vn 0.2295 -0.7049 0.6712
vn 0.2365 -0.7759 0.5848
vn 0.2234 -0.7861 0.5763
vn 0.8322 -0.4428 0.3337
vn -0.7869 -0.4183 -0.4537
vn 0.1892 -0.6656 -0.7220
vn 0.1603 -0.6888 -0.7070
vn 0.7952 -0.4231 -0.4343
vn -0.6707 -0.0547 0.7397
vn -0.6662 -0.0533 0.7439
vn 0.1520 -0.1934 0.9693
vn 0.1585 -0.1952 0.9679
vn 0.0359 -0.0737 0.9966
vn 0.6787 -0.1437 0.7202
vn -0.9313 -0.0745 0.3566
vn -0.9456 -0.0369 0.3233
vn 0.2992 -0.3809 0.8749
vn 0.9162 -0.1599 0.3674
vn 0.9080 -0.1923 0.3723
vn 0.9431 -0.1222 0.3091
vn -0.8536 -0.1708 -0.4922
vn -0.8375 -0.2196 -0.5003
vn -0.9360 -0.0365 -0.3502
vn 0.2040 -0.3854 -0.8999
vn 0.1509 -0.3240 -0.9339
vn 0.7814 -0.2457 -0.5737
vn 0.8573 -0.2143 -0.4681
vn 0.9136 -0.1184 -0.3889
vn -0.7598 -0.1993 -0.6188
vn 0.1413 -0.3034 -0.9423
vn 0.1268 -0.3577 -0.9252
vn 0.7538 -0.2370 -0.6129
vn -0.5873 0.4854 0.6477
vn 0.0311 0.5050 0.8626
vn -0.0051 0.5997 0.8002
vn 0.6309 0.3920 0.6695
vn -0.7210 0.6528 0.2323
vn -0.7454 0.6160 0.2549
vn -0.0077 0.9074 0.4203
vn -0.1085 0.9366 0.3333
vn 0.7993 0.5409 0.2620
vn 0.8251 0.5127 0.2375
vn -0.7409 0.6239 -0.2488
vn -0.7143 0.6468 -0.2673
vn -0.0972 0.8391 -0.5353
vn 0.1138 0.9228 -0.3680
vn 0.7579 0.5670 -0.3226
vn 0.7799 0.5277 -0.3367
vn -0.6493 0.5467 -0.5288
vn 0.0949 0.7156 -0.6921
vn 0.0832 0.6748 -0.7333
vn 0.6710 0.5020 -0.5456
vn -0.1634 -0.7653 0.6226
vn 0.7945 -0.4711 0.3832
vn -0.1136 -0.5322 -0.8390
vn 0.6704 -0.3975 -0.6266
vn -0.2417 0.3055 0.9210
vn 0.8915 0.1426 0.4300
vn -0.1323 0.1673 -0.9770
vn 0.7256 0.1161 -0.6782
vn -0.5235 -0.5933 0.6115
vn 0.0177 -0.7133 0.7006
vn 0.0086 -0.6963 0.7177
vn 0.5032 -0.6165 0.6055
vn -0.6552 -0.7425 0.1392
vn -0.6630 -0.7365 0.1340
vn 0.0238 -0.9581 0.2855
vn -0.0839 -0.9794 0.1836
vn 0.6157 -0.7543 0.2277
vn 0.6134 -0.7569 0.2255
vn -0.5767 -0.6406 -0.5070
vn -0.0670 -0.7824 -0.6192
vn -0.0805 -0.7920 -0.6052
vn 0.5414 -0.6680 -0.5105
vn -0.6944 -0.2443 0.6769
vn -0.6383 -0.1915 0.7456
vn 0.0106 -0.4746 0.8801
vn -0.1545 -0.3354 0.9293
vn 0.5500 -0.5500 0.6285
vn 0.5360 -0.5448 0.6449
vn 0.4199 -0.4308 0.7988
vn 0.4734 -0.5801 0.6628
vn -0.9404 -0.2821 0.1900
vn -0.9482 -0.2662 0.1733
vn 0.7976 -0.5848 0.1477
vn 0.6841 -0.6842 0.2530
vn 0.6207 -0.7606 0.1902
vn 0.6223 -0.7590 0.1917
vn -0.6819 -0.4191 -0.5995
vn -0.6470 -0.4618 -0.6067
vn -0.8660 -0.2431 -0.4370
vn -0.1080 -0.5729 -0.8125
vn -0.1103 -0.5695 -0.8146
vn 0.4385 -0.5179 -0.7345
vn 0.5933 -0.5789 -0.5594
vn 0.5636 -0.5933 -0.5748
vn 0.7318 -0.5366 -0.4201
vn 0.5423 -0.6615 -0.5179
vn -0.6973 -0.4977 -0.5158
vn -0.1333 -0.6882 -0.7132
vn -0.1175 -0.6731 -0.7301
vn 0.4977 -0.5879 -0.6377
vn -0.7239 -0.0452 0.6884
vn -0.7157 -0.0340 0.6976
vn -0.1639 0.0418 0.9856
vn -0.0580 -0.0654 0.9962
vn 0.4531 -0.2273 0.8620
vn 0.2142 0.0414 0.9759
vn 0.5683 -0.2098 0.7956
vn 0.6315 -0.1655 0.7575
vn -0.9826 -0.0467 0.1795
vn -0.9937 0.1096 0.0247
vn 0.9274 -0.2431 0.2842
vn 0.9964 -0.0333 0.0774
vn -0.8885 0.0980 -0.4484
vn -0.9633 -0.1900 -0.1898
vn 0.6559 -0.3499 -0.6689
vn 0.7446 -0.3094 -0.5915
vn 0.6861 -0.3163 -0.6552
vn 0.8842 -0.0295 -0.4663
vn -0.7893 -0.1557 -0.5939
vn -0.7948 -0.1502 -0.5880
vn -0.1574 -0.1364 -0.9781
vn -0.0435 -0.2473 -0.9680
vn 0.5846 -0.3119 -0.7490
vn 0.5838 -0.3083 -0.7511
vn 0.4483 -0.1235 -0.8853
vn 0.6746 -0.2803 -0.6829
vn -0.5758 0.6071 0.5476
vn -0.0373 0.7677 0.6398
vn -0.0006 0.7425 0.6698
vn 0.1504 0.7127 0.6851
vn 0.0878 0.7652 0.6377
vn 0.5003 0.6242 0.6001
vn -0.6752 0.7376 0.0007
vn -0.6881 0.7254 0.0171
vn -0.0008 1.0000 -0.0002
vn 0.0003 1.0000 0.0009
vn 0.1139 0.9935 0.0080
vn 0.1058 0.9944 -0.0002
vn 0.5869 0.8084 0.0456
vn 0.6254 0.7803 0.0063
vn -0.7138 0.6949 -0.0874
vn -0.6693 0.7312 -0.1319
vn 0.0003 0.9937 -0.1121
vn -0.0125 0.9921 -0.1248
vn 0.1001 0.9409 -0.3234
vn 0.3178 0.9422 -0.1063
vn 0.6414 0.6887 -0.3382
vn 0.5660 0.7796 -0.2680
vn -0.6307 0.6140 -0.4746
vn -0.0275 0.7909 -0.6113
vn -0.0101 0.8034 -0.5954
vn 0.2886 0.7692 -0.5701
vn 0.2384 0.7067 -0.6662
vn 0.5610 0.6024 -0.5679
s off
f 3//1 1//1 2//1
f 1//2 3//2 4//2
f 6//3 3//3 2//3
f 5//4 6//4 2//4
f 7//5 4//5 3//5
f 7//6 3//6 8//6
f 8//7 3//7 6//7
f 7//8 8//8 9//8
f 6//9 5//9 10//9
f 8//10 6//10 10//10
f 11//11 8//11 10//11
f 9//12 8//12 11//12
f 1//13 12//13 13//13
f 2//14 1//14 13//14
f 4//15 15//15 14//15
f 4//16 14//16 1//16
f 1//17 14//17 12//17
f 14//18 15//18 16//18
f 2//19 13//19 5//19
f 13//20 17//20 5//20
f 4//21 7//21 15//21
f 15//22 7//22 9//22
f 15//23 9//23 16//23
f 16//24 9//24 18//24
f 20//25 10//25 5//25
f 20//26 5//26 19//26
f 19//27 5//27 17//27
f 10//28 21//28 11//28
f 20//29 21//29 10//29
f 11//30 21//30 22//30
f 11//31 22//31 9//31
f 9//32 22//32 18//32
f 20//33 19//33 23//33
f 21//34 20//34 23//34
f 24//35 21//35 23//35
f 22//36 21//36 24//36
f 12//37 25//37 13//37
f 12//38 14//38 26//38
f 25//39 12//39 26//39
f 14//40 16//40 26//40
f 25//41 27//41 17//41
f 13//42 25//42 17//42
f 26//43 28//43 25//43
f 28//44 27//44 25//44
f 16//45 18//45 28//45
f 26//46 16//46 28//46
f 27//47 29//47 19//47
f 17//48 27//48 19//48
f 28//49 30//49 27//49
f 30//50 29//50 27//50
f 18//51 22//51 30//51
f 28//52 18//52 30//52
f 19//53 29//53 23//53
f 24//54 23//54 29//54
f 30//55 24//55 29//55
f 22//56 24//56 30//56
f 33//57 31//57 32//57
f 31//58 33//58 34//58
f 33//59 32//59 35//59
f 34//60 33//60 35//60
f 31//61 36//61 32//61
f 31//62 34//62 36//62
f 32//63 36//63 35//63
f 34//64 35//64 36//64
f 39//65 37//65 38//65
f 39//66 41//66 40//66
f 37//67 39//67 40//67
f 40//68 41//68 42//68
f 44//69 39//69 38//69
f 43//70 44//70 38//70
f 41//71 39//71 45//71
f 45//72 39//72 44//72
f 46//73 42//73 41//73
f 45//74 46//74 41//74
f 44//75 43//75 47//75
f 45//76 44//76 47//76
f 48//77 45//77 47//77
f 46//78 45//78 48//78
f 37//79 49//79 50//79
f 38//80 37//80 50//80
f 40//81 51//81 37//81
f 37//82 51//82 49//82
f 42//83 53//83 52//83
f 42//84 52//84 40//84
f 40//85 52//85 51//85
f 52//86 53//86 54//86
f 38//87 50//87 43//87
f 50//88 55//88 43//88
f 53//89 46//89 56//89
f 42//90 46//90 53//90
f 57//91 54//91 53//91
f 56//92 57//92 53//92
f 59//93 47//93 43//93
f 59//94 43//94 58//94
f 58//95 43//95 55//95
f 47//96 60//96 48//96
f 59//97 60//97 47//97
f 48//98 60//98 62//98
f 46//99 48//99 62//99
f 46//100 62//100 61//100
f 46//101 61//101 56//101
f 57//102 56//102 61//102
f 59//103 58//103 63//103
f 60//104 59//104 63//104
f 64//105 60//105 63//105
f 62//106 60//106 64//106
f 49//107 65//107 66//107
f 50//108 49//108 66//108
f 51//109 67//109 49//109
f 49//110 67//110 65//110
f 52//111 68//111 51//111
f 51//112 68//112 67//112
f 68//113 52//113 54//113
f 69//114 68//114 54//114
f 50//115 66//115 55//115
f 66//116 70//116 55//116
f 54//117 57//117 69//117
f 69//118 57//118 71//118
f 55//119 70//119 58//119
f 70//120 72//120 58//120
f 61//121 62//121 73//121
f 61//122 73//122 74//122
f 61//123 74//123 57//123
f 57//124 74//124 71//124
f 58//125 72//125 75//125
f 63//126 58//126 75//126
f 64//127 63//127 76//127
f 63//128 75//128 76//128
f 73//129 62//129 64//129
f 73//130 64//130 77//130
f 77//131 64//131 76//131
f 74//132 73//132 77//132
f 65//133 78//133 66//133
f 65//134 67//134 79//134
f 78//135 65//135 79//135
f 67//136 68//136 80//136
f 79//137 67//137 80//137
f 68//138 69//138 80//138
f 78//139 81//139 70//139
f 66//140 78//140 70//140
f 79//141 82//141 78//141
f 82//142 81//142 78//142
f 80//143 83//143 79//143
f 83//144 82//144 79//144
f 69//145 71//145 83//145
f 80//146 69//146 83//146
f 81//147 84//147 72//147
f 70//148 81//148 72//148
f 82//149 85//149 81//149
f 85//150 84//150 81//150
f 83//151 86//151 82//151
f 86//152 85//152 82//152
f 71//153 74//153 86//153
f 83//154 71//154 86//154
f 72//155 84//155 75//155
f 76//156 75//156 84//156
f 85//157 76//157 84//157
f 77//158 76//158 85//158
f 86//159 77//159 85//159
f 74//160 77//160 86//160
