# Blender v2.78 (sub 0) OBJ File: 'fluid_test.blend'
# www.blender.org
o Area_Cube
v -0.070147 3.720925 0.106883
v -0.106858 3.720925 0.070148
v -0.070147 3.702469 0.070148
v 0.129383 3.720925 0.080163
v 0.129383 3.716100 0.070148
v 0.328913 3.720925 0.089730
v 0.328913 3.709863 0.070148
v 0.351900 3.720925 0.070148
v -0.079608 3.720925 -0.129382
v -0.070147 3.716366 -0.129382
v 0.129383 3.720925 0.019501
v -0.021663 3.720925 -0.129382
v 0.300761 3.720925 -0.129382
v 0.328913 3.718565 -0.129382
v 0.333867 3.720925 -0.129382
v -0.089771 3.720925 -0.328912
v -0.070147 3.709834 -0.328912
v 0.129383 3.720925 -0.298532
v 0.129383 3.718348 -0.328912
v 0.328913 3.720925 -0.168675
v 0.171569 3.720925 -0.328912
v -0.070147 3.720925 -0.351967
v 0.129383 3.720925 -0.334326
v -0.070147 3.920455 0.265034
v -0.264989 3.920455 0.070148
v 0.129383 3.920455 0.256659
v 0.328913 3.920455 0.241881
v 0.523202 3.920455 0.070148
v -0.256542 3.920455 -0.129382
v 0.129383 3.738210 -0.129382
v 0.513399 3.920455 -0.129382
v -0.241855 3.920455 -0.328912
v 0.328913 3.736253 -0.328912
v 0.495413 3.920455 -0.328912
v -0.070147 3.920455 -0.523234
v 0.129383 3.920455 -0.513532
v 0.328913 3.920455 -0.495450
v -0.070147 4.119985 0.259586
v -0.259576 4.119985 0.070148
v 0.129383 4.119985 0.251800
v 0.328913 4.119985 0.245985
v 0.515607 4.119985 0.070148
v -0.251782 4.119985 -0.129382
v 0.505619 4.119985 -0.129382
v -0.245981 4.119985 -0.328912
v 0.500090 4.119985 -0.328912
v -0.070147 4.119985 -0.515615
v 0.129383 4.119985 -0.505636
v 0.328913 4.119985 -0.500093
v -0.070147 4.245188 0.070148
v 0.129383 4.245188 0.070148
v 0.328913 4.230041 0.070148
v -0.070147 4.245188 -0.129382
v 0.129383 4.245188 -0.129382
v 0.328913 4.229219 -0.129382
v -0.070147 4.230042 -0.328912
v 0.129383 4.229222 -0.328912
v 0.328913 4.218003 -0.328912
vn -0.4098 -0.8151 0.4095
vn 0.0614 -0.8992 0.4332
vn 0.0600 -0.8919 0.4481
vn -0.0272 -0.8704 0.4917
vn -0.0208 -0.9007 0.4340
vn 0.3864 -0.8030 0.4536
vn -0.4483 -0.8917 -0.0621
vn -0.4333 -0.8993 -0.0592
vn 0.0931 -0.9912 -0.0944
vn 0.0932 -0.9912 -0.0945
vn 0.0680 -0.9953 -0.0693
vn -0.0831 -0.9919 -0.0957
vn -0.0823 -0.9921 -0.0945
vn -0.0312 -0.9986 -0.0435
vn 0.4333 -0.9004 -0.0392
vn 0.4297 -0.9021 -0.0393
vn -0.4339 -0.9005 0.0295
vn -0.4919 -0.8703 0.0251
vn 0.0933 -0.9921 0.0833
vn 0.0940 -0.9920 0.0841
vn 0.0426 -0.9986 0.0327
vn 0.0609 -0.9963 -0.0598
vn 0.0609 -0.9964 -0.0598
vn -0.0832 -0.9930 0.0843
vn -0.0831 -0.9930 0.0842
vn 0.4294 -0.9015 -0.0541
vn -0.4538 -0.8030 -0.3863
vn 0.0384 -0.9005 -0.4332
vn 0.0380 -0.9023 -0.4294
vn 0.0551 -0.9016 -0.4291
vn -0.6169 -0.4889 0.6168
vn -0.6170 -0.4890 0.6166
vn 0.0998 -0.6592 0.7453
vn 0.0329 -0.6208 0.7833
vn -0.0381 -0.6059 0.7946
vn 0.0554 -0.6615 0.7479
vn 0.5608 -0.5020 0.6584
vn 0.5757 -0.4943 0.6513
vn -0.7793 -0.6176 -0.1064
vn -0.7478 -0.6631 -0.0317
vn 0.1129 -0.9870 -0.1146
vn -0.0997 -0.9884 -0.1147
vn 0.7570 -0.6499 -0.0684
vn 0.7429 -0.6684 -0.0365
vn -0.7477 -0.6630 0.0381
vn -0.7940 -0.6052 -0.0584
vn 0.1131 -0.9884 0.1010
vn -0.0998 -0.9898 0.1011
vn 0.0965 -0.9908 -0.0948
vn 0.7403 -0.6692 -0.0640
vn 0.7271 -0.6804 -0.0917
vn 0.7417 -0.6674 -0.0669
vn -0.6507 -0.4960 -0.5750
vn -0.6654 -0.4862 -0.5664
vn 0.0656 -0.6668 -0.7424
vn 0.0369 -0.6509 -0.7583
vn 0.0774 -0.7942 -0.6028
vn 0.0715 -0.6689 -0.7399
vn 0.0673 -0.6667 -0.7423
vn 0.5959 -0.5386 -0.5957
vn -0.7070 0.0193 0.7070
vn -0.7071 0.0192 0.7069
vn 0.0419 0.0243 0.9988
vn 0.0390 0.0273 0.9989
vn 0.0738 -0.0205 0.9971
vn 0.0291 0.0243 0.9993
vn 0.6622 -0.0154 0.7492
vn 0.6854 0.0261 0.7277
vn -0.9987 0.0271 -0.0423
vn -0.9990 0.0238 -0.0390
vn 0.9981 0.0380 -0.0490
vn 0.9980 0.0389 -0.0500
vn -0.9970 0.0238 -0.0734
vn -0.9994 -0.0207 -0.0291
vn 0.9952 0.0388 -0.0897
vn 0.9993 -0.0234 -0.0277
vn -0.7279 -0.0151 -0.6855
vn -0.7491 0.0253 -0.6619
vn 0.0485 0.0395 -0.9980
vn 0.0499 0.0381 -0.9980
vn 0.0902 -0.0232 -0.9957
vn 0.0277 0.0395 -0.9988
vn 0.7071 -0.0166 -0.7069
vn 0.7070 -0.0165 -0.7070
vn -0.4829 0.7306 0.4828
vn 0.0221 0.8232 0.5674
vn 0.0000 0.8343 0.5514
vn 0.0155 0.8476 0.5305
vn 0.0624 0.8218 0.5664
vn 0.4470 0.7583 0.4746
vn -0.5675 0.8233 0.0000
vn -0.5513 0.8341 -0.0215
vn 0.0000 1.0000 0.0000
vn 0.0757 0.9971 -0.0041
vn 0.0798 0.9968 0.0000
vn 0.5256 0.8503 -0.0263
vn 0.5078 0.8615 -0.0035
vn -0.5295 0.8459 -0.0642
vn -0.5675 0.8232 -0.0165
vn 0.0000 0.9968 -0.0798
vn 0.0041 0.9971 -0.0757
vn 0.0797 0.9953 -0.0559
vn 0.0560 0.9953 -0.0796
vn 0.4969 0.8677 -0.0138
vn 0.5252 0.8496 -0.0478
vn -0.4746 0.7583 -0.4470
vn 0.0254 0.8612 -0.5076
vn 0.0035 0.8506 -0.5258
vn 0.0146 0.8505 -0.5257
vn 0.0487 0.8668 -0.4963
vn 0.4450 0.7771 -0.4450
s off
f 3//1 1//1 2//1
f 3//2 5//2 4//2
f 1//3 3//3 4//3
f 5//4 7//4 6//4
f 4//5 5//5 6//5
f 6//6 7//6 8//6
f 10//7 3//7 2//7
f 9//8 10//8 2//8
f 12//9 11//9 5//9
f 12//10 5//10 10//10
f 10//11 5//11 3//11
f 11//12 13//12 14//12
f 11//13 14//13 5//13
f 5//14 14//14 7//14
f 15//15 8//15 7//15
f 14//16 15//16 7//16
f 17//17 10//17 9//17
f 16//18 17//18 9//18
f 18//19 12//19 10//19
f 18//20 10//20 19//20
f 19//21 10//21 17//21
f 21//22 20//22 14//22
f 21//23 14//23 19//23
f 13//24 18//24 14//24
f 18//25 19//25 14//25
f 15//26 14//26 20//26
f 17//27 16//27 22//27
f 19//28 17//28 22//28
f 23//29 19//29 22//29
f 21//30 19//30 23//30
f 1//31 24//31 25//31
f 2//32 1//32 25//32
f 4//33 26//33 1//33
f 1//34 26//34 24//34
f 6//35 27//35 4//35
f 4//36 27//36 26//36
f 27//37 6//37 8//37
f 28//38 27//38 8//38
f 2//39 25//39 9//39
f 25//40 29//40 9//40
f 11//41 12//41 30//41
f 11//42 30//42 13//42
f 8//43 15//43 28//43
f 28//44 15//44 31//44
f 9//45 29//45 16//45
f 29//46 32//46 16//46
f 12//47 18//47 30//47
f 13//48 30//48 18//48
f 20//49 21//49 33//49
f 20//50 33//50 34//50
f 20//51 34//51 15//51
f 15//52 34//52 31//52
f 16//53 32//53 35//53
f 22//54 16//54 35//54
f 23//55 22//55 36//55
f 22//56 35//56 36//56
f 33//57 21//57 23//57
f 33//58 23//58 37//58
f 37//59 23//59 36//59
f 34//60 33//60 37//60
f 24//61 38//61 39//61
f 25//62 24//62 39//62
f 26//63 40//63 24//63
f 24//64 40//64 38//64
f 27//65 41//65 26//65
f 26//66 41//66 40//66
f 41//67 27//67 28//67
f 42//68 41//68 28//68
f 25//69 39//69 29//69
f 39//70 43//70 29//70
f 28//71 31//71 42//71
f 42//72 31//72 44//72
f 29//73 43//73 32//73
f 43//74 45//74 32//74
f 31//75 34//75 44//75
f 44//76 34//76 46//76
f 32//77 45//77 47//77
f 35//78 32//78 47//78
f 36//79 35//79 48//79
f 35//80 47//80 48//80
f 37//81 36//81 49//81
f 36//82 48//82 49//82
f 46//83 34//83 37//83
f 49//84 46//84 37//84
f 38//85 50//85 39//85
f 38//86 40//86 51//86
f 50//87 38//87 51//87
f 40//88 41//88 52//88
f 51//89 40//89 52//89
f 41//90 42//90 52//90
f 50//91 53//91 43//91
f 39//92 50//92 43//92
f 51//93 54//93 50//93
f 54//93 53//93 50//93
f 52//94 55//94 51//94
f 55//95 54//95 51//95
f 42//96 44//96 55//96
f 52//97 42//97 55//97
f 53//98 56//98 45//98
f 43//99 53//99 45//99
f 54//100 57//100 53//100
f 57//101 56//101 53//101
f 55//102 58//102 54//102
f 58//103 57//103 54//103
f 44//104 46//104 58//104
f 55//105 44//105 58//105
f 45//106 56//106 47//106
f 48//107 47//107 56//107
f 57//108 48//108 56//108
f 49//109 48//109 57//109
f 58//110 49//110 57//110
f 46//111 49//111 58//111
