# Blender v2.78 (sub 0) OBJ File: 'fluid_test.blend'
# www.blender.org
o Area_Cube
v -0.070147 -3.063096 0.073280
v -0.073827 -3.063096 0.070148
v -0.070147 -3.067291 0.070148
v -0.058657 -3.063096 0.070148
v -0.139932 -3.063096 -0.129382
v -0.070147 -3.141886 -0.129382
v 0.129383 -3.063096 -0.087845
v 0.129383 -3.079937 -0.129382
v 0.142857 -3.063096 -0.129382
v -0.070147 -3.063096 -0.215594
v 0.129383 -3.063096 -0.147608
v -0.070147 -2.863566 0.113782
v -0.119925 -2.863566 0.070148
v 0.129383 -2.863566 0.103600
v 0.129383 -2.951032 0.070148
v 0.164551 -2.863566 0.070148
v -0.180398 -2.863566 -0.129382
v 0.222907 -2.863566 -0.129382
v -0.070995 -2.863566 -0.328912
v -0.070147 -2.865033 -0.328912
v 0.129383 -2.863566 -0.287315
v -0.066186 -2.863566 -0.328912
v -0.070147 -2.863566 -0.329912
v -0.070147 -2.747638 0.070148
v 0.129383 -2.755823 0.070148
v -0.070147 -2.664036 -0.017608
v -0.116726 -2.664036 -0.129382
v 0.129383 -2.664036 -0.006252
v 0.177137 -2.664036 -0.129382
v -0.070147 -2.664036 -0.220206
v -0.070147 -2.861105 -0.328912
v 0.129383 -2.664036 -0.207892
v -0.070147 -2.622653 -0.129382
v 0.129383 -2.619401 -0.129382
v -0.070147 -0.469206 -0.046330
v -0.107867 -0.469206 -0.129382
v -0.070147 -0.521940 -0.129382
v -0.001351 -0.469206 -0.129382
v -0.070147 -0.469206 -0.165951
v -0.070147 -0.269676 -0.027985
v -0.124000 -0.269676 -0.129382
v 0.016277 -0.269676 -0.129382
v -0.070147 -0.269676 -0.181167
v -0.070147 -0.223834 -0.129382
v -0.070147 3.720925 0.132663
v -0.129683 3.720925 0.070148
v -0.070147 3.658906 0.070148
v 0.129383 3.720925 0.164247
v 0.129383 3.622226 0.070148
v 0.306706 3.720925 0.070148
v -0.162592 3.720925 -0.129382
v -0.070147 3.620389 -0.129382
v 0.129383 3.562286 -0.129382
v 0.321984 3.720925 -0.129382
v -0.070147 3.720925 -0.282020
v 0.058625 3.720925 -0.328912
v 0.129383 3.699861 -0.328912
v 0.169069 3.720925 -0.328912
v 0.129383 3.720925 -0.362190
v -0.070147 3.920455 0.205009
v -0.191361 3.920455 0.070148
v 0.129383 3.920455 0.250357
v 0.328913 3.920455 0.157148
v 0.328913 3.746175 0.070148
v 0.451438 3.920455 0.070148
v -0.219932 3.920455 -0.129382
v 0.328913 3.733931 -0.129382
v 0.451560 3.920455 -0.129382
v -0.144895 3.920455 -0.328912
v -0.070147 3.781909 -0.328912
v 0.328913 3.920455 -0.323847
v 0.325025 3.920455 -0.328912
v -0.070147 3.920455 -0.435353
v 0.129383 3.920455 -0.499086
v -0.070147 4.119985 0.216375
v -0.215704 4.119985 0.070148
v 0.129383 4.119985 0.229932
v 0.328913 4.119985 0.169138
v 0.462844 4.119985 0.070148
v -0.246497 4.119985 -0.129382
v 0.472932 4.119985 -0.129382
v -0.174982 4.119985 -0.328912
v 0.328913 3.944443 -0.328912
v 0.353181 4.119985 -0.328912
v -0.070147 4.119985 -0.468282
v 0.129383 4.119985 -0.490710
v 0.328913 4.119985 -0.353410
v -0.070147 4.244450 0.070148
v 0.129383 4.245172 0.070148
v 0.328913 4.221027 0.070148
v -0.070147 4.245188 -0.129382
v 0.129383 4.245188 -0.129382
v 0.328913 4.223720 -0.129382
v -0.070147 4.221677 -0.328912
v 0.129383 4.231144 -0.328912
v 0.328913 4.143780 -0.328912
vn -0.5633 -0.4942 0.6621
vn 0.2134 -0.5844 0.7829
vn -0.7299 -0.6403 0.2394
vn -0.7266 -0.6435 0.2407
vn 0.3175 -0.8697 0.3779
vn 0.3022 -0.8834 0.3582
vn 0.2792 -0.8994 0.3362
vn 0.7569 -0.6056 0.2455
vn -0.6402 -0.5671 -0.5182
vn 0.2234 -0.7195 -0.6576
vn 0.2253 -0.7156 -0.6612
vn 0.6763 -0.5411 -0.4999
vn -0.6516 -0.1509 0.7434
vn -0.6409 -0.1481 0.7532
vn 0.2082 -0.3494 0.9135
vn 0.2433 -0.3790 0.8928
vn 0.0499 -0.1987 0.9788
vn 0.6642 -0.2670 0.6983
vn -0.9272 -0.2142 0.3072
vn -0.9395 -0.1905 0.2847
vn 0.4372 -0.7336 0.5203
vn 0.8722 -0.3989 0.2829
vn 0.8952 -0.3600 0.2626
vn 0.8957 -0.3593 0.2620
vn -0.7313 -0.3387 -0.5920
vn -0.6761 -0.3910 -0.6245
vn -0.8633 -0.1751 -0.4733
vn 0.1809 -0.4884 -0.8537
vn 0.1815 -0.4884 -0.8536
vn 0.2688 -0.5524 -0.7890
vn 0.7653 -0.3070 -0.5657
vn 0.8104 -0.3360 -0.4799
vn -0.6979 -0.4036 -0.5916
vn 0.2042 -0.5516 -0.8087
vn -0.6342 0.2723 0.7236
vn 0.0487 0.2962 0.9539
vn 0.0145 0.3522 0.9358
vn 0.6724 0.2195 0.7069
vn -0.8559 0.3744 0.3567
vn -0.8590 0.3688 0.3551
vn -0.9153 0.2921 0.2774
vn 0.0297 0.7237 0.6895
vn -0.0437 0.6391 0.7679
vn 0.8908 0.2907 0.3493
vn 0.8923 0.2898 0.3461
vn 0.9373 0.2150 0.2741
vn -0.8140 0.2806 -0.5086
vn -0.8628 0.2447 -0.4425
vn -0.8444 0.2695 -0.4630
vn 0.1973 0.3175 -0.9275
vn 0.1852 0.4746 -0.8605
vn 0.0572 0.3692 -0.9276
vn 0.8442 0.1936 -0.4999
vn 0.8367 0.2026 -0.5089
vn -0.7377 0.2543 -0.6254
vn 0.2278 0.3667 -0.9020
vn -0.6401 0.7205 0.2668
vn -0.0194 0.9400 0.3407
vn -0.0153 0.9377 0.3472
vn 0.6601 0.7062 0.2560
vn -0.6287 0.7076 -0.3224
vn 0.0256 0.9097 -0.4145
vn -0.0142 0.8692 -0.4942
vn 0.6306 0.6747 -0.3836
vn -0.7630 -0.5457 0.3465
vn 0.5433 -0.7088 0.4500
vn -0.6231 -0.4457 -0.6427
vn 0.4003 -0.5222 -0.7530
vn -0.8823 -0.0431 0.4686
vn -0.9080 -0.0734 0.4124
vn 0.7688 -0.0585 0.6368
vn 0.7593 -0.0671 0.6472
vn -0.6920 -0.0560 -0.7197
vn -0.6950 -0.0547 -0.7169
vn 0.4690 -0.0414 -0.8822
vn 0.5129 -0.0653 -0.8560
vn -0.6129 0.7200 0.3255
vn 0.4352 0.8204 0.3709
vn -0.5375 0.6314 -0.5589
vn 0.3691 0.6959 -0.6160
vn -0.5946 -0.5708 0.5663
vn -0.1258 -0.6846 0.7180
vn -0.1108 -0.7056 0.6999
vn 0.3585 -0.6442 0.6757
vn -0.7150 -0.6864 0.1325
vn -0.7307 -0.6719 0.1205
vn -0.1734 -0.9432 0.2833
vn -0.2749 -0.9440 0.1822
vn 0.4860 -0.8732 0.0372
vn 0.6193 -0.7519 0.2259
vn -0.6723 -0.6182 -0.4072
vn -0.2246 -0.7544 -0.6168
vn -0.2125 -0.8161 -0.5375
vn -0.2331 -0.8006 -0.5520
vn 0.5715 -0.6939 -0.4380
vn 0.4004 -0.7544 -0.5202
vn -0.2439 -0.8194 -0.5187
vn 0.4092 -0.7710 -0.4880
vn -0.7228 -0.2356 0.6497
vn -0.7067 -0.2184 0.6730
vn -0.1438 -0.3921 0.9086
vn -0.2089 -0.3333 0.9194
vn 0.4528 -0.3982 0.7977
vn 0.4295 -0.4007 0.8093
vn 0.3942 -0.3642 0.8438
vn 0.5362 -0.3770 0.7552
vn -0.9438 -0.2917 0.1557
vn -0.9521 -0.2736 0.1363
vn 0.8822 -0.4700 0.0288
vn 0.7497 -0.6593 0.0574
vn 0.8181 -0.5751 0.0005
vn 0.8351 -0.5491 0.0337
vn -0.7946 -0.3701 -0.4813
vn -0.7702 -0.4155 -0.4839
vn -0.9039 -0.2598 -0.3399
vn -0.2773 -0.5856 -0.7616
vn 0.6696 -0.5360 -0.5141
vn 0.8028 -0.4277 -0.4155
vn 0.6745 -0.5272 -0.5169
vn 0.7392 -0.4861 -0.4662
vn -0.7486 -0.4039 -0.5257
vn -0.2772 -0.5854 -0.7619
vn -0.3393 -0.6038 -0.7214
vn -0.2547 -0.5471 -0.7974
vn 0.5742 -0.4488 -0.6847
vn 0.5828 -0.4597 -0.6701
vn -0.7082 -0.0402 0.7049
vn -0.7407 -0.0904 0.6657
vn -0.2205 0.0993 0.9703
vn -0.0677 -0.0567 0.9961
vn 0.4226 -0.0544 0.9047
vn 0.2901 0.0975 0.9520
vn 0.5783 -0.0489 0.8144
vn 0.5940 -0.0340 0.8037
vn -0.9828 -0.1199 0.1407
vn -0.9799 -0.1305 0.1512
vn 0.9984 -0.0571 0.0006
vn 0.9931 -0.1064 0.0502
vn -0.9288 -0.1237 -0.3493
vn -0.9320 -0.1405 -0.3341
vn 0.7867 -0.1275 -0.6040
vn 0.8310 -0.1149 -0.5442
vn 0.8402 -0.1156 -0.5299
vn 0.8538 -0.0915 -0.5124
vn -0.7934 -0.1196 -0.5968
vn -0.8147 -0.0944 -0.5721
vn -0.3040 0.0400 -0.9518
vn -0.1102 -0.1618 -0.9806
vn 0.6526 -0.1058 -0.7503
vn 0.6526 -0.1047 -0.7504
vn 0.5665 0.0346 -0.8233
vn 0.7070 -0.0977 -0.7004
vn -0.5457 0.6381 0.5432
vn -0.0419 0.7865 0.6162
vn -0.0028 0.7615 0.6482
vn 0.2127 0.6838 0.6980
vn 0.0948 0.7836 0.6140
vn 0.4669 0.6189 0.6317
vn -0.5789 0.8154 0.0030
vn -0.6466 0.7562 0.0998
vn -0.0036 1.0000 0.0001
vn 0.0000 1.0000 0.0037
vn 0.1201 0.9927 0.0134
vn 0.1070 0.9943 0.0001
vn 0.5842 0.8111 0.0295
vn 0.6022 0.7983 0.0108
vn -0.6938 0.7152 -0.0843
vn -0.5668 0.7984 -0.2032
vn 0.0000 0.9975 -0.0702
vn -0.0471 0.9920 -0.1169
vn 0.0994 0.9237 -0.3701
vn 0.4003 0.9141 -0.0643
vn 0.6454 0.6583 -0.3874
vn 0.5558 0.7717 -0.3092
vn -0.6168 0.6359 -0.4639
vn -0.0661 0.8061 -0.5881
vn -0.0391 0.8236 -0.5658
vn 0.3631 0.7680 -0.5276
vn 0.2997 0.6844 -0.6647
vn 0.5753 0.5867 -0.5699
s off
f 3//1 1//1 2//1
f 1//2 3//2 4//2
f 6//3 3//3 2//3
f 5//4 6//4 2//4
f 7//5 4//5 3//5
f 7//6 3//6 8//6
f 8//7 3//7 6//7
f 7//8 8//8 9//8
f 6//9 5//9 10//9
f 8//10 6//10 10//10
f 11//11 8//11 10//11
f 9//12 8//12 11//12
f 1//13 12//13 13//13
f 2//14 1//14 13//14
f 4//15 15//15 14//15
f 4//16 14//16 1//16
f 1//17 14//17 12//17
f 14//18 15//18 16//18
f 2//19 13//19 5//19
f 13//20 17//20 5//20
f 4//21 7//21 15//21
f 15//22 7//22 9//22
f 15//23 9//23 16//23
f 16//24 9//24 18//24
f 20//25 10//25 5//25
f 20//26 5//26 19//26
f 19//27 5//27 17//27
f 22//28 10//28 20//28
f 22//29 21//29 10//29
f 21//30 11//30 10//30
f 18//31 9//31 11//31
f 21//32 18//32 11//32
f 20//33 19//33 23//33
f 22//34 20//34 23//34
f 12//35 24//35 13//35
f 12//36 14//36 25//36
f 24//37 12//37 25//37
f 14//38 16//38 25//38
f 24//39 26//39 27//39
f 24//40 27//40 13//40
f 13//41 27//41 17//41
f 25//42 26//42 24//42
f 28//43 26//43 25//43
f 28//44 25//44 16//44
f 28//45 16//45 29//45
f 29//46 16//46 18//46
f 30//47 31//47 19//47
f 30//48 19//48 27//48
f 27//49 19//49 17//49
f 31//50 21//50 22//50
f 31//51 30//51 21//51
f 30//52 32//52 21//52
f 29//53 18//53 21//53
f 32//54 29//54 21//54
f 19//55 31//55 23//55
f 22//56 23//56 31//56
f 26//57 33//57 27//57
f 26//58 28//58 34//58
f 33//59 26//59 34//59
f 28//60 29//60 34//60
f 27//61 33//61 30//61
f 32//62 30//62 33//62
f 34//63 32//63 33//63
f 29//64 32//64 34//64
f 37//65 35//65 36//65
f 35//66 37//66 38//66
f 37//67 36//67 39//67
f 38//68 37//68 39//68
f 35//69 40//69 41//69
f 36//70 35//70 41//70
f 40//71 35//71 38//71
f 42//72 40//72 38//72
f 36//73 41//73 43//73
f 39//74 36//74 43//74
f 42//75 38//75 39//75
f 43//76 42//76 39//76
f 40//77 44//77 41//77
f 40//78 42//78 44//78
f 41//79 44//79 43//79
f 42//80 43//80 44//80
f 47//81 45//81 46//81
f 47//82 49//82 48//82
f 45//83 47//83 48//83
f 48//84 49//84 50//84
f 52//85 47//85 46//85
f 51//86 52//86 46//86
f 49//87 47//87 53//87
f 53//88 47//88 52//88
f 54//89 50//89 49//89
f 53//90 54//90 49//90
f 52//91 51//91 55//91
f 55//92 56//92 57//92
f 55//93 57//93 52//93
f 52//94 57//94 53//94
f 58//95 54//95 53//95
f 57//96 58//96 53//96
f 57//97 56//97 59//97
f 58//98 57//98 59//98
f 45//99 60//99 61//99
f 46//100 45//100 61//100
f 48//101 62//101 45//101
f 45//102 62//102 60//102
f 50//103 64//103 63//103
f 50//104 63//104 48//104
f 48//105 63//105 62//105
f 63//106 64//106 65//106
f 46//107 61//107 51//107
f 61//108 66//108 51//108
f 64//109 54//109 67//109
f 50//110 54//110 64//110
f 68//111 65//111 64//111
f 67//112 68//112 64//112
f 70//113 55//113 51//113
f 70//114 51//114 69//114
f 69//115 51//115 66//115
f 55//116 70//116 56//116
f 67//117 72//117 71//117
f 67//118 54//118 72//118
f 54//119 58//119 72//119
f 68//120 67//120 71//120
f 70//121 69//121 73//121
f 56//122 70//122 73//122
f 56//123 73//123 59//123
f 59//124 73//124 74//124
f 72//125 58//125 59//125
f 74//126 72//126 59//126
f 60//127 75//127 76//127
f 61//128 60//128 76//128
f 62//129 77//129 60//129
f 60//130 77//130 75//130
f 63//131 78//131 62//131
f 62//132 78//132 77//132
f 78//133 63//133 65//133
f 79//134 78//134 65//134
f 61//135 76//135 66//135
f 76//136 80//136 66//136
f 65//137 68//137 79//137
f 79//138 68//138 81//138
f 66//139 80//139 69//139
f 80//140 82//140 69//140
f 71//141 72//141 83//141
f 71//142 83//142 84//142
f 71//143 84//143 68//143
f 68//144 84//144 81//144
f 69//145 82//145 85//145
f 73//146 69//146 85//146
f 74//147 73//147 86//147
f 73//148 85//148 86//148
f 83//149 72//149 74//149
f 83//150 74//150 87//150
f 87//151 74//151 86//151
f 84//152 83//152 87//152
f 75//153 88//153 76//153
f 75//154 77//154 89//154
f 88//155 75//155 89//155
f 77//156 78//156 90//156
f 89//157 77//157 90//157
f 78//158 79//158 90//158
f 88//159 91//159 80//159
f 76//160 88//160 80//160
f 89//161 92//161 88//161
f 92//162 91//162 88//162
f 90//163 93//163 89//163
f 93//164 92//164 89//164
f 79//165 81//165 93//165
f 90//166 79//166 93//166
f 91//167 94//167 82//167
f 80//168 91//168 82//168
f 92//169 95//169 91//169
f 95//170 94//170 91//170
f 93//171 96//171 92//171
f 96//172 95//172 92//172
f 81//173 84//173 96//173
f 93//174 81//174 96//174
f 82//175 94//175 85//175
f 86//176 85//176 94//176
f 95//177 86//177 94//177
f 87//178 86//178 95//178
f 96//179 87//179 95//179
f 84//180 87//180 96//180
